  <svg width="14" height="18" viewBox="0 0 14 18" fill="none" xmlns="http://www.w3.org/2000/svg">
<path d="M12.2229 0.498166C12.1653 0.537513 12.1186 0.574239 12.0778 0.616637C11.8465 0.857096 11.6147 1.09715 11.3868 1.34085C11.2153 1.52429 11.0525 1.71601 10.8803 1.89877C10.4951 2.30751 10.105 2.71159 9.71954 3.12012C9.2783 3.58781 8.83991 4.05817 8.40043 4.52752C8.12969 4.81667 7.85877 5.10565 7.58878 5.3955C7.34526 5.65692 7.1029 5.91943 6.84973 6.19583C6.83333 6.22319 6.83004 6.23881 6.82072 6.2488C6.45057 6.64566 6.08004 7.04217 5.70868 7.43789C5.69277 7.45484 5.66848 7.46391 5.64809 7.47665C5.36511 7.78102 5.08754 8.09067 4.79748 8.38813C4.55142 8.64047 4.56987 9.12102 4.79205 9.36813C5.06997 9.67723 5.35831 9.97697 5.65551 10.2856C5.70833 10.248 5.74989 10.2072 5.78694 10.1627C6.22447 9.63665 6.65906 9.10818 7.09914 8.58431C7.40791 8.21675 7.72392 7.85526 8.03671 7.49106C8.42144 7.03668 8.80536 6.5816 9.19115 6.12811C9.53756 5.72093 9.88787 5.31706 10.233 4.90884C10.5798 4.49876 10.9206 4.08361 11.2673 3.67349C11.5616 3.32532 11.8632 2.98322 12.157 2.63463C12.4382 2.30095 12.7232 1.96968 12.9885 1.62352C13.1844 1.36795 13.2642 1.07709 13.0607 0.784632C12.987 0.678798 12.8704 0.602867 12.783 0.505729C12.6072 0.498166 12.4219 0.498166 12.2229 0.498166Z" fill="#E3F8F5"/>
<path d="M8.04565 7.49632C7.72416 7.85533 7.40814 8.21682 7.09937 8.58438C6.65929 9.10825 6.2247 9.63672 5.78717 10.1627C5.75012 10.2073 5.70857 10.2481 5.66036 10.2945C5.22605 10.8144 4.80194 11.3316 4.37452 11.846C3.92553 12.3865 3.47116 12.9224 3.02321 13.4637C2.53581 14.0526 2.05175 14.6443 1.56884 15.2369C1.29913 15.5679 1.03273 15.9016 0.768473 16.237C0.499286 16.5786 0.625909 16.9987 1.0063 17.2117C1.02207 17.2205 1.03366 17.2368 1.04276 17.2595C1.20422 17.2695 1.37012 17.2695 1.54968 17.2695C1.57726 17.2429 1.58564 17.2107 1.60596 17.1905C1.86864 16.9296 2.13612 16.6734 2.39575 16.4095C2.54083 16.262 2.67098 16.1 2.81238 15.9487C3.13591 15.6027 3.46356 15.2605 3.78706 14.9144C4.16308 14.5121 4.53674 14.1077 4.91088 13.7037C5.14351 13.4525 5.37481 13.2 5.60729 12.9487C5.97768 12.5482 6.34882 12.1485 6.71883 11.7477C6.7576 11.7057 6.79085 11.6586 6.83861 11.5995C7.10721 11.3023 7.36218 11.018 7.62116 10.7373C7.75532 10.592 7.89657 10.4531 8.03462 10.3113C8.34196 9.97749 8.66048 9.65311 8.95337 9.30704C9.22822 8.98228 9.13103 8.63235 8.89273 8.36995C8.62235 8.07223 8.33457 7.7903 8.04565 7.49632Z" fill="#005050"/>
<path d="M8.04294 10.3189C7.897 10.4533 7.75575 10.5921 7.62158 10.7375C7.36261 11.0181 7.10763 11.3024 6.84766 11.594C7.21687 12.0026 7.58955 12.4023 7.96191 12.8023C8.08689 12.9366 8.21012 13.0725 8.33578 13.2061C8.65757 13.5483 8.98178 13.8881 9.3022 14.2316C9.66172 14.6169 10.0154 15.0077 10.3773 15.3908C10.5111 15.5324 10.6455 15.6833 10.8074 15.7863C11.0414 15.9354 11.2874 15.8669 11.505 15.7228C11.7225 15.5787 11.8857 15.3737 11.8203 15.1063C11.7761 14.9253 11.6527 14.7544 11.5347 14.6023C11.1819 14.1476 10.8153 13.7035 10.452 13.2569C10.1761 12.9178 9.89554 12.5825 9.61972 12.2433C9.3413 11.9009 9.0682 11.5542 8.78895 11.2126C8.54567 10.9149 8.29708 10.6216 8.04294 10.3189Z" fill="#E3F8F5"/>
<path d="M5.64144 7.47119C5.67069 7.46376 5.69499 7.45469 5.71089 7.43774C6.08226 7.04202 6.45279 6.64551 6.82294 6.24865C6.83226 6.23866 6.83555 6.22304 6.84313 6.2003C6.55865 5.8884 6.27326 5.58571 5.9866 5.28423C5.58961 4.86669 5.19082 4.45086 4.79441 4.03277C4.48825 3.70987 4.18471 3.38447 3.87971 3.06046C3.56135 2.72224 3.23656 2.3898 2.92705 2.04368C2.80151 1.90329 2.67639 1.78959 2.48599 1.74435C2.01134 1.63155 1.55544 2.09016 1.66217 2.56715C1.72244 2.83648 1.89703 3.02499 2.06125 3.22373C2.40422 3.63883 2.74993 4.05171 3.09767 4.46283C3.39337 4.81243 3.69581 5.15634 3.991 5.50636C4.27027 5.83752 4.54207 6.17497 4.82073 6.50665C5.05627 6.78701 5.29716 7.06288 5.53508 7.34125C5.56931 7.38131 5.60016 7.42426 5.64144 7.47119Z" fill="#005050"/>
</svg> 