<svg width="19" height="12" viewBox="0 0 19 12" fill="none" xmlns="http://www.w3.org/2000/svg">
<path d="M6.17156 7.69886C6.17156 7.09375 6.01799 6.61469 5.71084 6.26171C5.40828 5.90872 4.99799 5.73223 4.47998 5.73223C3.9482 5.73223 3.52875 5.90643 3.2216 6.25483C2.91904 6.59865 2.76776 7.07541 2.76776 7.68511C2.76776 8.29482 2.91675 8.77158 3.21473 9.11539C3.51729 9.45921 3.93445 9.63112 4.46622 9.63112C5.00716 9.63112 5.42662 9.4615 5.7246 9.12227C6.02257 8.78304 6.17156 8.30857 6.17156 7.69886ZM7.95941 11.082H6.06154L6.08904 10.1125C5.82316 10.5388 5.50226 10.8528 5.12635 11.0545C4.75503 11.2516 4.30119 11.3502 3.76483 11.3502C2.87091 11.3502 2.14889 11.0179 1.59878 10.3531C1.05326 9.68842 0.780496 8.81054 0.780496 7.71949C0.780496 6.57802 1.04867 5.68868 1.58503 5.05147C2.12597 4.41426 2.87549 4.09565 3.8336 4.09565C4.32411 4.09565 4.75503 4.20797 5.12635 4.4326C5.49768 4.65722 5.84608 5.0125 6.17156 5.49843C6.14864 5.3334 6.1303 5.15232 6.11655 4.9552C6.10738 4.75349 6.1028 4.52428 6.1028 4.26756V0.423681H7.95941V11.082ZM13.924 7.71949C13.924 7.16939 13.7635 6.73159 13.4426 6.40611C13.1217 6.07604 12.6908 5.91101 12.1499 5.91101C11.6089 5.91101 11.1803 6.07375 10.864 6.39923C10.5477 6.72471 10.3895 7.1648 10.3895 7.71949C10.3895 8.2696 10.5477 8.70969 10.864 9.03975C11.1803 9.36982 11.6089 9.53485 12.1499 9.53485C12.6862 9.53485 13.1148 9.36982 13.4357 9.03975C13.7612 8.70969 13.924 8.2696 13.924 7.71949ZM15.9181 7.73325C15.9181 8.76928 15.5628 9.63112 14.8523 10.3188C14.1463 11.0064 13.2501 11.3502 12.1636 11.3502C11.068 11.3502 10.1649 11.0064 9.45433 10.3188C8.74377 9.63112 8.3885 8.76928 8.3885 7.73325C8.3885 6.70179 8.74607 5.83996 9.46121 5.14774C10.1763 4.45552 11.0772 4.10941 12.1636 4.10941C13.2547 4.10941 14.1532 4.45093 14.8591 5.13398C15.5651 5.81704 15.9181 6.68346 15.9181 7.73325ZM16.2509 1.56516C16.2509 1.25343 16.3632 0.98525 16.5879 0.760622C16.8125 0.535995 17.0807 0.423681 17.3924 0.423681C17.7087 0.423681 17.9792 0.535995 18.2038 0.760622C18.433 0.980666 18.5476 1.24884 18.5476 1.56516C18.5476 1.88147 18.433 2.15194 18.2038 2.37657C17.9792 2.60119 17.7087 2.71351 17.3924 2.71351C17.0807 2.71351 16.8125 2.5989 16.5879 2.36969C16.3632 2.14048 16.2509 1.8723 16.2509 1.56516ZM16.4228 11.082V4.33633H18.3757V11.082H16.4228Z" fill="#005050"/>
</svg>
