<svg width="25" height="25" viewBox="0 0 25 25" fill="none" xmlns="http://www.w3.org/2000/svg">
<path d="M23.2915 13.9102C23.2915 20.0256 18.3535 24.983 12.2623 24.983C6.171 24.983 1.23306 20.0256 1.23306 13.9102C1.23306 7.79486 6.171 2.83739 12.2623 2.83739C18.3535 2.83739 23.2915 7.79486 23.2915 13.9102Z" fill="#005050"/>
<path fill-rule="evenodd" clip-rule="evenodd" d="M9.28342 21.6008C9.2236 21.6008 9.07406 21.6314 9.00826 21.6436C8.91256 21.6559 8.81685 21.6743 8.72115 21.6865C8.41609 21.7416 8.09308 21.7049 7.794 21.7049C7.60259 21.7049 7.09415 21.6375 6.91471 21.5885C6.53787 21.4844 6.33449 21.4048 6.00551 21.1782C5.75428 21.0067 5.521 20.7373 5.37744 20.4556C5.30566 20.3147 5.24584 20.1494 5.18005 19.984C4.98864 19.5309 4.74937 19.0961 4.42038 18.7347C4.10336 18.3918 4.03756 18.4408 3.85812 18.2999C3.72652 18.1958 3.61287 18.1162 3.52913 17.9631C3.49324 17.9019 3.42744 17.8039 3.46931 17.7304C3.53511 17.6141 3.84017 17.5773 3.99569 17.5896C4.16318 17.6018 4.37253 17.6508 4.53403 17.712C4.82115 17.8223 5.11425 18.0305 5.33557 18.2326L5.53296 18.4285C5.53296 18.4347 5.53296 18.4347 5.53894 18.4408C5.62867 18.551 5.71839 18.6551 5.79615 18.7837L6.04738 19.2002C6.13112 19.3226 6.25075 19.4513 6.35244 19.5615C6.819 20.0392 7.30949 20.2351 8.02728 20.1923C8.49983 20.1678 8.84676 20.0759 9.24155 19.9167C9.30136 19.8922 9.31931 19.8983 9.32529 19.8248C9.36716 19.5492 9.43296 19.2859 9.53464 19.0287C9.63633 18.7654 9.79783 18.5143 9.99523 18.3183C10.0251 18.2877 10.061 18.2693 10.073 18.2203C10.0012 18.2203 9.91148 18.2142 9.84569 18.202C9.63633 18.1652 9.40903 18.1468 9.19967 18.104C8.91854 18.0489 8.66731 17.9876 8.39814 17.9141C7.78802 17.7488 7.07023 17.3997 6.56179 17.02L6.21486 16.7383C6.19094 16.7199 6.17299 16.6955 6.14308 16.671C5.98158 16.5117 5.86195 16.377 5.73035 16.2055C5.29968 15.6483 4.91686 14.699 4.79722 14.0009C4.74339 13.7008 4.68956 13.4252 4.66563 13.1252C4.65367 12.9598 4.64769 12.819 4.62974 12.6475C4.60581 12.3535 4.61778 11.9861 4.63572 11.6799C4.6417 11.5513 4.67759 11.3798 4.69554 11.2451C4.76134 10.7797 4.91686 10.3204 5.12621 9.90395C5.15612 9.85496 5.18005 9.79984 5.20995 9.74473C5.3236 9.55488 5.71839 8.93023 5.84998 8.86899C5.844 8.79551 5.76026 8.58729 5.73035 8.49543C5.52698 7.76668 5.57483 7.05629 5.73035 6.32754C5.75428 6.21118 5.91578 5.64777 5.96962 5.58653C6.02943 5.53754 6.34047 5.54367 6.40627 5.54979C6.53189 5.56204 6.69339 5.59878 6.819 5.63553C7.23771 5.75188 7.8598 6.02134 8.25458 6.22343C8.49983 6.35203 8.67928 6.46227 8.89461 6.60312L9.11593 6.74397C9.33127 6.88482 9.2236 6.86645 9.56455 6.77459C9.77989 6.71335 10.1747 6.62149 10.396 6.59699C10.5336 6.57862 10.6831 6.54188 10.8326 6.52963C11.688 6.43777 12.3161 6.3949 13.1954 6.46839C13.5004 6.49901 13.7995 6.548 14.0926 6.59087C14.4395 6.63374 14.7805 6.71947 15.1155 6.81133C15.2052 6.83583 15.2471 6.86645 15.3188 6.82358C15.3428 6.80521 15.3547 6.79296 15.3846 6.76847L15.9349 6.4194C16.4613 6.1132 17.538 5.56816 18.1003 5.54979C18.3037 5.54367 18.3635 5.53754 18.5489 5.58653C18.6805 5.82537 18.83 6.44389 18.8779 6.71947C18.9018 6.87257 18.9138 7.00118 18.9257 7.16652C18.9556 7.45435 18.9497 7.80342 18.8899 8.08512C18.8599 8.22598 18.842 8.35458 18.8061 8.48318C18.6685 8.94248 18.6386 8.78326 18.7882 8.97923C19.0334 9.28543 19.2428 9.56713 19.4162 9.92844C19.7333 10.5837 19.817 11.0185 19.8948 11.7228C19.9187 11.8881 19.9247 12.4515 19.9067 12.623C19.8589 13.1068 19.8649 13.3395 19.7691 13.8478C19.6017 14.7297 19.2487 15.7279 18.6625 16.377C18.5848 16.4627 18.513 16.5301 18.4412 16.6097C18.2558 16.8179 17.9089 17.069 17.6816 17.2037C17.4782 17.3323 17.3107 17.4242 17.0954 17.5283C16.4853 17.8345 15.7076 18.0672 15.0257 18.1468C14.9061 18.1652 14.7506 18.1958 14.631 18.2081C14.3678 18.2326 14.4276 18.2081 14.5592 18.3489C14.8463 18.6613 15.0497 19.0532 15.1573 19.5676C15.2052 19.8187 15.2471 20.0943 15.2471 20.376V23.1318C15.2471 23.4318 15.1872 23.9585 15.3188 24.1973C15.3428 24.2402 15.3787 24.3014 15.4086 24.3382C15.4265 24.3627 15.5043 24.4178 15.5342 24.4362C15.6 24.479 15.6239 24.4729 15.7017 24.4484C16.9518 24.0871 17.9687 23.5482 19.0454 22.8378C19.1411 22.7766 19.2188 22.7153 19.3086 22.648C19.3983 22.5867 19.482 22.5255 19.5658 22.4581C19.5957 22.4398 19.6017 22.4336 19.6256 22.4153C19.6555 22.3908 19.6615 22.3846 19.6914 22.3601C19.9007 22.1948 20.1161 22.0356 20.3015 21.8457L20.6963 21.466C20.9834 21.2088 20.9714 21.1843 21.2047 20.9394C21.4141 20.7312 21.7849 20.2719 21.9644 20.0085L22.2037 19.6778C22.2336 19.6411 22.2635 19.5921 22.2934 19.5492C22.3891 19.4023 22.4788 19.2737 22.5625 19.1267C22.748 18.7837 22.8616 18.6 23.0351 18.2387C24.3032 15.636 24.5604 12.5924 23.8964 9.75697C23.717 8.99147 23.406 8.1035 23.059 7.41148L22.419 6.23568C22.2156 5.88661 21.9285 5.4763 21.6773 5.15786L21.2825 4.66181C21.2167 4.57608 21.1389 4.50259 21.0612 4.42298L20.8458 4.17802C20.7382 4.06779 20.6305 3.94531 20.5109 3.8412C20.3912 3.73709 20.2776 3.61461 20.1579 3.51663C20.128 3.49213 20.0742 3.44314 20.0443 3.41252C19.811 3.19205 19.5418 2.99609 19.2906 2.81237L18.6207 2.34694C16.5092 0.962922 14.0687 0.375019 11.5145 0.509747C9.63035 0.607731 7.6325 1.2385 6.06532 2.25508C5.88587 2.36532 5.69446 2.4878 5.521 2.61028C5.31164 2.76338 5.07836 2.9226 4.869 3.09407L4.62974 3.29004C4.47422 3.40639 4.17514 3.70035 4.03158 3.83507C3.80428 4.04941 3.61885 4.24538 3.42744 4.45972L3.15827 4.77817C3.12238 4.82104 3.08649 4.85778 3.05658 4.89452L2.2072 6.08258C2.14738 6.17444 2.08756 6.28467 2.03373 6.36428C1.96793 6.45614 1.92008 6.56025 1.86625 6.65211C1.09462 8.02388 0.610112 9.4569 0.388793 11.0859C0.0717687 13.4314 0.406738 15.9606 1.41164 18.0611C1.69876 18.6674 2.02775 19.2614 2.40459 19.8003C2.44048 19.8432 2.4644 19.8799 2.50029 19.9289L2.8891 20.4372C3.12238 20.7312 3.37959 21.0129 3.6368 21.2823C3.76241 21.4048 3.96578 21.6375 4.09738 21.7355L4.82713 22.354C4.869 22.3969 4.90489 22.4153 4.95275 22.452C4.97667 22.4765 4.98864 22.4826 5.01256 22.501C5.21594 22.6541 5.40137 22.7949 5.60474 22.9297L6.16103 23.2787C6.34646 23.3951 6.54385 23.4808 6.74124 23.5972C7.22575 23.8789 8.12897 24.2402 8.64937 24.3933C8.75704 24.4301 8.88863 24.4974 8.98434 24.4484C9.20566 24.3321 9.30136 24.1116 9.30136 23.8544C9.29538 23.4257 9.31332 22.9236 9.2894 22.5132C9.27145 22.2254 9.31332 21.8825 9.28342 21.6008Z" fill="#74DDD0"/>
</svg>
