<svg width="12" height="11" viewBox="0 0 12 11" fill="none" xmlns="http://www.w3.org/2000/svg">
<path fill-rule="evenodd" clip-rule="evenodd" d="M4.08251 10.5559H6.35496C6.36566 10.4595 6.35853 9.09321 6.35853 8.95765V6.5532C6.35853 6.2571 6.37637 6.19289 6.54047 5.93246C6.62609 5.79333 6.79732 5.60426 6.92575 5.51864C7.09342 5.40092 7.29676 5.34027 7.53935 5.32957C8.08873 5.31173 8.38126 5.52934 8.5525 5.92533C8.74514 6.37839 8.73087 6.79935 8.73087 7.34874V10.1492C8.73087 10.274 8.72374 10.4381 8.73444 10.5559H11.0283V6.30704C11.014 6.28564 11.0069 6.08586 11.0033 6.05732C10.9427 5.53648 10.8428 5.06201 10.561 4.61965C10.3184 4.23437 9.87602 3.85622 9.35874 3.68141C9.06978 3.58866 8.77725 3.53515 8.43834 3.53158C8.13154 3.52801 7.75696 3.56726 7.49654 3.66358C7.17904 3.7813 7.04704 3.90616 6.85083 4.09167C6.76165 4.18085 6.67603 4.2629 6.59041 4.36636L6.35853 4.65889V3.68855H4.08251V10.5559Z" fill="#005050"/>
<path fill-rule="evenodd" clip-rule="evenodd" d="M0.504369 10.5559H2.8018L2.79823 3.68855H0.500801L0.504369 10.5559Z" fill="#005050"/>
<path fill-rule="evenodd" clip-rule="evenodd" d="M0.390211 1.7336C0.486532 2.522 1.26423 2.85377 2.00983 2.6968C2.72688 2.54697 3.18351 1.85846 2.85888 1.11286C2.76612 0.90952 2.61986 0.74185 2.46289 0.627692C2.27382 0.49213 2.07761 0.427916 1.80291 0.402944C1.32845 0.388674 1.01451 0.488562 0.743387 0.724013C0.493667 0.941626 0.347402 1.25913 0.390211 1.7336Z" fill="#005050"/>
</svg>
