<svg width="14" height="11" viewBox="0 0 14 11" fill="none" xmlns="http://www.w3.org/2000/svg">
<path fill-rule="evenodd" clip-rule="evenodd" d="M0.423828 1.20199V9.79501C0.423828 10.0709 0.699751 10.3074 0.975674 10.3074H13.0769C13.4316 10.3074 13.7075 10.1104 13.7075 9.7556V1.16257C13.7075 1.04432 13.6681 0.926069 13.5893 0.807817C13.5499 0.768399 13.5104 0.768399 13.4316 0.728982L13.1951 0.650146H0.936256C0.818003 0.650146 0.620916 0.768399 0.542081 0.847234C0.463246 0.926069 0.423828 1.08374 0.423828 1.20199ZM1.4881 8.61249C1.56694 8.61249 1.64577 8.53365 1.72461 8.45482L2.19762 8.02123C2.23703 8.02123 2.23703 8.02123 2.23703 8.02123L2.27645 7.98181V7.94239L2.78888 7.5088C2.94655 7.39054 3.0648 7.23287 3.22247 7.11462L4.28675 6.1686C4.405 6.08977 4.87801 5.65617 4.91743 5.57734C4.83859 5.53792 3.77432 4.5919 3.65607 4.51306C3.65607 4.47365 3.65607 4.47365 3.61665 4.47365L3.45898 4.31598C3.38014 4.23714 3.34073 4.19772 3.26189 4.11889L2.43412 3.40937C2.27645 3.29112 2.1582 3.17287 2.03995 3.05462L1.60635 2.69986C1.56694 2.66044 1.4881 2.46335 1.4881 2.81811V8.61249ZM7.16423 7.27229C6.92772 7.27229 6.84889 7.27229 6.61238 7.0752L5.94228 6.48394C5.82403 6.36569 5.82403 6.40511 5.82403 6.32627H5.70578C5.66636 6.44452 5.70578 6.36569 5.62694 6.44452L2.74946 9.00666C2.63121 9.0855 2.59179 9.0855 2.55238 9.20375C5.58753 9.20375 8.58326 9.20375 11.6184 9.20375C11.6184 9.12492 11.6184 9.16433 11.579 9.0855L11.5002 9.04608L9.48986 7.23287H9.45044L8.54384 6.40511C8.465 6.36569 8.465 6.40511 8.465 6.32627C8.34675 6.32627 8.2285 6.44452 8.14966 6.52336L7.51898 7.0752C7.44015 7.15404 7.3219 7.27229 7.16423 7.27229ZM9.21394 5.61676C9.33219 5.65617 9.76578 6.05035 9.88404 6.1686L11.9732 8.06064C12.0914 8.1789 12.5644 8.57307 12.6433 8.61249V2.81811C12.6433 2.73928 12.6433 2.66044 12.6433 2.62102C12.6038 2.62102 12.6433 2.58161 12.525 2.69986L9.64753 5.22258C9.48986 5.34083 9.29277 5.45909 9.21394 5.61676ZM7.12481 6.01093L7.24306 5.85326C7.3219 5.81384 7.3219 5.81384 7.40073 5.73501C7.47957 5.69559 7.47957 5.69559 7.5584 5.61676L8.97743 4.35539C9.01685 4.31598 9.05627 4.31598 9.1351 4.23714L10.4359 3.13345C10.4753 3.05462 10.5147 3.0152 10.5541 2.97578L11.1454 2.46335C11.2636 2.3451 11.6184 2.1086 11.6972 1.95093H2.43412C2.51296 2.06918 2.51296 2.06918 2.71005 2.22685L3.81374 3.17287C3.81374 3.21229 3.81374 3.21229 3.81374 3.21229C3.85315 3.21229 3.85315 3.21229 3.85315 3.21229L5.39044 4.55248L5.78461 4.90724C5.78461 4.90724 5.78461 4.90724 5.78461 4.94666L6.92772 5.9321C7.00656 5.97151 7.00656 6.01093 7.12481 6.01093Z" fill="#005050"/>
</svg>
