<svg width="13" height="13" viewBox="0 0 13 13" fill="none" xmlns="http://www.w3.org/2000/svg">
<path fill-rule="evenodd" clip-rule="evenodd" d="M0.246094 0.760955H1.30842C1.35072 0.831463 1.50584 0.97248 1.57165 1.04299L2.60577 2.16172C2.69508 2.25573 2.77029 2.34974 2.8643 2.44375C3.08523 2.66468 3.41427 3.05483 3.6399 3.28045C3.72921 3.36976 3.80442 3.46848 3.89843 3.56249L4.28857 3.97614C4.34968 4.05135 4.36378 4.06075 4.41549 4.11715C4.59411 4.30988 4.75863 4.4979 4.93255 4.68122C5.01716 4.77053 5.11587 4.86454 5.19578 4.95855C5.27569 5.04786 5.3838 5.14658 5.44961 5.24059C5.49662 5.20298 5.51072 5.16538 5.55772 5.10897C5.59533 5.06667 5.62353 5.02436 5.66114 4.97736L6.70936 3.57189C7.0666 3.06893 7.62127 2.34034 7.96911 1.88909L8.80581 0.760955H12.444V0.784457C12.3453 0.878469 11.0057 2.70699 10.8788 2.86681L9.95275 4.10775C9.74592 4.39919 9.5297 4.64832 9.32757 4.93975C9.05494 5.3346 8.7447 5.68714 8.47677 6.08199C8.33575 6.29351 8.10073 6.58495 7.93151 6.80587C7.8375 6.93279 7.52726 7.31823 7.47085 7.43105C7.52726 7.47335 7.56956 7.52036 7.62127 7.58146L8.58018 8.61559C8.60369 8.63439 8.63659 8.67669 8.65539 8.7002C8.81051 8.89292 9.08314 9.15145 9.27117 9.36768C9.39808 9.51339 9.5626 9.65911 9.68011 9.80953L10.5121 10.7073C10.7001 10.8907 10.8741 11.1069 11.0574 11.2996L11.4757 11.7415C11.518 11.7885 11.5744 11.8355 11.612 11.8872C11.6779 11.9765 11.8377 12.094 11.8753 12.1927H11.0198C10.9399 12.1927 10.8271 12.2115 10.7706 12.1598C10.7424 12.1316 10.7377 12.1128 10.7048 12.0799L10.5027 11.859C10.31 11.6709 10.1408 11.4735 9.96215 11.2714L8.19944 9.37708C8.15243 9.32067 8.12423 9.29717 8.06782 9.24076L7.25933 8.35706C7.20762 8.29595 7.17472 8.27245 7.12301 8.20664C7.08071 8.15493 7.0337 8.10793 6.98199 8.07502C6.93969 8.14553 6.84568 8.26305 6.78927 8.33825C6.42733 8.81771 6.08419 9.29717 5.72224 9.75782L5.44021 10.1386C5.17698 10.477 4.92785 10.8343 4.66462 11.1727C4.5095 11.3748 4.02534 12.0564 3.89843 12.1927H0.264896C0.307201 12.1128 0.368308 12.0517 0.415314 11.9906C0.706748 11.5769 1.18621 10.9847 1.44474 10.6086C1.62336 10.3454 1.83958 10.0822 2.03231 9.82363C2.33314 9.40998 2.62928 9.04804 2.91131 8.64379C3.19804 8.23954 3.51298 7.8635 3.79502 7.46395C3.86552 7.36524 4.91845 5.99268 4.96075 5.88926C4.89965 5.77175 4.69282 5.60253 4.59411 5.47561C4.57061 5.44271 4.5471 5.42391 4.5189 5.39571C4.35908 5.24059 4.23217 5.07607 4.07705 4.92095C3.86082 4.70472 3.57409 4.37098 3.32496 4.11715L3.18864 3.95733C3.08523 3.85392 2.99122 3.74111 2.88781 3.6377C2.8314 3.58129 2.8032 3.53428 2.74679 3.47788C2.48826 3.22405 2.26263 2.93731 2.0088 2.68348L1.1157 1.71987C1.01228 1.61176 0.922974 1.50834 0.819562 1.40023C0.767856 1.34382 0.72085 1.29212 0.669144 1.23571C0.579833 1.1417 0.264896 0.831463 0.246094 0.760955ZM9.19596 1.56475H10.8459C10.8271 1.61646 10.7753 1.67756 10.7424 1.71517L9.93864 2.7963C9.85874 2.89501 9.78823 2.98432 9.71302 3.09243C9.63781 3.20525 9.5626 3.28515 9.48269 3.40267L8.57078 4.62481C8.27465 5.02436 7.92681 5.46151 7.64947 5.85636L6.50254 7.38874C6.46023 7.44515 6.43203 7.49215 6.38972 7.54386C6.34742 7.59557 6.31451 7.64257 6.27221 7.69898C6.11239 7.9058 5.96667 8.09853 5.81155 8.31005L4.32148 10.3078C4.28387 10.3595 4.24627 10.4112 4.20866 10.4582L3.51298 11.3842L1.86779 11.3889L2.43185 10.618C2.8267 10.1151 3.32026 9.44289 3.6916 8.93052C3.84672 8.719 4.00184 8.53568 4.14756 8.32415L4.95135 7.24773C5.27569 6.83878 5.66114 6.29351 5.98077 5.87046L7.13711 4.33338C7.21232 4.22527 7.28753 4.12185 7.36744 4.02314C7.55076 3.79752 7.8469 3.37446 8.04902 3.10653C8.12423 3.00312 8.20884 2.90441 8.27935 2.801L8.97033 1.87499C9.04084 1.77627 9.13955 1.67286 9.19596 1.56475Z" fill="#005050"/>
</svg>
