<svg width="38" height="36" viewBox="0 0 38 36" fill="none" xmlns="http://www.w3.org/2000/svg">
<path d="M28.7054 21.8666C29.1849 21.4138 29.7421 21.1242 30.3796 20.9915C30.74 20.9165 31.1042 20.9016 31.4716 20.9309C31.8472 20.9609 32.2085 21.0433 32.5561 21.1884C32.9176 21.3393 33.2435 21.5442 33.5303 21.8123C34.0941 22.3393 34.4312 22.9853 34.5496 23.7461C34.6536 24.414 34.5966 25.0673 34.3196 25.6866C33.8275 26.7873 32.9763 27.442 31.7938 27.6672C31.5574 27.7122 31.3189 27.7414 31.0771 27.7323C30.5136 27.7109 29.9728 27.5957 29.473 27.3275C28.5997 26.8589 28.0276 26.1432 27.7908 25.1822C27.5213 24.0886 27.7278 23.0817 28.4195 22.1842C28.5047 22.0737 28.6061 21.9758 28.7054 21.8666ZM30.1354 25.7249C30.4957 25.9721 30.8918 26.0775 31.3279 26.0299C31.8054 25.9778 32.1971 25.7651 32.4916 25.3884C32.7756 25.0253 32.8918 24.6073 32.8459 24.1472C32.7971 23.6575 32.5813 23.2563 32.191 22.9564C31.8343 22.6824 31.4268 22.5744 30.9784 22.6129C30.5561 22.6491 30.1919 22.8149 29.9021 23.1198C29.5338 23.5072 29.3733 23.9752 29.4324 24.5099C29.4877 25.0103 29.7188 25.4134 30.1354 25.7249Z" fill="#005050"/>
<path d="M5.61411 21.136C6.02923 20.9515 6.45638 20.8562 6.9012 20.8227C7.41559 20.7839 7.9171 20.8566 8.41628 20.9657C8.51032 20.9863 8.60416 21.0078 8.70177 21.0296C8.70177 21.6516 8.70177 22.2679 8.70177 22.8947C8.67766 22.8877 8.6606 22.8861 8.64701 22.8784C8.33583 22.7012 7.9971 22.6145 7.64489 22.5718C7.38301 22.54 7.12204 22.5406 6.86268 22.5946C6.38771 22.6934 6.00404 22.9335 5.73388 23.3397C5.57605 23.5771 5.49287 23.8415 5.4711 24.1275C5.44274 24.5002 5.51245 24.8496 5.70471 25.17C5.94038 25.5628 6.29285 25.8017 6.73105 25.917C7.2071 26.0422 7.67845 25.9995 8.1424 25.8552C8.29597 25.8075 8.44247 25.737 8.59211 25.6767C8.62182 25.6647 8.65111 25.6517 8.69265 25.6341C8.69862 25.6671 8.70732 25.693 8.70736 25.7189C8.70817 26.2542 8.70833 26.7896 8.70764 27.3249C8.70753 27.4096 8.70573 27.411 8.6217 27.4331C8.28426 27.5217 7.94195 27.583 7.59337 27.6022C7.40733 27.6124 7.22059 27.6199 7.03444 27.616C6.5516 27.6059 6.08872 27.4995 5.64561 27.3077C5.28619 27.1522 4.96062 26.9423 4.6784 26.6718C4.20158 26.2148 3.89122 25.6616 3.75404 25.0137C3.69211 24.7212 3.66111 24.4251 3.6709 24.1264C3.69953 23.2529 3.99069 22.4836 4.5983 21.8464C4.88627 21.5444 5.22728 21.3133 5.61411 21.136Z" fill="#005050"/>
<path d="M25.1116 20.8597C25.399 20.9146 25.6772 20.9672 25.9594 21.0205C25.9594 21.649 25.9594 22.268 25.9594 22.8957C25.8536 22.8472 25.7589 22.7983 25.6603 22.7596C25.1972 22.5778 24.7181 22.5058 24.2239 22.5773C23.4828 22.6847 22.8975 23.2001 22.7613 23.9211C22.6617 24.4482 22.7605 24.9367 23.1007 25.3614C23.3307 25.6486 23.6361 25.8246 23.9897 25.9158C24.5266 26.0543 25.0507 25.989 25.5643 25.8018C25.6685 25.7638 25.768 25.7127 25.87 25.6685C25.8955 25.6575 25.9224 25.65 25.9589 25.6373C25.9589 26.2336 25.9589 26.8199 25.9589 27.4195C25.7812 27.4576 25.6073 27.4994 25.4317 27.5317C25.0245 27.6066 24.613 27.6411 24.1997 27.6155C23.3807 27.5646 22.6391 27.3043 22.0164 26.7567C21.4718 26.2778 21.1414 25.6729 21.0033 24.9618C20.9365 24.6178 20.9153 24.2703 20.9449 23.9222C21.0181 23.0624 21.3487 22.3214 21.986 21.7282C22.4926 21.2566 23.0938 20.9803 23.7738 20.8676C24.04 20.8235 24.3081 20.8009 24.5775 20.8124C24.7527 20.8198 24.9274 20.8418 25.1116 20.8597Z" fill="#005050"/>
<path d="M15.3673 26.1841C15.6255 26.2405 15.8777 26.2702 16.1321 26.291C16.3773 26.311 16.6196 26.3004 16.8615 26.2648C17.0149 26.2422 17.165 26.2033 17.3003 26.1251C17.4804 26.0211 17.5922 25.8738 17.5793 25.6531C17.5728 25.5397 17.5257 25.4462 17.4505 25.3646C17.3271 25.2306 17.1662 25.1606 16.999 25.1019C16.9111 25.0709 16.8235 25.0387 16.7346 25.0109C16.6733 24.9917 16.6089 24.9824 16.5479 24.9625C16.405 24.9158 16.2599 24.8731 16.1217 24.8147C15.8393 24.6955 15.5756 24.5435 15.3506 24.331C15.0599 24.0568 14.8931 23.7203 14.8353 23.326C14.7855 22.9853 14.8163 22.6537 14.9273 22.3282C15.0534 21.9579 15.2866 21.6677 15.5996 21.4416C15.9539 21.1856 16.357 21.0538 16.7877 20.9979C17.2838 20.9336 17.7758 20.977 18.266 21.0551C18.4431 21.0832 18.6187 21.1211 18.7947 21.1555C18.8292 21.1622 18.8628 21.1735 18.9078 21.1857C18.9084 21.6363 18.908 22.083 18.9081 22.5405C18.8628 22.5342 18.8347 22.5334 18.8084 22.5261C18.4613 22.431 18.1077 22.3696 17.7494 22.3447C17.4875 22.3265 17.2251 22.3418 16.9712 22.4212C16.8644 22.4546 16.7675 22.5054 16.6797 22.5781C16.5203 22.7102 16.5316 22.9707 16.6203 23.1C16.7147 23.2376 16.8515 23.3152 16.9999 23.3713C17.2415 23.4628 17.4871 23.5438 17.7312 23.6287C18.0734 23.7478 18.3919 23.91 18.6657 24.1504C18.9731 24.4203 19.1966 24.7453 19.2825 25.1507C19.4317 25.8548 19.1993 26.7136 18.4804 27.2039C18.0915 27.4692 17.6587 27.6067 17.2003 27.6819C16.9085 27.7298 16.6144 27.7482 16.3205 27.7294C15.9699 27.707 15.6204 27.6678 15.2707 27.6326C15.1459 27.6201 15.0221 27.5984 14.8979 27.5802C14.8735 27.5767 14.8496 27.5704 14.8192 27.564C14.8192 27.0591 14.8192 26.5584 14.8192 26.0516C15.004 26.0962 15.1812 26.139 15.3673 26.1841Z" fill="#005050"/>
<path d="M27.3185 16.2568C27.3185 13.7276 27.3192 11.2093 27.3175 8.69093C27.3173 8.47616 27.3812 8.28982 27.518 8.12583C27.6079 8.01807 27.7227 7.94808 27.8499 7.89402C28.2904 7.70668 28.8062 7.96803 28.944 8.37732C28.9788 8.48071 28.9974 8.59461 28.9977 8.70377C29.0015 9.83899 29.0001 10.9742 29.0001 12.1095C29.0001 13.8554 29.0002 15.6014 29 17.3474C28.9999 17.6435 28.8918 17.8896 28.6423 18.0564C28.363 18.2431 28.0621 18.2628 27.7635 18.1103C27.4698 17.9603 27.3223 17.708 27.3193 17.3776C27.316 17.0076 27.3185 16.6376 27.3185 16.2568Z" fill="#005050"/>
<path d="M9.31988 12.1812C9.31989 11.0136 9.31999 9.85692 9.31981 8.7002C9.31978 8.5314 9.35839 8.37396 9.44786 8.22919C9.56543 8.03891 9.73988 7.93563 9.9482 7.86317C10.3011 7.74042 10.8237 7.97335 10.954 8.38802C10.9795 8.46913 10.9943 8.55572 10.9994 8.64066C11.007 8.76594 11.0015 8.892 11.0015 9.01774C11.0015 11.7982 11.001 14.5786 11.0022 17.3591C11.0023 17.6066 10.9224 17.8191 10.7393 17.9844C10.484 18.2148 10.1821 18.2643 9.86524 18.1518C9.56556 18.0455 9.38305 17.824 9.33424 17.5036C9.32457 17.4401 9.32049 17.3752 9.32046 17.311C9.31974 15.6046 9.31989 13.8983 9.31988 12.1812Z" fill="#005050"/>
<path d="M11.1932 21.0191C11.6883 21.0191 12.1727 21.0191 12.6539 21.0191C12.6804 21.106 12.6879 27.4171 12.6648 27.5529C12.5898 27.5785 11.1527 27.5862 11.0138 27.5617C10.9905 27.4842 10.9821 21.1892 11.007 21.0257C11.0637 21.0236 11.1231 21.0214 11.1932 21.0191Z" fill="#005050"/>
<path d="M31.8112 13.0653C31.8112 12.6305 31.8105 12.2065 31.8114 11.7824C31.8128 11.1602 32.4075 10.7558 32.9843 10.9911C33.2851 11.1138 33.4545 11.3478 33.4915 11.6715C33.5037 11.7781 33.506 11.8862 33.5061 11.9936C33.5071 13.2118 33.5072 14.43 33.5062 15.6482C33.5061 15.8403 33.4779 16.026 33.3727 16.1947C33.2049 16.464 32.8873 16.6371 32.4977 16.5734C32.1651 16.5191 31.897 16.2527 31.8315 15.9201C31.8184 15.8537 31.8122 15.7849 31.8121 15.7172C31.8108 14.8369 31.8112 13.9565 31.8112 13.0653Z" fill="#005050"/>
<path d="M6.29154 11.2605C6.38874 11.3953 6.44198 11.5378 6.45209 11.6964C6.4534 11.717 6.45554 11.7476 6.46848 11.7557C6.5244 11.7908 6.50807 11.8442 6.5081 11.8916C6.5089 13.1746 6.5092 14.4577 6.50842 15.7407C6.50818 16.1211 6.27396 16.4457 5.91435 16.5499C5.35361 16.7123 4.85334 16.3182 4.82685 15.817C4.82155 15.7167 4.81395 15.6164 4.81387 15.516C4.81297 14.3049 4.81287 13.0937 4.81383 11.8825C4.81395 11.7316 4.8236 11.5811 4.87759 11.4372C5.091 10.8684 5.7286 10.8114 6.10004 11.0778C6.16906 11.1272 6.2251 11.1948 6.29154 11.2605Z" fill="#005050"/>
<path d="M15.508 12.4831C15.508 13.5574 15.5073 14.621 15.5087 15.6846C15.5089 15.8917 15.4648 16.0825 15.3401 16.2519C15.0451 16.6527 14.4302 16.7017 14.0755 16.3527C13.9056 16.1854 13.819 15.9851 13.8191 15.7457C13.8199 14.4198 13.8191 13.0939 13.8197 11.768C13.8199 11.3302 14.1382 10.9725 14.5616 10.9308C15.0222 10.8855 15.406 11.1652 15.4907 11.6114C15.504 11.6813 15.5066 11.754 15.5073 11.8255C15.5093 12.0411 15.508 12.2567 15.508 12.4831Z" fill="#005050"/>
<path d="M24.4904 15.8967C24.4151 16.2364 24.2183 16.4641 23.8937 16.5531C23.3327 16.707 22.8447 16.3146 22.8187 15.8023C22.8158 15.7449 22.8123 15.6875 22.8123 15.6301C22.8119 14.3759 22.8116 13.1217 22.8129 11.8675C22.813 11.7782 22.8171 11.6872 22.8341 11.5999C22.9198 11.1596 23.3027 10.8851 23.7601 10.9311C24.1789 10.9731 24.4999 11.33 24.5002 11.7586C24.5011 13.0883 24.5006 14.418 24.5002 15.7477C24.5001 15.7942 24.4949 15.8408 24.4904 15.8967Z" fill="#005050"/>
<path d="M19.968 15.9918C19.8619 16.3092 19.6497 16.505 19.3324 16.5684C18.7754 16.6796 18.3438 16.267 18.3261 15.8223C18.3213 15.7041 18.3133 15.5859 18.3129 15.4677C18.3113 15.0114 18.3088 14.555 18.3146 14.0987C18.3161 13.9783 18.3316 13.8538 18.3658 13.7387C18.4618 13.4153 18.79 13.1741 19.1613 13.1743C19.5542 13.1744 19.9014 13.4455 19.9799 13.8227C19.9973 13.9064 20.0061 13.9934 20.0065 14.0789C20.0089 14.6107 20.0097 15.1426 20.006 15.6743C20.0053 15.7774 19.9826 15.8803 19.968 15.9918Z" fill="#005050"/>
<path d="M0.282352 13.874C0.346286 13.5553 0.518916 13.3334 0.817675 13.2274C1.35045 13.0382 1.94546 13.3694 1.95649 14.0111C1.96649 14.5928 1.96148 15.1749 1.9576 15.7567C1.95477 16.182 1.61703 16.5486 1.21181 16.5829C0.723725 16.6243 0.359551 16.3132 0.284475 15.8979C0.279398 15.8699 0.27751 15.8408 0.277497 15.8123C0.277208 15.1837 0.277371 14.5551 0.27763 13.9265C0.277636 13.9122 0.27976 13.8979 0.282352 13.874Z" fill="#005050"/>
<path d="M37.9997 14.1012C37.9997 14.6506 38.0003 15.1893 37.9993 15.7281C37.9988 16.0114 37.8936 16.2493 37.6638 16.4176C37.3923 16.6164 37.0927 16.6464 36.7887 16.5039C36.4858 16.3619 36.3203 16.1094 36.3143 15.7776C36.3034 15.178 36.3058 14.578 36.313 13.9782C36.3183 13.5346 36.6921 13.1871 37.1354 13.1747C37.5839 13.1621 38.0001 13.5127 37.9996 14.0259C37.9996 14.0474 37.9997 14.069 37.9997 14.1012Z" fill="#005050"/>
</svg>
