<svg width="29" height="30" viewBox="0 0 29 30" fill="none" xmlns="http://www.w3.org/2000/svg">
<path d="M9.63188 28.3558C8.64163 28.0156 7.70851 27.5779 6.82639 27.032C6.32842 26.7239 5.8519 26.3848 5.39798 26.0158C4.88438 25.5982 4.40166 25.1463 3.94729 24.6641C3.42249 24.1072 2.93793 23.5178 2.50308 22.8882C2.1219 22.3363 1.78288 21.7596 1.48649 21.1573C1.26584 20.7089 1.06945 20.2506 0.898321 19.7817C0.706729 19.2567 0.540576 18.7234 0.424802 18.176C0.344556 17.7965 0.257096 17.4179 0.196946 17.0351C0.125512 16.5805 0.0706141 16.1234 0.0364981 15.6633C0.0099365 15.305 -0.00273732 14.9477 0.000494686 14.5893C0.00148807 14.4791 0.0169731 14.3691 0.0246738 14.2589C0.0386437 14.059 0.0434322 13.8581 0.0669136 13.6594C0.119429 13.2149 0.174693 12.7706 0.240762 12.328C0.310051 11.8638 0.417611 11.4074 0.537114 10.9532C0.663189 10.4741 0.813716 10.0033 0.991056 9.54145C1.22686 8.92741 1.5043 8.3324 1.8264 7.75797C2.20091 7.09005 2.62454 6.45478 3.10562 5.86038C3.40327 5.49263 3.72062 5.13947 4.04614 4.79589C4.8452 3.95249 5.74098 3.22417 6.72418 2.60524C7.32043 2.22989 7.9436 1.90512 8.59058 1.62423C9.25366 1.33635 9.93505 1.10324 10.6326 0.918134C10.9619 0.830758 11.2962 0.759908 11.6311 0.69703C12.0164 0.624706 12.4039 0.562972 12.7921 0.508254C13.4865 0.41037 14.1855 0.371292 14.8861 0.398905C15.2221 0.412151 15.5578 0.45058 15.8921 0.490008C16.2647 0.533942 16.6365 0.586875 17.007 0.645733C17.2383 0.682472 17.469 0.728444 17.6959 0.786118C18.1212 0.894207 18.5465 1.00423 18.9663 1.13167C19.2964 1.23191 19.6237 1.3464 19.9424 1.47838C20.3323 1.63982 20.7171 1.81551 21.0947 2.00407C21.7141 2.31342 22.2997 2.68036 22.8616 3.08541C23.591 3.61124 24.2599 4.20607 24.88 4.8558C25.4881 5.49301 26.0409 6.17515 26.5268 6.91107C26.8826 7.44992 27.2032 8.00861 27.4794 8.59175C27.8273 9.32617 28.1094 10.0857 28.3235 10.8703C28.5215 11.596 28.6738 12.3307 28.7565 13.0786C28.7997 13.4683 28.8361 13.8592 28.859 14.2506C28.8777 14.5697 28.8885 14.8911 28.8736 15.2101C28.8413 15.9006 28.767 16.5874 28.6491 17.2692C28.4746 18.2779 28.2031 19.2589 27.8181 20.2076C27.3809 21.2851 26.81 22.2872 26.1204 23.2231C25.7123 23.777 25.2728 24.3039 24.8015 24.8048C24.4056 25.2255 23.9657 25.597 23.5186 25.9604C22.9379 26.4323 22.325 26.8588 21.6793 27.2369C21.0372 27.613 20.369 27.9358 19.6738 28.2026C19.023 28.4523 18.3589 28.659 17.6775 28.8032C17.223 28.8994 16.764 28.9794 16.3037 29.0418C15.8646 29.1012 15.422 29.1443 14.9795 29.1652C14.5835 29.184 14.1846 29.1794 13.7889 29.1549C13.3253 29.1261 12.8615 29.0803 12.402 29.0131C11.9383 28.9453 11.4759 28.8589 11.0202 28.75C10.556 28.639 10.1007 28.4907 9.63188 28.3558ZM23.0168 24.2204C23.1515 24.096 23.2885 23.9742 23.4205 23.847C23.9318 23.3541 24.3921 22.817 24.8084 22.2417C25.1794 21.729 25.5072 21.1899 25.7924 20.6255C26.0387 20.1381 26.2503 19.6352 26.4365 19.1214C26.6329 18.5794 26.8003 18.029 26.9239 17.4662C27.0393 16.9411 27.1331 16.412 27.1639 15.8741C27.1836 15.5293 27.1991 15.1841 27.2091 14.8389C27.2134 14.6901 27.2004 14.5406 27.1929 14.3916C27.1808 14.1531 27.1787 13.9132 27.1509 13.6764C27.1027 13.2658 27.0503 12.855 26.9768 12.4483C26.904 12.046 26.8179 11.6447 26.7105 11.2503C26.5806 10.7734 26.427 10.3021 26.2214 9.85108C26.0428 9.45914 25.8657 9.06536 25.6627 8.68593C25.492 8.36687 25.2896 8.06419 25.0926 7.75985C24.8279 7.35096 24.5276 6.96761 24.21 6.59923C23.803 6.12707 23.3696 5.67947 22.9045 5.26315C22.417 4.82665 21.8987 4.43076 21.3492 4.07568C20.8247 3.73681 20.2763 3.4419 19.7076 3.18457C19.1075 2.91309 18.4887 2.69408 17.8533 2.52152C17.2223 2.35015 16.5842 2.2126 15.9323 2.15277C15.5121 2.1142 15.0908 2.0749 14.6693 2.06711C14.2778 2.05987 13.8845 2.08242 13.4936 2.11304C13.0815 2.14533 12.6695 2.18978 12.2609 2.25197C11.5505 2.36011 10.8592 2.54875 10.1812 2.78683C9.38076 3.06787 8.6192 3.43138 7.891 3.86468C7.22581 4.26049 6.59689 4.70743 6.01108 5.21477C5.62967 5.54509 5.26987 5.89732 4.93201 6.27117C4.45596 6.79793 4.03428 7.36608 3.66134 7.97087C3.21671 8.69192 2.82382 9.43917 2.51266 10.2275C2.19671 11.0279 1.96731 11.853 1.82741 12.7028C1.71973 13.3569 1.67117 14.0159 1.66846 14.6777C1.66724 14.9757 1.69318 15.2739 1.70758 15.572C1.73089 16.0541 1.79263 16.532 1.87145 17.0078C1.99877 17.7762 2.19583 18.5269 2.46964 19.2559C2.83013 20.2156 3.31521 21.1108 3.89106 21.9581C4.43308 22.7556 5.05561 23.4826 5.76512 24.1364C6.30351 24.6325 6.8813 25.0759 7.49827 25.4688C7.93055 25.7442 8.37369 26.001 8.84022 26.214C9.20486 26.3804 9.57183 26.5426 9.94301 26.6937C10.4296 26.8919 10.9336 27.0384 11.4434 27.1638C11.6586 27.2167 11.8753 27.2665 12.0939 27.3022C12.4261 27.3564 12.7596 27.4051 13.0942 27.4411C13.3907 27.473 13.6892 27.4941 13.9873 27.5027C14.5423 27.5186 15.0969 27.5006 15.6489 27.4362C16.0215 27.3927 16.396 27.3578 16.7649 27.2924C17.2685 27.203 17.7669 27.0873 18.2574 26.9375C18.74 26.7902 19.2126 26.6177 19.6702 26.4072C20.4552 26.0461 21.1982 25.6108 21.9023 25.1098C22.2851 24.8375 22.6538 24.547 23.0168 24.2204Z" fill="#005050"/>
<path d="M20.8335 17.4316C20.4234 17.4325 20.0134 17.4339 19.6033 17.4341C18.7233 17.4345 17.8433 17.4342 16.9633 17.4342C16.9045 17.4342 16.8457 17.4342 16.7754 17.4342C16.7701 17.3647 16.7626 17.3109 16.7625 17.2571C16.7616 16.736 16.7619 16.2148 16.7619 15.6936C16.7619 15.6431 16.7619 15.5926 16.7619 15.515C16.7006 15.546 16.6592 15.5628 16.6221 15.5864C15.9911 15.9862 15.3598 16.3855 14.7304 16.7879C14.2341 17.1052 13.7397 17.4255 13.2464 17.7474C13.1721 17.7959 13.1166 17.7991 13.0394 17.7469C12.2368 17.2042 11.4312 16.6659 10.6267 16.1259C10.2865 15.8976 9.94736 15.6679 9.60706 15.4398C9.55466 15.4047 9.49858 15.3751 9.43303 15.3363C9.40542 15.4005 9.37979 15.4535 9.3595 15.5084C9.20652 15.9227 8.98102 16.2921 8.67175 16.6077C8.35785 16.9279 7.98171 17.1494 7.55592 17.2867C7.24516 17.3868 6.92633 17.4387 6.59924 17.4416C6.32616 17.444 6.05306 17.4577 5.7801 17.4549C5.3448 17.4504 4.90964 17.4346 4.47436 17.427C4.30365 17.4241 4.13279 17.4319 3.96199 17.4323C3.84358 17.4326 3.83085 17.4186 3.82631 17.3003C3.825 17.2662 3.82574 17.232 3.82574 17.1978C3.82572 15.3481 3.82565 13.4984 3.82602 11.6487C3.82603 11.577 3.83027 11.5054 3.83298 11.4196C3.90257 11.4172 3.96032 11.4137 4.01809 11.4134C4.47508 11.4111 4.9321 11.411 5.38909 11.4072C5.76454 11.4041 6.14021 11.3859 6.51532 11.3946C6.84754 11.4022 7.17838 11.4364 7.5006 11.5334C7.98734 11.6799 8.40078 11.9385 8.7403 12.3156C9.0033 12.6077 9.19997 12.9403 9.33911 13.3075C9.35099 13.3389 9.36615 13.369 9.38349 13.408C9.41437 13.3964 9.44314 13.3907 9.46618 13.376C10.0203 13.0231 10.5744 12.6699 11.1274 12.3152C11.7452 11.919 12.3619 11.5211 12.9791 11.1241C12.9971 11.1126 13.018 11.105 13.034 11.0913C13.0896 11.0438 13.1408 11.0553 13.1964 11.0936C13.2841 11.1542 13.3756 11.2094 13.464 11.2691C13.7503 11.4625 14.0364 11.6563 14.3215 11.8515C14.3701 11.8847 14.4136 11.9254 14.4692 11.9706C14.4325 12.0019 14.407 12.0294 14.3764 12.049C13.7077 12.4768 13.0381 12.9034 12.3692 13.3309C12.1426 13.4757 11.917 13.6221 11.6916 13.7687C11.664 13.7866 11.64 13.8102 11.6001 13.8429C11.6933 13.9072 11.784 13.9564 11.8579 14.0241C11.9866 14.1419 12.0905 14.1099 12.2261 14.022C12.9386 13.5602 13.6584 13.1096 14.3754 12.6549C14.5448 12.5475 14.7141 12.4401 14.8819 12.3302C14.9292 12.2993 14.9701 12.2861 15.022 12.3209C15.4079 12.5802 15.7949 12.838 16.1812 13.0969C16.1945 13.1058 16.2035 13.1211 16.2265 13.1468C15.9899 13.3148 15.7457 13.4592 15.5101 13.616C15.2755 13.772 15.0398 13.9265 14.8049 14.082C14.5664 14.2398 14.3284 14.3986 14.0897 14.5561C13.8553 14.7109 13.6203 14.8647 13.3664 15.0315C13.4295 15.0781 13.4773 15.1174 13.529 15.1507C13.5935 15.1923 13.6639 15.2252 13.7268 15.2689C13.7927 15.3148 13.849 15.3074 13.914 15.2663C14.2493 15.054 14.5875 14.8465 14.9223 14.6335C15.491 14.2716 16.0565 13.9046 16.627 13.5455C16.7242 13.4842 16.766 13.4197 16.7647 13.3015C16.7584 12.7334 16.7617 12.1652 16.7623 11.5971C16.7624 11.5426 16.7678 11.4881 16.7713 11.4225C16.8203 11.4174 16.8612 11.4095 16.9021 11.4094C17.5386 11.4086 18.1751 11.4084 18.8116 11.4092C18.9537 11.4093 18.9582 11.4145 18.9583 11.5656C18.9588 12.8001 18.9586 14.0347 18.9586 15.2692C18.9586 15.3324 18.9586 15.3956 18.9586 15.4743C19.0753 15.4808 19.1761 15.491 19.277 15.4914C19.7427 15.4931 20.2083 15.4919 20.6739 15.4926C20.7285 15.4927 20.7831 15.4978 20.8491 15.5012C20.8543 15.5497 20.8625 15.5905 20.8626 15.6313C20.8628 16.2165 20.8619 16.8017 20.8555 17.402C20.8441 17.4218 20.8387 17.4265 20.8335 17.4316ZM7.49887 14.2812C7.49093 14.2307 7.48463 14.1798 7.47478 14.1296C7.39588 13.7278 7.16892 13.4638 6.76474 13.3602C6.53401 13.3011 6.29982 13.3036 6.06504 13.3072C5.92142 13.3094 5.91285 13.3171 5.91268 13.4609C5.91195 14.0884 5.9121 14.716 5.91293 15.3436C5.91299 15.3885 5.92109 15.4334 5.92664 15.4906C6.18224 15.4877 6.42445 15.5068 6.66647 15.4724C6.96942 15.4293 7.19846 15.2799 7.34553 15.0081C7.46467 14.7879 7.50651 14.5516 7.49887 14.2812Z" fill="#005050"/>
<path d="M21.3979 17.4107C21.3961 17.3638 21.3929 17.3169 21.3929 17.2701C21.3926 15.3826 21.3926 13.4951 21.393 11.6076C21.3931 11.549 21.3988 11.4904 21.4016 11.4359C21.5109 11.403 23.4259 11.3964 23.586 11.4283C23.5897 11.4858 23.5972 11.5479 23.5973 11.6099C23.5979 12.8312 23.5978 14.0525 23.5978 15.2739C23.5978 15.3373 23.5978 15.4007 23.5978 15.4776C23.6643 15.4832 23.7177 15.4915 23.7711 15.4916C24.2878 15.4926 24.8045 15.4919 25.3212 15.4928C25.3753 15.4929 25.4293 15.5003 25.479 15.504C25.5082 15.6176 25.5125 17.2722 25.4843 17.4211C25.4393 17.4252 25.3901 17.4335 25.3408 17.4335C24.0426 17.434 22.7445 17.4335 21.4304 17.4289C21.4093 17.4195 21.4037 17.415 21.3979 17.4107Z" fill="#005050"/>
</svg>
