<svg width="28" height="397" viewBox="0 0 28 397" fill="none" xmlns="http://www.w3.org/2000/svg">
<path d="M7.712 1.312C7.28533 1.33333 6.816 1.35467 6.304 1.376C5.81333 1.376 5.33333 1.38667 4.864 1.408C4.39467 1.42933 3.95733 1.46133 3.552 1.504C3.168 1.54667 2.86933 1.61067 2.656 1.696C2.82667 3.70133 2.93333 5.728 2.976 7.776C3.01867 9.824 3.04 11.8933 3.04 13.984C3.04 16.1813 3.01867 18.3787 2.976 20.576C2.93333 22.7733 2.82667 25.0027 2.656 27.264C2.89067 27.3707 3.21067 27.456 3.616 27.52C4.02133 27.584 4.448 27.6267 4.896 27.648C5.36533 27.6907 5.84533 27.712 6.336 27.712C6.82667 27.7333 7.28533 27.7547 7.712 27.776C7.79733 27.776 7.86133 27.8293 7.904 27.936C7.968 28.0427 8 28.16 8 28.288C8 28.416 7.968 28.5333 7.904 28.64C7.86133 28.7467 7.79733 28.8 7.712 28.8H0.48C0.672 26.304 0.853333 23.8293 1.024 21.376C1.216 18.9227 1.312 16.4693 1.312 14.016C1.312 11.6907 1.22667 9.39733 1.056 7.136C0.885333 4.85333 0.693333 2.57067 0.48 0.287998H7.712C7.84 0.287998 7.936 0.341331 8 0.447998C8.064 0.554666 8.096 0.672 8.096 0.799999C8.096 0.927999 8.064 1.04533 8 1.152C7.936 1.25867 7.84 1.312 7.712 1.312ZM8.5275 24C8.37817 24 8.26083 23.9573 8.1755 23.872C8.09017 23.7867 8.02617 23.68 7.9835 23.552C7.96217 23.424 7.96217 23.296 7.9835 23.168C8.02617 23.04 8.09017 22.9333 8.1755 22.848C9.66883 21.632 10.9168 20.5973 11.9195 19.744C12.9435 18.8907 13.7542 18.1227 14.3515 17.44C14.9702 16.7573 15.4075 16.1173 15.6635 15.52C15.9195 14.9227 16.0475 14.272 16.0475 13.568C16.0475 13.12 16.0155 12.6827 15.9515 12.256C15.8875 11.8293 15.7595 11.456 15.5675 11.136C15.3755 10.816 15.1088 10.56 14.7675 10.368C14.4475 10.1547 14.0208 10.048 13.4875 10.048C12.9755 10.048 12.5382 10.1227 12.1755 10.272C11.8128 10.4 11.5035 10.5707 11.2475 10.784C11.0128 10.976 10.8422 11.1893 10.7355 11.424C10.6288 11.6373 10.5755 11.8187 10.5755 11.968C10.5755 12.032 10.5755 12.1173 10.5755 12.224C10.5968 12.3307 10.6288 12.4373 10.6715 12.544C10.7355 12.6293 10.8315 12.7147 10.9595 12.8C11.0875 12.864 11.2688 12.896 11.5035 12.896C11.8662 12.896 12.1008 13.0027 12.2075 13.216C12.3355 13.4293 12.3995 13.664 12.3995 13.92C12.3995 14.176 12.2715 14.4107 12.0155 14.624C11.7808 14.8373 11.4502 14.944 11.0235 14.944C10.6182 14.944 10.2875 14.8693 10.0315 14.72C9.7755 14.5707 9.57283 14.3893 9.4235 14.176C9.27417 13.9413 9.1675 13.696 9.1035 13.44C9.06083 13.1627 9.0395 12.9067 9.0395 12.672C9.0395 12.1813 9.14617 11.712 9.3595 11.264C9.59417 10.816 9.92483 10.432 10.3515 10.112C10.7782 9.77067 11.3008 9.504 11.9195 9.312C12.5595 9.12 13.2955 9.024 14.1275 9.024C14.9595 9.024 15.6955 9.14133 16.3355 9.376C16.9968 9.58933 17.5408 9.888 17.9675 10.272C18.3942 10.656 18.7142 11.1147 18.9275 11.648C19.1622 12.16 19.2795 12.704 19.2795 13.28C19.2795 14.112 19.0448 14.912 18.5755 15.68C18.1062 16.448 17.5088 17.1733 16.7835 17.856C16.0582 18.5173 15.2582 19.136 14.3835 19.712C13.5302 20.2667 12.7088 20.7787 11.9195 21.248C11.8128 21.2907 11.7595 21.3653 11.7595 21.472C11.7595 21.5573 11.8128 21.6 11.9195 21.6H16.5275C16.8048 21.6 17.0395 21.5787 17.2315 21.536C17.4448 21.472 17.6262 21.376 17.7755 21.248C17.9462 21.0987 18.1062 20.896 18.2555 20.64C18.4262 20.3627 18.5968 20 18.7675 19.552C18.8102 19.4667 18.8848 19.4027 18.9915 19.36C19.0982 19.296 19.2048 19.2747 19.3115 19.296C19.4182 19.296 19.5142 19.328 19.5995 19.392C19.6848 19.456 19.7275 19.5413 19.7275 19.648C19.5568 20.3733 19.3862 21.0773 19.2155 21.76C19.0448 22.4213 18.9702 23.168 18.9915 24H8.5275ZM20.6515 1.312C20.5235 1.312 20.4275 1.25867 20.3635 1.152C20.2995 1.04533 20.2675 0.927999 20.2675 0.799999C20.2675 0.672 20.2995 0.554666 20.3635 0.447998C20.4275 0.341331 20.5235 0.287998 20.6515 0.287998H27.8835C27.6702 2.57067 27.4782 4.85333 27.3075 7.136C27.1368 9.39733 27.0515 11.6907 27.0515 14.016C27.0515 16.4693 27.1368 18.9227 27.3075 21.376C27.4995 23.8293 27.6915 26.304 27.8835 28.8H20.6515C20.5662 28.8 20.4915 28.7467 20.4275 28.64C20.3848 28.5333 20.3635 28.416 20.3635 28.288C20.3635 28.16 20.3848 28.0427 20.4275 27.936C20.4915 27.8293 20.5662 27.776 20.6515 27.776C21.0782 27.7547 21.5368 27.7333 22.0275 27.712C22.5182 27.712 22.9875 27.6907 23.4355 27.648C23.9048 27.6267 24.3422 27.584 24.7475 27.52C25.1528 27.456 25.4728 27.3707 25.7075 27.264C25.5368 25.0027 25.4302 22.7733 25.3875 20.576C25.3448 18.3787 25.3235 16.1813 25.3235 13.984C25.3235 11.8933 25.3448 9.824 25.3875 7.776C25.4302 5.728 25.5368 3.70133 25.7075 1.696C25.4942 1.61067 25.1848 1.54667 24.7795 1.504C24.3955 1.46133 23.9688 1.42933 23.4995 1.408C23.0302 1.38667 22.5395 1.376 22.0275 1.376C21.5368 1.35467 21.0782 1.33333 20.6515 1.312ZM9.024 82.88C9.024 83.408 9.048 83.824 9.096 84.128C9.144 84.416 9.248 84.64 9.408 84.8C9.584 84.96 9.824 85.08 10.128 85.16C10.432 85.224 10.84 85.28 11.352 85.328C11.448 85.344 11.52 85.4 11.568 85.496C11.632 85.576 11.664 85.664 11.664 85.76C11.664 85.856 11.632 85.944 11.568 86.024C11.52 86.104 11.44 86.144 11.328 86.144C10.688 86.144 10.072 86.112 9.48 86.048C8.904 85.984 8.328 85.952 7.752 85.952C7.144 85.952 6.512 85.984 5.856 86.048C5.216 86.112 4.632 86.144 4.104 86.144C4.008 86.144 3.936 86.104 3.888 86.024C3.84 85.944 3.816 85.856 3.816 85.76C3.816 85.664 3.84 85.576 3.888 85.496C3.936 85.4 4.008 85.344 4.104 85.328C4.6 85.28 4.992 85.224 5.28 85.16C5.584 85.08 5.816 84.96 5.976 84.8C6.152 84.64 6.264 84.416 6.312 84.128C6.376 83.824 6.408 83.408 6.408 82.88V72.224C6.408 71.632 6.256 71.264 5.952 71.12C5.664 70.96 5.168 70.88 4.464 70.88C3.872 70.88 3.384 70.928 3 71.024C2.616 71.104 2.296 71.264 2.04 71.504C1.8 71.728 1.6 72.04 1.44 72.44C1.296 72.84 1.16 73.36 1.032 74C1.016 74.096 0.96 74.16 0.864 74.192C0.784 74.224 0.696 74.24 0.6 74.24C0.52 74.224 0.44 74.192 0.36 74.144C0.296 74.096 0.264 74.04 0.264 73.976C0.328 73.384 0.36 72.784 0.36 72.176C0.376 71.552 0.344 70.936 0.264 70.328C0.264 70.152 0.376 70.032 0.6 69.968C0.824 69.904 1.072 69.872 1.344 69.872H14.184C14.488 69.872 14.736 69.904 14.928 69.968C15.136 70.016 15.24 70.128 15.24 70.304C15.208 70.496 15.176 70.736 15.144 71.024C15.128 71.296 15.12 71.6 15.12 71.936C15.12 72.272 15.128 72.616 15.144 72.968C15.176 73.32 15.208 73.656 15.24 73.976C15.24 74.04 15.2 74.104 15.12 74.168C15.04 74.216 14.952 74.248 14.856 74.264C14.76 74.264 14.664 74.248 14.568 74.216C14.488 74.184 14.44 74.12 14.424 74.024C14.328 73.384 14.2 72.864 14.04 72.464C13.88 72.048 13.664 71.728 13.392 71.504C13.136 71.264 12.816 71.104 12.432 71.024C12.048 70.928 11.592 70.88 11.064 70.88C10.344 70.88 9.824 70.96 9.504 71.12C9.184 71.264 9.024 71.632 9.024 72.224V82.88ZM12.504 131.872C12.632 131.872 12.752 131.888 12.864 131.92C12.992 131.952 13.04 132.08 13.008 132.304C12.976 132.48 12.96 132.68 12.96 132.904C12.96 133.128 12.96 133.352 12.96 133.576C12.96 134.296 12.984 134.968 13.032 135.592C13.032 135.656 12.992 135.712 12.912 135.76C12.848 135.792 12.768 135.816 12.672 135.832C12.576 135.832 12.48 135.816 12.384 135.784C12.304 135.752 12.256 135.688 12.24 135.592C12.128 134.968 12.016 134.48 11.904 134.128C11.792 133.776 11.632 133.512 11.424 133.336C11.232 133.144 10.96 133.024 10.608 132.976C10.272 132.928 9.824 132.896 9.264 132.88H7.824C7.408 132.88 7.072 132.888 6.816 132.904C6.576 132.92 6.384 132.984 6.24 133.096C6.096 133.192 6 133.352 5.952 133.576C5.904 133.8 5.88 134.112 5.88 134.512V138.712C5.88 138.936 5.92 139.08 6 139.144C6.08 139.192 6.16 139.216 6.24 139.216C6.976 139.216 7.552 139.184 7.968 139.12C8.4 139.056 8.72 138.944 8.928 138.784C9.152 138.608 9.296 138.384 9.36 138.112C9.44 137.84 9.504 137.488 9.552 137.056C9.568 136.96 9.616 136.888 9.696 136.84C9.776 136.792 9.864 136.768 9.96 136.768C10.056 136.768 10.144 136.792 10.224 136.84C10.304 136.888 10.344 136.96 10.344 137.056C10.344 137.312 10.336 137.544 10.32 137.752C10.304 137.944 10.288 138.144 10.272 138.352C10.256 138.544 10.24 138.752 10.224 138.976C10.208 139.184 10.2 139.432 10.2 139.72C10.2 140.2 10.224 140.64 10.272 141.04C10.32 141.424 10.344 141.896 10.344 142.456C10.344 142.536 10.304 142.6 10.224 142.648C10.144 142.68 10.056 142.696 9.96 142.696C9.864 142.68 9.776 142.656 9.696 142.624C9.616 142.576 9.568 142.504 9.552 142.408C9.504 141.944 9.44 141.568 9.36 141.28C9.296 140.992 9.152 140.776 8.928 140.632C8.72 140.472 8.4 140.368 7.968 140.32C7.552 140.256 6.976 140.224 6.24 140.224C6.16 140.224 6.08 140.256 6 140.32C5.92 140.368 5.88 140.48 5.88 140.656V143.8C5.88 144.312 5.912 144.752 5.976 145.12C6.056 145.472 6.168 145.768 6.312 146.008C6.456 146.232 6.632 146.416 6.84 146.56C7.048 146.688 7.296 146.784 7.584 146.848C7.808 146.896 8.056 146.936 8.328 146.968C8.616 146.984 8.912 146.992 9.216 146.992C9.6 146.992 9.96 146.976 10.296 146.944C10.632 146.912 10.888 146.864 11.064 146.8C11.384 146.688 11.656 146.568 11.88 146.44C12.12 146.312 12.32 146.144 12.48 145.936C12.64 145.728 12.768 145.472 12.864 145.168C12.976 144.848 13.064 144.448 13.128 143.968C13.144 143.872 13.2 143.808 13.296 143.776C13.392 143.744 13.496 143.728 13.608 143.728C13.72 143.728 13.816 143.752 13.896 143.8C13.992 143.848 14.032 143.912 14.016 143.992C13.936 144.664 13.864 145.296 13.8 145.888C13.736 146.464 13.712 147.056 13.728 147.664C13.728 147.712 13.696 147.784 13.632 147.88C13.568 147.96 13.416 148 13.176 148H4.464C3.856 148 3.256 148.016 2.664 148.048C2.088 148.08 1.568 148.112 1.104 148.144C0.976 148.144 0.88 148.104 0.816 148.024C0.752 147.96 0.712 147.88 0.696 147.784C0.68 147.672 0.704 147.576 0.768 147.496C0.832 147.4 0.936 147.344 1.08 147.328C1.464 147.28 1.792 147.216 2.064 147.136C2.336 147.04 2.56 146.912 2.736 146.752C2.912 146.576 3.04 146.36 3.12 146.104C3.216 145.848 3.264 145.52 3.264 145.12V135.88C3.264 135.528 3.248 135.184 3.216 134.848C3.2 134.512 3.152 134.2 3.072 133.912C2.992 133.624 2.864 133.376 2.688 133.168C2.528 132.96 2.304 132.816 2.016 132.736C1.84 132.688 1.656 132.648 1.464 132.616C1.272 132.584 1.088 132.56 0.912 132.544C0.816 132.544 0.744 132.504 0.696 132.424C0.648 132.344 0.624 132.256 0.624 132.16C0.624 132.064 0.648 131.976 0.696 131.896C0.744 131.816 0.816 131.776 0.912 131.776C1.456 131.776 1.944 131.792 2.376 131.824C2.808 131.856 3.312 131.872 3.888 131.872H12.504ZM3.072 196.488C3.072 195.96 2.904 195.536 2.568 195.216C2.248 194.88 1.68 194.672 0.864 194.592C0.784 194.592 0.72 194.552 0.672 194.472C0.64 194.376 0.624 194.28 0.624 194.184C0.624 194.088 0.64 194 0.672 193.92C0.72 193.84 0.792 193.8 0.888 193.8C1.08 193.8 1.384 193.8 1.8 193.8C2.216 193.8 2.64 193.816 3.072 193.848C3.504 193.864 3.896 193.896 4.248 193.944C4.6 193.992 4.808 194.056 4.872 194.136L14.544 205.632C14.736 205.84 14.832 205.8 14.832 205.512V199.632C14.832 199.376 14.832 199.064 14.832 198.696C14.832 198.312 14.824 197.936 14.808 197.568C14.792 197.184 14.768 196.824 14.736 196.488C14.72 196.152 14.68 195.888 14.616 195.696C14.536 195.456 14.456 195.272 14.376 195.144C14.296 195 14.184 194.896 14.04 194.832C13.912 194.752 13.744 194.704 13.536 194.688C13.344 194.656 13.104 194.624 12.816 194.592C12.736 194.592 12.672 194.552 12.624 194.472C12.592 194.376 12.576 194.28 12.576 194.184C12.576 194.088 12.592 194 12.624 193.92C12.656 193.84 12.72 193.8 12.816 193.8C13.2 193.8 13.608 193.824 14.04 193.872C14.488 193.92 14.936 193.944 15.384 193.944C15.8 193.944 16.208 193.92 16.608 193.872C17.024 193.824 17.488 193.8 18 193.8C18.096 193.8 18.168 193.84 18.216 193.92C18.264 194 18.288 194.088 18.288 194.184C18.288 194.28 18.264 194.376 18.216 194.472C18.168 194.552 18.096 194.592 18 194.592C17.712 194.624 17.48 194.648 17.304 194.664C17.144 194.68 17 194.72 16.872 194.784C16.76 194.848 16.656 194.952 16.56 195.096C16.464 195.224 16.36 195.424 16.248 195.696C16.168 195.888 16.104 196.152 16.056 196.488C16.008 196.824 15.968 197.184 15.936 197.568C15.92 197.952 15.912 198.336 15.912 198.72C15.912 199.104 15.912 199.44 15.912 199.728V210.12C15.912 210.168 15.864 210.208 15.768 210.24C15.688 210.272 15.584 210.288 15.456 210.288C15.344 210.304 15.232 210.304 15.12 210.288C15.008 210.272 14.936 210.24 14.904 210.192L4.584 197.952C4.456 197.808 4.36 197.744 4.296 197.76C4.232 197.76 4.2 197.864 4.2 198.072V206.808C4.2 207.384 4.24 207.832 4.32 208.152C4.416 208.472 4.552 208.712 4.728 208.872C4.92 209.016 5.152 209.12 5.424 209.184C5.696 209.232 6.016 209.28 6.384 209.328C6.48 209.344 6.552 209.392 6.6 209.472C6.648 209.552 6.664 209.64 6.648 209.736C6.648 209.832 6.624 209.92 6.576 210C6.528 210.08 6.456 210.12 6.36 210.12C6.008 210.12 5.616 210.088 5.184 210.024C4.768 209.976 4.272 209.952 3.696 209.952C3.088 209.952 2.544 209.976 2.064 210.024C1.6 210.088 1.208 210.12 0.888 210.12C0.808 210.12 0.744 210.08 0.696 210C0.648 209.92 0.616 209.832 0.6 209.736C0.6 209.64 0.624 209.552 0.672 209.472C0.72 209.392 0.792 209.344 0.888 209.328C1.304 209.28 1.648 209.232 1.92 209.184C2.208 209.12 2.432 209.016 2.592 208.872C2.768 208.712 2.888 208.472 2.952 208.152C3.032 207.832 3.072 207.384 3.072 206.808V196.488ZM3.36 259.04C3.36 259.52 3.456 259.928 3.648 260.264C3.856 260.584 4.112 260.856 4.416 261.08C4.736 261.304 5.08 261.504 5.448 261.68C5.832 261.84 6.2 262 6.552 262.16C7.16 262.448 7.76 262.752 8.352 263.072C8.96 263.392 9.504 263.768 9.984 264.2C10.464 264.616 10.848 265.12 11.136 265.712C11.44 266.288 11.592 266.992 11.592 267.824C11.592 268.656 11.416 269.36 11.064 269.936C10.728 270.496 10.28 270.96 9.72 271.328C9.176 271.68 8.56 271.936 7.872 272.096C7.184 272.256 6.496 272.336 5.808 272.336C5.36 272.336 4.856 272.264 4.296 272.12C3.736 271.992 3.224 271.792 2.76 271.52C2.68 271.488 2.6 271.456 2.52 271.424C2.456 271.392 2.368 271.376 2.256 271.376C2.144 271.376 2.024 271.424 1.896 271.52C1.768 271.616 1.656 271.784 1.56 272.024C1.512 272.12 1.448 272.184 1.368 272.216C1.288 272.248 1.2 272.256 1.104 272.24C1.024 272.24 0.952 272.216 0.888 272.168C0.84 272.12 0.816 272.064 0.816 272C0.864 271.648 0.904 271.272 0.936 270.872C0.984 270.456 1.008 270.04 1.008 269.624C1.008 269.208 0.992 268.792 0.96 268.376C0.944 267.96 0.904 267.528 0.84 267.08C0.824 266.984 0.856 266.904 0.936 266.84C1.016 266.776 1.104 266.744 1.2 266.744C1.296 266.728 1.384 266.744 1.464 266.792C1.56 266.824 1.616 266.888 1.632 266.984C1.728 267.64 1.904 268.24 2.16 268.784C2.416 269.312 2.736 269.768 3.12 270.152C3.504 270.52 3.936 270.808 4.416 271.016C4.912 271.224 5.448 271.328 6.024 271.328C6.456 271.328 6.864 271.272 7.248 271.16C7.648 271.032 8 270.856 8.304 270.632C8.608 270.392 8.848 270.104 9.024 269.768C9.2 269.432 9.288 269.04 9.288 268.592C9.288 268.016 9.16 267.512 8.904 267.08C8.664 266.648 8.36 266.28 7.992 265.976C7.624 265.656 7.216 265.384 6.768 265.16C6.32 264.92 5.896 264.704 5.496 264.512C4.968 264.272 4.44 264.024 3.912 263.768C3.384 263.512 2.912 263.208 2.496 262.856C2.08 262.488 1.744 262.056 1.488 261.56C1.232 261.048 1.104 260.416 1.104 259.664C1.104 258.896 1.256 258.256 1.56 257.744C1.88 257.216 2.296 256.792 2.808 256.472C3.32 256.152 3.904 255.92 4.56 255.776C5.216 255.632 5.896 255.56 6.6 255.56C7.048 255.56 7.424 255.592 7.728 255.656C8.048 255.704 8.4 255.792 8.784 255.92C8.992 255.984 9.16 256.04 9.288 256.088C9.432 256.12 9.568 256.136 9.696 256.136C9.888 256.136 10.024 256.056 10.104 255.896C10.136 255.832 10.192 255.792 10.272 255.776C10.368 255.744 10.456 255.736 10.536 255.752C10.616 255.752 10.688 255.768 10.752 255.8C10.816 255.832 10.84 255.88 10.824 255.944C10.744 256.232 10.688 256.52 10.656 256.808C10.64 257.096 10.632 257.4 10.632 257.72C10.632 258.136 10.656 258.512 10.704 258.848C10.752 259.184 10.792 259.584 10.824 260.048C10.824 260.096 10.792 260.144 10.728 260.192C10.664 260.224 10.584 260.248 10.488 260.264C10.408 260.264 10.328 260.248 10.248 260.216C10.168 260.184 10.12 260.128 10.104 260.048C9.944 259.344 9.768 258.768 9.576 258.32C9.384 257.856 9.144 257.496 8.856 257.24C8.568 256.984 8.216 256.808 7.8 256.712C7.4 256.616 6.912 256.568 6.336 256.568C5.936 256.568 5.552 256.624 5.184 256.736C4.832 256.832 4.52 256.984 4.248 257.192C3.976 257.4 3.76 257.664 3.6 257.984C3.44 258.288 3.36 258.64 3.36 259.04ZM9 334.24C6.488 334.24 4.52 333.528 3.096 332.104C1.672 330.68 0.96 328.552 0.96 325.72C0.96 324.504 1.16 323.384 1.56 322.36C1.96 321.336 2.512 320.456 3.216 319.72C3.936 318.984 4.792 318.416 5.784 318.016C6.776 317.6 7.872 317.392 9.072 317.392C10.24 317.392 11.312 317.592 12.288 317.992C13.264 318.376 14.104 318.928 14.808 319.648C15.512 320.368 16.056 321.24 16.44 322.264C16.84 323.272 17.04 324.4 17.04 325.648C17.04 327.04 16.824 328.272 16.392 329.344C15.976 330.4 15.4 331.296 14.664 332.032C13.944 332.752 13.096 333.304 12.12 333.688C11.144 334.056 10.104 334.24 9 334.24ZM9.096 333.232C9.88 333.232 10.568 333.024 11.16 332.608C11.768 332.192 12.28 331.648 12.696 330.976C13.112 330.288 13.424 329.504 13.632 328.624C13.856 327.728 13.968 326.8 13.968 325.84C13.968 324.912 13.88 324 13.704 323.104C13.544 322.208 13.272 321.416 12.888 320.728C12.504 320.024 11.992 319.464 11.352 319.048C10.712 318.616 9.928 318.4 9 318.4C8.136 318.4 7.384 318.616 6.744 319.048C6.12 319.48 5.608 320.048 5.208 320.752C4.808 321.44 4.512 322.232 4.32 323.128C4.128 324.008 4.032 324.904 4.032 325.816C4.032 326.776 4.112 327.704 4.272 328.6C4.432 329.496 4.704 330.288 5.088 330.976C5.472 331.648 5.984 332.192 6.624 332.608C7.28 333.024 8.104 333.232 9.096 333.232ZM3.264 383.904C3.264 383.552 3.248 383.208 3.216 382.872C3.2 382.536 3.152 382.224 3.072 381.936C2.992 381.648 2.864 381.4 2.688 381.192C2.528 380.984 2.304 380.84 2.016 380.76C1.84 380.712 1.656 380.672 1.464 380.64C1.272 380.608 1.088 380.584 0.912 380.568C0.816 380.568 0.744 380.528 0.696 380.448C0.648 380.368 0.624 380.28 0.624 380.184C0.624 380.088 0.648 380 0.696 379.92C0.744 379.84 0.816 379.8 0.912 379.8C1.456 379.8 1.944 379.816 2.376 379.848C2.808 379.88 3.312 379.896 3.888 379.896C4.848 379.88 5.64 379.864 6.264 379.848C6.904 379.816 7.512 379.8 8.088 379.8C8.728 379.8 9.36 379.88 9.984 380.04C10.608 380.184 11.16 380.424 11.64 380.76C12.136 381.096 12.528 381.536 12.816 382.08C13.12 382.624 13.272 383.28 13.272 384.048C13.272 384.656 13.176 385.184 12.984 385.632C12.808 386.08 12.56 386.464 12.24 386.784C11.92 387.104 11.536 387.368 11.088 387.576C10.656 387.768 10.184 387.92 9.672 388.032C9.56 388.064 9.504 388.12 9.504 388.2C9.504 388.264 9.56 388.328 9.672 388.392C10.424 388.76 11 389.168 11.4 389.616C11.816 390.064 12.128 390.528 12.336 391.008C12.56 391.488 12.72 391.984 12.816 392.496C12.912 392.992 13.016 393.48 13.128 393.96C13.208 394.328 13.336 394.6 13.512 394.776C13.704 394.936 13.896 395.016 14.088 395.016C14.28 395.016 14.464 394.936 14.64 394.776C14.816 394.616 14.952 394.376 15.048 394.056C15.08 393.928 15.144 393.848 15.24 393.816C15.336 393.768 15.424 393.76 15.504 393.792C15.6 393.808 15.68 393.856 15.744 393.936C15.824 394 15.856 394.072 15.84 394.152C15.792 394.552 15.68 394.896 15.504 395.184C15.328 395.472 15.112 395.712 14.856 395.904C14.616 396.08 14.336 396.208 14.016 396.288C13.712 396.384 13.408 396.432 13.104 396.432C12.592 396.432 12.128 396.32 11.712 396.096C11.296 395.872 11.016 395.552 10.872 395.136C10.776 394.864 10.68 394.568 10.584 394.248C10.504 393.928 10.424 393.608 10.344 393.288C10.264 392.952 10.184 392.632 10.104 392.328C10.024 392.008 9.952 391.728 9.888 391.488C9.6 390.464 9.224 389.728 8.76 389.28C8.312 388.832 7.68 388.608 6.864 388.608C6.592 388.608 6.36 388.664 6.168 388.776C5.976 388.888 5.88 389.112 5.88 389.448V392.688C5.88 393.232 5.936 393.672 6.048 394.008C6.16 394.328 6.328 394.584 6.552 394.776C6.776 394.952 7.048 395.08 7.368 395.16C7.704 395.24 8.088 395.296 8.52 395.328C8.616 395.328 8.688 395.376 8.736 395.472C8.8 395.552 8.832 395.648 8.832 395.76C8.832 395.856 8.8 395.944 8.736 396.024C8.688 396.104 8.608 396.144 8.496 396.144C7.696 396.144 6.992 396.112 6.384 396.048C5.776 395.984 5.184 395.952 4.608 395.952C4 395.952 3.4 395.984 2.808 396.048C2.216 396.112 1.64 396.144 1.08 396.144C0.984 396.144 0.912 396.104 0.864 396.024C0.816 395.944 0.784 395.856 0.768 395.76C0.768 395.664 0.792 395.576 0.84 395.496C0.888 395.4 0.968 395.344 1.08 395.328C1.528 395.28 1.896 395.216 2.184 395.136C2.472 395.056 2.696 394.928 2.856 394.752C3.016 394.576 3.12 394.344 3.168 394.056C3.232 393.768 3.264 393.384 3.264 392.904V383.904ZM5.88 386.76C5.88 387.176 5.992 387.424 6.216 387.504C6.456 387.568 6.808 387.6 7.272 387.6C7.896 387.6 8.416 387.544 8.832 387.432C9.264 387.304 9.608 387.104 9.864 386.832C10.12 386.544 10.296 386.184 10.392 385.752C10.504 385.304 10.56 384.76 10.56 384.12C10.56 383.512 10.504 383 10.392 382.584C10.28 382.152 10.096 381.808 9.84 381.552C9.6 381.28 9.28 381.088 8.88 380.976C8.48 380.864 7.992 380.808 7.416 380.808C6.792 380.808 6.376 380.888 6.168 381.048C5.976 381.208 5.88 381.536 5.88 382.032V386.76Z" fill="white"/>
</svg>
