<svg width="25" height="31" viewBox="0 0 25 31" fill="none" xmlns="http://www.w3.org/2000/svg">
<path d="M24.023 1.22894C24.023 7.52581 24.023 13.8227 24.0103 20.129C23.9856 20.1596 23.9658 20.1797 23.9631 20.2019C23.9401 20.3891 23.9219 20.577 23.899 20.7642C23.8232 21.3853 23.6794 21.9915 23.4947 22.5886C23.1733 23.6281 22.732 24.614 22.1242 25.5167C21.8066 25.9884 21.4662 26.4501 21.0898 26.8753C20.6657 27.3544 20.2154 27.8179 19.7285 28.2318C19.2742 28.6181 18.7655 28.9435 18.2652 29.2721C17.6221 29.6944 16.9236 30.0128 16.2017 30.2752C15.2827 30.6092 14.3401 30.8489 13.3619 30.9316C13.3414 30.9333 13.3239 30.9702 13.3051 30.9908C12.4966 30.9908 11.6882 30.9908 10.8704 30.9781C10.6628 30.9326 10.4633 30.9066 10.2668 30.8657C9.71631 30.7511 9.15845 30.6603 8.61931 30.5051C7.74481 30.2533 6.91212 29.8938 6.11944 29.439C5.26544 28.949 4.48985 28.3578 3.77607 27.6849C3.51497 27.4387 3.27431 27.1683 3.04478 26.8919C2.75572 26.5439 2.47479 26.1875 2.21319 25.8186C1.69088 25.0819 1.28659 24.2794 0.957587 23.4402C0.722421 22.8404 0.523626 22.2268 0.414269 21.5905C0.327335 21.0846 0.267629 20.5741 0.1925 20.0662C0.188553 20.0395 0.153425 20.0174 0.132813 19.9932C0.132812 13.7481 0.132812 7.50299 0.146638 1.24341C0.444233 1.19788 0.727694 1.16354 1.01186 1.13673C1.28176 1.11125 1.55266 1.0965 1.82266 1.07199C2.36684 1.02259 2.91043 0.966565 3.45479 0.919406C3.87286 0.883188 4.29154 0.853088 4.71032 0.826188C5.24771 0.79167 5.78539 0.761465 6.32311 0.732454C6.75382 0.709217 7.18459 0.685182 7.61565 0.671226C8.12071 0.654875 8.6261 0.649106 9.13135 0.638588C9.17777 0.637622 9.22484 0.639322 9.27012 0.631352C9.28208 0.629248 9.2885 0.595666 9.29746 0.576538C11.1622 0.576538 13.0269 0.576538 14.9015 0.589591C14.943 0.614606 14.9741 0.63592 15.006 0.637094C15.3507 0.649794 15.6956 0.657062 16.0403 0.670272C16.523 0.68877 17.0057 0.70854 17.4881 0.73236C18.0621 0.760697 18.6357 0.794334 19.2096 0.824847C19.6145 0.846378 20.0195 0.865708 20.4244 0.887727C20.5727 0.895791 20.7208 0.907012 20.8688 0.919829C21.332 0.959957 21.7951 1.00146 22.2582 1.04257C22.5077 1.06472 22.7575 1.08361 23.0065 1.11031C23.3457 1.14668 23.6842 1.18911 24.023 1.22894ZM9.93246 29.1583C10.4254 29.2306 10.9163 29.3358 11.4118 29.3661C11.9199 29.3971 12.435 29.3829 12.9423 29.3367C13.467 29.2889 13.9906 29.2007 14.5064 29.0911C15.3648 28.9086 16.1732 28.5805 16.9504 28.1744C17.0349 28.1302 17.0772 28.077 17.0626 27.9809C17.0312 27.775 17.0011 27.569 16.9716 27.3628C16.8881 26.7788 16.8189 26.1924 16.7166 25.6117C16.6587 25.2827 16.505 24.9808 16.1631 24.8622C15.888 24.7667 15.5976 24.7104 15.3103 24.6563C15.0554 24.6084 14.7954 24.5885 14.5378 24.5545C14.2453 24.5159 13.9532 24.4738 13.6605 24.4361C13.3684 24.3985 13.0758 24.3644 12.781 24.3285C12.783 24.2151 12.7285 24.1032 12.9253 24.0883C13.3825 24.0537 13.8386 23.9975 14.293 23.9344C14.8162 23.8618 15.3369 23.7714 15.859 23.6906C16.2761 23.626 16.6051 23.3364 16.6893 22.9233C16.7745 22.5059 16.8441 22.0849 16.9064 21.6634C16.9772 21.185 17.0341 20.7045 17.093 20.2244C17.1108 20.0788 17.1153 19.9315 17.1267 19.7727C16.2868 19.9326 15.5034 20.206 14.7579 20.5774C13.7883 21.0604 12.8333 21.5728 11.8671 22.0627C11.2051 22.3984 10.5127 22.6598 9.79891 22.8652C8.94193 23.1118 8.07062 23.2496 7.17718 23.2579C6.62101 23.263 6.06287 23.2632 5.51939 23.153C4.95033 23.0375 4.38418 22.8893 3.83429 22.7036C3.39476 22.5551 2.98078 22.3304 2.55705 22.136C2.43591 22.0805 2.32031 22.0128 2.1683 21.9329C2.24419 22.1596 2.30499 22.3506 2.37186 22.5394C2.6273 23.2607 2.96601 23.9412 3.37465 24.5878C3.85182 25.3429 4.41691 26.0253 5.07694 26.626C5.37103 26.8936 5.67662 27.1512 5.9955 27.3885C6.83261 28.0114 7.74859 28.4921 8.73681 28.8269C9.11983 28.9566 9.51574 29.0483 9.93246 29.1583ZM11.9229 8.74704C11.4992 8.77841 11.0738 8.79542 10.6524 8.8458C10.3311 8.88421 10.015 8.96618 9.69613 9.02601C9.61451 9.04132 9.56447 9.07238 9.57741 9.16612C9.63025 9.549 9.67237 9.93366 9.73713 10.3145C9.77127 10.5152 9.78488 10.7287 9.95674 10.8848C10.154 11.064 10.4051 11.0667 10.641 11.1038C11.0678 11.1708 11.4984 11.2133 11.9274 11.266C11.9364 11.2818 11.9454 11.2976 11.9544 11.3134C11.9104 11.3483 11.8699 11.4075 11.8219 11.4143C11.3381 11.4829 10.8526 11.5396 10.3685 11.6066C10.0768 11.6469 9.85427 11.7739 9.79371 12.1005C9.73728 12.4048 9.68683 12.7103 9.6408 13.0163C9.61405 13.1942 9.60117 13.3741 9.58257 13.5483C9.74538 13.5744 9.89021 13.6023 10.0363 13.6202C10.4057 13.6655 10.775 13.7135 11.1457 13.746C11.3545 13.7643 11.3698 13.7697 11.3291 13.9894C10.9218 14.0436 10.5133 14.0967 10.1051 14.1525C9.50543 14.2345 8.90239 14.2987 8.30759 14.4077C7.84349 14.4928 7.55838 14.7167 7.43584 15.2129C7.38731 15.4094 7.36438 15.6125 7.33412 15.8133C7.28259 16.155 7.23297 16.4971 7.18539 16.8394C7.14336 17.1418 7.10238 17.4444 7.06648 17.7475C7.04691 17.9128 7.03886 18.0795 7.02397 18.2661C7.18683 18.234 7.32246 18.2143 7.45432 18.1801C8.29618 17.9615 9.10631 17.6568 9.8877 17.275C10.8117 16.8236 11.7281 16.3557 12.663 15.9281C13.2237 15.6717 13.8066 15.4585 14.3916 15.2619C15.297 14.9576 16.233 14.8138 17.1901 14.8379C17.6213 14.8487 18.0564 14.8474 18.4816 14.908C18.9516 14.975 19.419 15.0835 19.8756 15.2154C20.5003 15.3958 21.103 15.6403 21.6666 15.9716C21.7623 16.0279 21.863 16.0756 21.9665 16.13C21.9691 16.1026 21.9734 16.0914 21.9706 16.0824C21.7133 15.2492 21.3669 14.4533 20.9102 13.7117C20.5549 13.135 20.162 12.5812 19.6825 12.0963C19.4698 11.8813 19.2655 11.6566 19.0389 11.4573C18.7291 11.1849 18.4129 10.917 18.0795 10.6747C17.3864 10.1711 16.6364 9.76896 15.8376 9.45375C15.0158 9.12944 14.166 8.91933 13.2924 8.81504C12.8499 8.7622 12.4003 8.76785 11.9229 8.74704ZM17.9115 16.4827C17.522 16.5033 17.1313 16.5108 16.7434 16.5482C16.3693 16.5843 15.993 16.628 15.6268 16.7094C14.8166 16.8893 14.0477 17.1935 13.3034 17.5571C12.2598 18.067 11.2296 18.6055 10.1754 19.0923C9.59825 19.3588 8.99044 19.5656 8.38385 19.76C7.76752 19.9576 7.12396 20.0516 6.47837 20.0811C5.71393 20.116 4.95064 20.0823 4.1949 19.9335C3.55609 19.8077 2.93457 19.631 2.33742 19.3712C2.15497 19.2918 1.97473 19.2073 1.81142 19.1333C1.81142 19.4716 1.80419 19.801 1.81549 20.1297C1.81925 20.239 1.83845 20.361 1.97055 20.4171C2.05881 20.4545 2.14001 20.5085 2.22469 20.5545C2.92103 20.933 3.66132 21.2001 4.43679 21.3456C5.02613 21.4561 5.62569 21.5282 6.22401 21.5704C6.82281 21.6125 7.42532 21.5724 8.01577 21.451C8.51124 21.3491 9.01457 21.2608 9.4916 21.0992C10.4995 20.7577 11.4419 20.2637 12.3859 19.7755C13.4599 19.2201 14.535 18.6663 15.7096 18.3386C16.3447 18.1614 16.9897 18.0423 17.6445 18.0112C18.4292 17.9739 19.2139 18.0045 19.9898 18.1584C20.7389 18.307 21.4654 18.5206 22.1536 18.8556C22.2328 18.8941 22.3123 18.9321 22.4254 18.9867C22.3966 18.576 22.3733 18.2027 22.3408 17.8301C22.3366 17.7829 22.2947 17.7228 22.2528 17.6978C22.061 17.5834 21.8683 17.4677 21.666 17.3738C21.0672 17.0961 20.448 16.8705 19.8008 16.7375C19.3982 16.6548 18.9888 16.6038 18.5814 16.5463C18.3692 16.5164 18.1546 16.5034 17.9115 16.4827ZM17.9483 23.2547C18.0598 23.4357 18.2145 23.5796 18.4186 23.6231C18.8793 23.7213 19.3447 23.7981 19.8096 23.8749C20.1005 23.9229 20.3965 23.9424 20.6858 23.9975C21.0792 24.0725 21.1433 24.0548 21.3187 23.692C21.6638 22.9785 21.9497 22.2423 22.1252 21.4678C22.2002 21.1367 22.2533 20.8006 22.3136 20.4663C22.3334 20.3566 22.3026 20.2821 22.1741 20.2623C22.1009 20.251 22.0335 20.2057 21.9618 20.1806C21.0297 19.8554 20.0674 19.6716 19.0841 19.6277C18.6138 19.6067 18.1399 19.66 17.668 19.686C17.5648 19.6917 17.463 19.7241 17.355 19.7453C17.3838 19.974 17.4124 20.1852 17.4363 20.3969C17.4702 20.696 17.494 20.9963 17.5339 21.2945C17.5891 21.7074 17.6429 22.1212 17.7214 22.53C17.7677 22.7705 17.8607 23.0021 17.9483 23.2547ZM4.15645 18.3466C5.03231 18.4732 5.9053 18.4668 6.77793 18.3059C6.72598 17.9069 6.67736 17.5236 6.62592 17.1406C6.54396 16.5306 6.47695 15.9178 6.37155 15.3118C6.29258 14.8577 6.05814 14.5354 5.57567 14.4334C5.22345 14.3588 4.86757 14.2985 4.511 14.2485C4.02868 14.1808 3.54413 14.1291 3.06101 14.0705C2.42872 15.2245 2.01593 16.445 1.85665 17.7572C2.00509 17.8122 2.14169 17.8657 2.28028 17.9136C2.88145 18.121 3.49979 18.2559 4.15645 18.3466ZM8.89358 5.1278C8.89358 4.59707 8.89358 4.06634 8.89358 3.53643C8.53055 3.53643 8.19105 3.53643 7.83359 3.53643C7.83359 4.01236 7.83359 4.48004 7.83359 4.94914C7.42418 4.94914 7.03294 4.94914 6.62364 4.94914C6.62364 4.47404 6.62364 4.00637 6.62364 3.5403C6.26219 3.5403 5.91899 3.5403 5.57863 3.5403C5.57863 4.73098 5.57863 5.90916 5.57863 7.08906C5.93107 7.08906 6.27422 7.08906 6.62958 7.08906C6.62958 6.61379 6.62958 6.14989 6.62958 5.68181C7.03703 5.68181 7.432 5.68181 7.84481 5.68181C7.84481 6.15961 7.84481 6.6273 7.84481 7.091C8.20234 7.091 8.54187 7.091 8.89358 7.091C8.89358 6.44062 8.89358 5.79974 8.89358 5.1278ZM1.93468 5.7802C1.93468 6.21751 1.93468 6.65483 1.93468 7.09259C2.30718 7.09259 2.65683 7.09259 3.02425 7.09259C3.02425 6.80387 3.02425 6.52261 3.02425 6.23066C3.18591 6.23066 3.33028 6.22389 3.47378 6.23213C3.73371 6.24706 3.98133 6.19895 4.22177 6.10564C4.53124 5.98553 4.77486 5.79326 4.93117 5.49104C5.09519 5.17388 5.12383 4.8389 5.0668 4.49888C5.0118 4.17094 4.84749 3.90043 4.55668 3.71757C4.23138 3.51303 3.86222 3.4588 3.49452 3.44121C3.10471 3.42257 2.71231 3.4526 2.32128 3.46769C2.19555 3.47254 2.0706 3.49743 1.93468 3.51449C1.93468 4.26108 1.93468 5.0051 1.93468 5.7802ZM16.4298 7.10057C16.7014 7.10057 16.9729 7.10057 17.2559 7.10057C17.2559 6.79852 17.2559 6.52117 17.2559 6.23071C17.4218 6.23071 17.5763 6.23875 17.7297 6.22865C17.9172 6.2163 18.1087 6.20865 18.2897 6.1637C18.6937 6.06338 19.0026 5.8322 19.1962 5.45207C19.3399 5.16992 19.3585 4.8691 19.3251 4.56969C19.2921 4.27265 19.1688 4.00422 18.9266 3.80739C18.5757 3.52218 18.1501 3.4607 17.7237 3.44062C17.3443 3.42275 16.9624 3.45257 16.5818 3.46765C16.456 3.47264 16.331 3.49729 16.2049 3.51305C16.2049 4.7077 16.2049 5.89903 16.2049 7.10057C16.2769 7.10057 16.3382 7.10057 16.4298 7.10057ZM22.2217 3.90812C22.2092 3.78272 22.1967 3.65733 22.1842 3.53278C22.1366 3.52997 22.1049 3.53209 22.075 3.52575C21.5491 3.41429 21.0232 3.3851 20.4984 3.52894C19.9457 3.6804 19.6016 4.16459 19.7305 4.74771C19.8283 5.19056 20.154 5.38271 20.5196 5.54543C20.778 5.66046 21.0461 5.75589 21.2955 5.88731C21.3699 5.9265 21.4305 6.05605 21.435 6.14724C21.4403 6.25656 21.3902 6.36861 21.2568 6.42008C21.0011 6.51874 20.738 6.4975 20.4827 6.45878C20.1914 6.4146 19.9069 6.32552 19.6047 6.25239C19.637 6.45192 19.6856 6.65546 19.6974 6.86111C19.7045 6.98529 19.7532 7.02801 19.8588 7.05482C20.4045 7.19339 20.9567 7.2497 21.5095 7.12518C21.9761 7.02007 22.3617 6.80008 22.4913 6.28486C22.5989 5.85723 22.4726 5.42547 22.0694 5.19567C21.8855 5.09091 21.6861 5.01298 21.4921 4.92666C21.2985 4.84052 21.0997 4.76563 20.9093 4.67324C20.7906 4.61566 20.7862 4.49586 20.7915 4.3781C20.7965 4.27014 20.8556 4.19468 20.9526 4.18269C21.1678 4.15609 21.3868 4.12657 21.6016 4.1404C21.8251 4.15481 22.0454 4.21881 22.2767 4.26294C22.2587 4.15221 22.2412 4.0442 22.2217 3.90812ZM18.7381 24.7178C18.704 24.7275 18.6704 24.7389 18.6359 24.7467C18.2733 24.8284 17.97 25.0087 17.8501 25.3701C17.7504 25.6706 17.7091 25.9917 17.6566 26.3062C17.5971 26.6621 17.5513 27.0205 17.5052 27.3785C17.4853 27.5323 17.4797 27.688 17.465 27.8758C18.8915 26.9881 20.0197 25.8567 20.9032 24.429C20.7754 24.4439 20.6772 24.4543 20.5792 24.4669C20.2965 24.5034 20.0137 24.5391 19.7314 24.578C19.409 24.6223 19.0871 24.6697 18.7381 24.7178ZM3.86332 12.8371C3.67924 13.1025 3.49515 13.368 3.2852 13.6707C3.42251 13.6514 3.51614 13.638 3.60982 13.625C4.20923 13.5419 4.80941 13.4639 5.40784 13.3742C5.87233 13.3045 6.21859 13.0713 6.34045 12.5962C6.41335 12.3119 6.45803 12.0193 6.49897 11.7282C6.56536 11.256 6.61824 10.7819 6.67787 10.3003C6.64342 10.3128 6.61247 10.3181 6.58829 10.3338C6.03162 10.6955 5.49359 11.0856 5.02376 11.554C4.62117 11.9554 4.25703 12.3953 3.86332 12.8371ZM12.7458 4.9414C12.7458 4.47319 12.7458 4.00499 12.7458 3.54094C12.3805 3.54094 12.0376 3.54094 11.6979 3.54094C11.6979 4.73124 11.6979 5.90841 11.6979 7.10019C12.3303 7.10019 12.9546 7.10111 13.5788 7.09728C13.6078 7.0971 13.655 7.05919 13.6624 7.03071C13.714 6.83225 13.7574 6.63165 13.8078 6.41267C13.4444 6.41267 13.1005 6.41267 12.7458 6.41267C12.7458 5.92209 12.7458 5.44728 12.7458 4.9414ZM14.2371 6.24619C14.2371 6.52829 14.2371 6.81039 14.2371 7.09266C14.6096 7.09266 14.9592 7.09266 15.3157 7.09266C15.3157 5.90382 15.3157 4.72291 15.3157 3.53847C14.9537 3.53847 14.6004 3.53847 14.2371 3.53847C14.2371 4.43776 14.2371 5.32645 14.2371 6.24619ZM10.8197 4.91033C10.8197 4.45243 10.8197 3.99453 10.8197 3.53551C10.458 3.53551 10.1188 3.53551 9.77191 3.53551C9.77191 4.72409 9.77191 5.90499 9.77191 7.09015C10.1233 7.09015 10.4662 7.09015 10.8197 7.09015C10.8197 6.36698 10.8197 5.65419 10.8197 4.91033ZM7.12281 10.4388C7.157 10.7002 7.19118 10.9615 7.22785 11.2419C7.32722 11.2275 7.41642 11.2136 7.50587 11.2017C7.89914 11.1493 8.29457 11.1094 8.68503 11.0411C8.93439 10.9974 9.12807 10.8604 9.17484 10.5837C9.22642 10.2786 9.28087 9.97397 9.32686 9.66803C9.35375 9.48917 9.36653 9.30819 9.38745 9.11125C8.57215 9.32916 7.81657 9.6416 7.0827 10.049C7.09586 10.1677 7.10932 10.2891 7.12281 10.4388ZM7.33707 11.9707C7.39274 12.2383 7.42148 12.5154 7.51174 12.7708C7.59999 13.0205 7.79108 13.2172 8.05987 13.2812C8.49217 13.384 8.93048 13.4615 9.37866 13.5522C9.38321 13.4941 9.39115 13.4638 9.387 13.4353C9.32705 13.023 9.25921 12.6118 9.20637 12.1986C9.16709 11.8915 9.01769 11.7019 8.71432 11.6367C8.48651 11.5877 8.25609 11.549 8.02533 11.5162C7.77075 11.4801 7.51446 11.456 7.2506 11.4257C7.27616 11.6069 7.30011 11.7765 7.33707 11.9707Z" fill="#005050"/>
<path d="M14.9867 26.381C15.1125 26.5618 15.3041 26.5778 15.482 26.6053C15.8341 26.6598 16.1886 26.6981 16.5922 26.7494C16.5465 26.7978 16.5211 26.8502 16.4875 26.8561C16.2725 26.8938 16.0555 26.9201 15.8396 26.9524C15.6389 26.9824 15.4364 27.0052 15.2389 27.0497C15.0665 27.0885 14.9503 27.2068 14.9223 27.3849C14.8648 27.751 14.8206 28.1193 14.7621 28.4853C14.7497 28.5631 14.7772 28.6934 14.6251 28.694C14.5664 28.2827 14.5064 27.8911 14.4557 27.4982C14.4083 27.1301 14.2062 27.0562 13.9276 27.0146C13.5711 26.9614 13.2138 26.913 12.8577 26.857C12.8225 26.8514 12.7933 26.8069 12.7345 26.7583C13.1952 26.6936 13.6023 26.6341 14.0101 26.58C14.2331 26.5504 14.4194 26.3867 14.452 26.1643C14.5124 25.7517 14.5656 25.3381 14.6286 24.875C14.6748 24.9224 14.7255 24.9496 14.7309 24.984C14.7879 25.3453 14.8343 25.7083 14.8915 26.0696C14.9077 26.1725 14.9491 26.2714 14.9867 26.381Z" fill="#005050"/>
<path d="M3.57017 4.11935C4.00038 4.2812 4.17321 4.59588 4.07184 5.02806C3.96133 5.49926 3.71742 5.65806 3.06588 5.60246C3.06588 5.1062 3.06588 4.60857 3.06588 4.07792C3.22727 4.09122 3.3922 4.1048 3.57017 4.11935Z" fill="#005050"/>
<path d="M18.3072 5.04723C18.2446 5.43529 17.9785 5.67121 17.3251 5.60144C17.3251 5.10544 17.3251 4.60785 17.3251 4.09473C17.6245 4.07335 17.9336 4.0652 18.1581 4.30501C18.345 4.50458 18.3796 4.76569 18.3072 5.04723Z" fill="#005050"/>
</svg>
