<svg width="44" height="45" viewBox="0 0 44 45" fill="none" xmlns="http://www.w3.org/2000/svg">
<rect x="0.019043" y="0.947632" width="43.52" height="43.52" rx="21.76" fill="#295495"/>
<path fill-rule="evenodd" clip-rule="evenodd" d="M16.0756 24.7228V24.8928C16.2739 24.8928 16.3306 24.9495 16.5006 24.8928C16.5715 24.8786 16.614 24.8361 16.6706 24.8361C16.7415 24.8361 16.7698 24.9211 16.9398 24.9069C17.0674 24.9069 17.1807 24.8928 17.3224 24.8928L18.4559 24.9069C18.6259 24.9069 18.6967 24.8644 18.8242 24.8644C18.9801 24.8786 18.9659 24.9211 19.1501 24.8786C19.3059 24.8503 19.3059 24.8361 19.5043 24.8361C19.561 24.7228 19.6035 24.7228 19.6743 24.6094L20.1135 23.8727C20.1844 23.7735 20.1844 23.6885 20.2269 23.5893C20.2836 23.476 20.3544 23.476 20.4111 23.3626C20.4536 23.2634 20.4536 23.1784 20.5244 23.0934C20.6094 22.9517 20.6094 23.0226 20.6803 22.8242C20.7511 22.6259 20.8361 22.6117 20.907 22.4558L21.417 21.5632C21.5162 21.4357 21.4737 21.4499 21.5445 21.3082C21.6012 21.209 21.672 21.1524 21.7146 21.0673L21.8704 20.8123C21.9412 20.7273 21.9412 20.614 21.9979 20.5431L22.3096 20.0614C22.3805 19.9622 22.423 19.8205 22.5221 19.6789L22.6497 19.4097C22.678 19.3672 22.6922 19.3388 22.7205 19.2821L22.9614 18.9279C23.0039 18.8429 22.9897 18.8429 23.0322 18.7721C23.103 18.6304 23.1597 18.6871 23.2164 18.5454C23.2589 18.432 23.2306 18.3754 23.3156 18.262C23.5423 17.9787 23.4006 18.0778 23.6273 17.752C23.6839 17.667 23.6981 17.5678 23.769 17.4828L23.9106 17.2419C23.9956 17.0577 24.0098 17.1711 24.0807 17.0152C24.109 16.9444 24.1657 16.746 24.2365 16.746C24.5199 16.746 24.5624 17.0577 24.6899 17.2136C24.7891 17.3269 24.8032 17.5111 24.9024 17.6245C25.0299 17.752 25.0441 17.8795 25.1433 18.007C25.2425 18.1203 25.2708 18.3045 25.37 18.432C25.4125 18.4745 25.3983 18.4462 25.4408 18.5171C25.455 18.5454 25.4691 18.5879 25.4833 18.6304C25.54 18.7296 25.5683 18.7296 25.625 18.8146C25.6675 18.8854 25.6675 18.9704 25.7242 19.0554C25.7667 19.1263 25.795 19.1263 25.8517 19.2255C25.9367 19.353 26.0359 19.4663 26.0926 19.608C26.2059 19.9055 26.4184 20.1322 26.5459 20.4298C26.6026 20.5715 26.7018 20.6565 26.7868 20.8265C26.9143 21.0957 27.0985 21.3365 27.2402 21.6341C27.2827 21.7191 27.311 21.7474 27.3677 21.8183C27.4244 21.9033 27.4244 21.9458 27.4669 22.0308C27.481 22.0875 27.4527 22.045 27.4952 22.0875C27.6369 22.2858 27.5661 22.1158 27.6936 22.4558C27.7502 22.5692 27.7786 22.5408 27.8211 22.64C27.8778 22.7392 27.8494 22.7392 27.9344 22.8384C27.9911 22.9092 28.0336 22.9517 28.0761 23.0367L28.2886 23.4476C28.3453 23.5185 28.3736 23.561 28.4161 23.6318C28.487 23.731 28.4728 23.731 28.5153 23.8443C28.572 23.9577 28.6145 23.9435 28.742 24.241L28.8695 24.4252C28.9404 24.5102 28.9262 24.5669 28.9687 24.6661C28.997 24.7369 29.0396 24.7653 29.0962 24.8503L29.3371 25.2328C29.4363 25.4453 29.5354 25.6579 29.6771 25.8562L30.3997 27.0605C30.4422 27.1455 30.4564 27.2164 30.4847 27.273C30.5697 27.4289 30.5556 27.3156 30.7114 27.6839C30.7397 27.7548 30.7539 27.7406 30.8106 27.8114C30.8248 27.8114 30.8248 27.8114 30.8248 27.8256C30.9239 27.939 31.0514 28.2223 31.1223 28.364C31.1365 28.3923 31.1506 28.4065 31.1648 28.4207C31.3631 28.6899 31.3206 28.7465 31.434 28.8882C31.5332 29.0016 31.5757 29.1716 31.6607 29.2849C31.7882 29.4691 31.7599 29.7808 31.6465 29.965C31.5898 30.0217 31.604 29.9934 31.5615 30.0784C31.4198 30.3334 31.264 30.4751 30.9098 30.5034C30.5697 30.5459 26.4043 30.5034 25.8517 30.5034C20.2269 30.5034 14.6162 30.5034 8.99144 30.5034C8.70808 30.5034 8.41054 30.5034 8.16968 30.5318C7.9855 30.5601 7.61712 30.4751 7.50378 30.6734C7.43293 30.8151 7.50378 30.8293 7.39043 30.971C7.30542 31.0701 7.27708 31.1127 7.24875 31.2543L7.0929 31.9486C7.0929 32.0761 7.24875 32.4586 7.30542 32.6003C7.36209 32.7137 7.37626 32.6712 7.41877 32.7562C7.47544 32.8554 7.43293 32.8695 7.51794 32.9545C7.64546 33.0962 7.81548 33.2379 7.9855 33.3371L8.25469 33.4929C8.49555 33.6346 8.53806 33.5779 8.84976 33.5921C9.2323 33.6346 9.51567 33.5921 9.92655 33.5921H34.1118C34.466 33.5921 34.9052 33.7054 35.1744 33.5496C35.3161 33.4646 35.4719 33.4504 35.5995 33.3796C35.6986 33.3229 35.642 33.3229 35.7411 33.2379C35.8262 33.1812 35.8828 33.1671 35.9395 33.1245C36.0528 33.0254 36.1945 32.742 36.2654 32.6003C36.2937 32.5153 36.322 32.4728 36.3645 32.3878C36.4779 32.1469 36.5062 31.651 36.3929 31.3818L36.0103 30.6026C35.9395 30.4609 35.8545 30.3759 35.7836 30.2342L35.3586 29.4691C35.2736 29.3274 35.1886 29.2708 35.1177 29.1149L34.9194 28.7182C34.8627 28.6474 34.8485 28.6615 34.7919 28.5624C34.7352 28.4632 34.7352 28.449 34.6927 28.3357C34.6502 28.2082 34.5368 28.109 34.4943 27.9815C34.4235 27.8114 34.466 27.9248 34.3668 27.8256C34.3102 27.7548 34.3102 27.6981 34.2676 27.6131C34.2251 27.5422 34.1968 27.5139 34.1543 27.4431C34.0976 27.3581 34.0976 27.3297 34.0551 27.2305C33.9984 27.1314 33.9843 27.1455 33.9276 27.0747C33.8426 26.933 33.8426 26.8197 33.7292 26.678L33.5026 26.3379C33.4175 26.1821 33.4034 26.1113 33.29 25.9554L32.9783 25.3603C32.9217 25.2612 32.9358 25.2612 32.865 25.1903L32.5533 24.6236C32.4683 24.4111 32.3974 24.4819 32.3266 24.2552C32.2841 24.1135 32.2274 24.156 32.0999 23.8727C32.0574 23.7735 31.8024 23.3909 31.689 23.1076C31.604 22.9517 31.5473 22.9801 31.4482 22.7392L31.349 22.5692C31.3065 22.5125 31.2781 22.4417 31.2356 22.3708C31.0231 22.1016 31.0798 22.045 30.9239 21.8324C30.8531 21.7474 30.8531 21.7333 30.8106 21.6341L30.5839 21.2657C30.4989 21.1098 30.3855 20.8123 30.2722 20.699C30.1872 20.5998 30.2155 20.6423 30.173 20.5148C30.1022 20.3873 30.0455 20.3448 29.9605 20.1322C29.9038 20.0047 29.8046 19.9481 29.7338 19.7639C29.6771 19.6222 29.5779 19.5372 29.5071 19.3955L28.9829 18.4745C28.8695 18.347 28.7278 18.0495 28.657 17.8937C28.5862 17.7378 28.5012 17.6811 28.4303 17.5253C28.3595 17.3553 28.1611 17.1144 28.0903 17.001C28.0478 16.9444 28.0194 16.831 28.0053 16.7602C27.9344 16.6043 27.8211 16.5618 27.7644 16.406C27.6369 16.0093 27.2118 15.4992 27.0135 15.1167C26.971 15.06 26.9568 14.975 26.9285 14.9041C26.9001 14.8333 26.5601 14.3516 26.4893 14.1532C26.4043 13.9407 26.3476 14.0115 26.2484 13.7849L25.5117 12.4814C25.3983 12.3539 25.2566 12.0705 25.1858 11.9005C25.1291 11.7871 25.1291 11.8296 25.0583 11.7446C25.0158 11.6596 25.0016 11.6029 24.9733 11.5179C24.9166 11.3621 24.8316 11.3621 24.7466 11.1496L24.4207 10.6112C24.3499 10.512 24.364 10.512 24.2365 10.4836C24.1515 10.597 24.1798 10.5828 24.1373 10.7245C24.0948 10.8378 24.0523 10.8095 23.9956 10.9229C23.939 11.0079 23.9248 11.0787 23.8965 11.1637L23.2447 12.2688C23.1455 12.3964 23.0747 12.5664 22.9755 12.6797C22.9047 12.7647 22.9047 12.8214 22.8764 12.9206C22.8055 13.1048 22.6922 13.1898 22.6213 13.374C22.5363 13.6007 22.1254 14.1249 21.9838 14.4933C21.9129 14.6349 21.8421 14.6633 21.7854 14.7908C21.7287 14.9325 21.6437 15.0033 21.587 15.1308C21.5304 15.2584 21.5587 15.2867 21.4595 15.3859C21.3887 15.4709 21.3745 15.485 21.3178 15.5842L21.1762 15.8109C21.1337 15.9101 21.1478 15.9384 21.077 16.0376C20.992 16.151 20.9778 16.1226 20.9353 16.2501C20.8503 16.491 20.6803 16.6893 20.5528 16.916L19.901 18.0212C19.8302 18.1203 19.8443 18.1487 19.7877 18.2479L19.2493 19.1263C19.1784 19.2113 19.1784 19.2821 19.1359 19.3813C19.0793 19.4947 19.0509 19.4805 18.9942 19.5797C18.8667 19.778 18.8242 20.0189 18.6117 20.2456L18.1016 21.1524C18.0875 21.1949 18.0733 21.209 18.045 21.2515C17.9175 21.4216 17.9458 21.4074 17.8608 21.5916C17.8041 21.7049 17.7758 21.6907 17.7191 21.7758C17.6483 21.8608 17.6483 21.9458 17.6058 22.0308C17.5349 22.13 17.5207 22.1158 17.4641 22.2433C17.3791 22.4558 17.3224 22.4275 17.209 22.6967C17.1524 22.8525 17.1382 22.81 17.0674 22.9234C17.0249 22.9801 16.9965 23.0792 16.954 23.1501L16.6706 23.5468C16.614 23.6318 16.614 23.7168 16.5715 23.816C16.5006 23.986 16.5006 23.9152 16.4298 24.0002C16.3731 24.0852 16.3731 24.1844 16.3306 24.2694C16.2456 24.4252 16.0756 24.5244 16.0756 24.7228Z" fill="white"/>
<path fill-rule="evenodd" clip-rule="evenodd" d="M8.45312 29.2282C8.73649 29.2566 9.00569 29.2849 9.30322 29.2566C9.43074 29.2566 9.43074 29.2424 9.55825 29.2282C9.75661 29.2282 9.86995 29.2849 10.0966 29.2566C10.6917 29.1857 17.2375 29.2282 18.0025 29.2282C21.0204 29.2282 24.0382 29.2424 27.0702 29.2282L28.0904 29.2566C28.3737 29.2566 28.9263 29.3274 29.1388 29.1857C29.323 29.0865 29.5072 28.9449 29.5497 28.7465C29.6205 28.5198 29.6205 28.2789 29.493 28.0806C29.3655 27.8681 29.4222 28.0098 29.2947 27.7122L28.9688 27.188C28.9263 27.1313 28.8979 27.0746 28.8696 27.0038C28.7846 26.8196 28.7279 26.848 28.6571 26.6496L28.3454 26.1112C28.2745 26.0262 28.2887 26.0404 28.232 25.9412C28.1612 25.7853 28.0904 25.7428 28.0337 25.5728C27.9345 25.3319 27.8778 25.3603 27.8212 25.2186C27.7787 25.1336 27.7928 25.1053 27.7503 25.0061C27.6936 24.9352 27.6795 24.9494 27.6228 24.8502C27.5803 24.7794 27.5661 24.7227 27.5378 24.6519C27.4953 24.581 27.4528 24.581 27.4103 24.496L26.9852 23.7876C26.9427 23.7026 26.9427 23.6601 26.9144 23.5751C26.8435 23.4334 26.8577 23.5326 26.7869 23.4192C26.7019 23.3059 26.6877 23.15 26.5885 23.0509C26.5035 22.9517 26.461 22.8242 26.376 22.6966C26.3193 22.6258 26.3051 22.5975 26.2768 22.5125C26.2201 22.4133 26.2201 22.4416 26.1493 22.3566C26.0785 22.2433 26.0501 22.1016 25.9651 21.9741L25.4267 21.0956C25.3275 20.8264 25.2992 20.8973 25.2284 20.7414C25.1717 20.6281 25.1434 20.5289 25.0725 20.4581C25.0017 20.3872 24.9875 20.2739 24.9308 20.1747C24.8742 20.033 24.9025 20.1322 24.8033 20.0188C24.7608 19.948 24.7608 19.8913 24.7183 19.8205C24.69 19.7496 24.6475 19.7213 24.605 19.6505C24.5625 19.5938 24.5483 19.523 24.5199 19.4521C24.4633 19.3529 24.3358 19.2113 24.2366 19.1829C24.1516 19.2963 24.2082 19.2396 24.1516 19.3813C24.1232 19.4805 24.1516 19.4238 24.1091 19.4805C24.0807 19.5371 24.0807 19.523 24.0524 19.5655C23.939 19.693 23.9674 19.8063 23.8399 19.948C23.7265 20.0755 23.7549 20.1605 23.6273 20.3022C23.5423 20.4156 23.174 21.2231 23.0039 21.4357C22.9473 21.5065 22.9331 21.4923 22.8764 21.5915C22.8481 21.6765 22.8198 21.7332 22.7914 21.8182C22.6639 22.0591 22.4655 22.0732 22.6781 22.4841C22.7206 22.5691 22.7631 22.5833 22.8198 22.6825L23.1881 23.3626C23.259 23.4476 23.2731 23.4759 23.3156 23.5751C23.4998 23.9435 23.7974 24.3118 23.9532 24.666C24.0099 24.8219 24.0666 24.8219 24.2082 25.1194C24.2649 25.2753 24.5766 25.6862 24.5766 25.7995V25.9412C24.5766 26.2104 23.7974 26.1395 23.4998 26.1395C22.5081 26.1395 15.5656 26.1112 15.2397 26.1537C15.013 26.1962 14.8572 26.1395 14.6305 26.1395C14.3755 26.1395 13.8654 26.2671 13.8654 25.9695C13.8654 25.7428 14.0496 25.6436 14.1204 25.4736L14.588 24.6519C14.6447 24.5244 14.7155 24.4677 14.7863 24.3402C14.9564 24.0001 15.1406 23.6601 15.3531 23.3626C15.4381 23.2492 15.4523 23.1359 15.5373 23.0225L15.7214 22.6966C15.9056 22.4416 15.7781 22.5833 15.8915 22.3566C15.9481 22.2291 16.019 22.2291 16.0898 22.0591L16.5432 21.2373C16.5999 21.124 16.5857 21.1665 16.6566 21.0815C16.7841 20.9398 16.6991 20.8123 16.8974 20.7981C16.9116 20.6422 16.9824 20.4864 17.0533 20.3872C17.1808 20.2455 17.1666 20.1464 17.2658 20.033C17.4075 19.8913 17.3791 19.8063 17.4783 19.6646C17.535 19.5938 17.5633 19.5938 17.6058 19.5088C17.6342 19.4238 17.62 19.3813 17.6767 19.2963C17.7192 19.2113 17.7475 19.2538 17.79 19.1404C17.96 18.7579 17.8609 18.9987 18.0025 18.7862C18.0309 18.7154 18.0592 18.6587 18.0876 18.5878C18.2009 18.3895 18.1301 18.602 18.3001 18.2195L18.6118 17.6952C18.6826 17.6102 18.6685 17.5961 18.711 17.5111C18.7818 17.3269 18.7818 17.4969 18.9235 17.1427C18.9518 17.086 18.9376 17.1002 18.966 17.0577C18.9943 17.0152 19.0085 17.0152 19.0368 16.9868C19.1077 16.8877 19.0935 16.9018 19.136 16.8026C19.2635 16.5051 20.0144 15.3575 20.1703 14.9891C20.2553 14.7908 20.3261 14.8191 20.397 14.6632C20.4253 14.5782 20.4395 14.5216 20.482 14.4507C20.5245 14.394 20.567 14.3657 20.5953 14.2949C20.6945 14.1248 20.652 14.0965 20.7937 13.9265C20.8504 13.8698 21.0912 13.3456 21.2046 13.2039C21.2896 13.1189 21.2612 13.1331 21.3037 13.0197C21.3463 12.9347 21.3604 12.9064 21.4171 12.8355L21.8421 12.1271C21.913 12.0563 21.9555 11.8721 22.0405 11.7729L22.1397 11.5887C22.2105 11.447 22.2955 11.3762 22.3664 11.2345C22.423 11.0928 22.4939 11.022 22.5647 10.8803L22.7631 10.5119C22.8906 10.3136 22.9048 10.2002 23.0748 9.97354C23.1173 9.9027 23.1456 9.88853 23.2023 9.81769C23.2873 9.67601 23.2731 9.56266 23.3865 9.43514C23.5423 9.26512 23.514 9.02426 23.4148 8.84008C23.3581 8.72673 23.3865 8.7834 23.3298 8.72673C22.9331 8.27335 23.259 8.44337 22.6214 8.04665C22.5081 7.96164 22.5222 7.94748 22.3522 7.90497C22.1113 7.83413 21.6863 7.76329 21.4029 7.8483C21.0346 7.96164 20.652 8.14583 20.4253 8.4717C20.3686 8.55671 20.3403 8.57088 20.2978 8.64172L20.0144 9.15178C19.9578 9.25096 19.9861 9.13761 19.8869 9.30763C19.8019 9.44931 19.8161 9.54849 19.7027 9.66184C19.6177 9.76101 19.5894 9.9027 19.5185 10.0019L19.306 10.3419C19.2635 10.4128 19.2493 10.4411 19.221 10.5119L18.6259 11.5179C18.5693 11.5887 18.5693 11.6171 18.5268 11.7162C18.4701 11.8438 18.1584 12.2971 18.1301 12.3821C18.045 12.5947 17.9742 12.5663 17.9034 12.7364C17.8042 12.9489 17.8042 12.9064 17.705 13.0764C17.6767 13.1331 17.6625 13.1897 17.6342 13.2464L17.4358 13.6006C17.3791 13.714 17.3791 13.6715 17.3083 13.7565C17.2516 13.8415 17.2658 13.8273 17.2375 13.9265C17.195 14.054 17.1808 14.0115 17.1241 14.0965C17.0249 14.2099 17.0249 14.3374 16.9399 14.4649C16.7982 14.6916 16.6566 14.8899 16.5432 15.145L16.0473 15.9809C15.9623 16.0801 16.0048 16.0092 15.934 16.1509C15.8773 16.2926 15.7923 16.3493 15.7356 16.4909C15.6364 16.7318 15.6789 16.6468 15.5514 16.831L15.2681 17.3552C15.2114 17.4686 15.2114 17.4261 15.1547 17.5111C15.1122 17.5677 15.098 17.6102 15.0697 17.6811C15.013 17.7944 15.013 17.7661 14.9564 17.8511C14.8572 17.9644 14.843 18.1061 14.7438 18.2195C14.7013 18.2761 14.673 18.3045 14.6447 18.3753C14.6022 18.4462 14.6022 18.4887 14.5597 18.5595C14.4888 18.6729 14.4463 18.8145 14.3613 18.9137C14.2479 19.0554 14.1629 19.2538 14.0638 19.3954C14.0213 19.4521 13.9929 19.5088 13.9504 19.5796C13.8796 19.7071 13.8087 19.778 13.7662 19.9197L13.2845 20.7698C13.2278 20.8689 13.1995 20.8548 13.157 20.9398C13.0862 21.0531 13.072 21.1806 12.9728 21.294L12.7744 21.634C12.6328 21.8324 12.5194 22.1157 12.3919 22.3141C12.3494 22.3991 12.3211 22.3849 12.2786 22.47C12.2219 22.5975 12.2786 22.5408 12.1935 22.6541C12.0944 22.7675 12.0802 22.895 11.9952 23.0083C11.9669 23.065 11.9102 23.0792 11.8818 23.1359L11.1026 24.5527C11.0601 24.6235 11.0459 24.6094 10.9892 24.7085L10.7059 25.2328C10.6634 25.3036 10.635 25.3319 10.5925 25.3886C10.5075 25.5161 10.4934 25.6436 10.4083 25.757L10.21 26.0829C10.0541 26.2529 10.1108 26.2954 9.99747 26.4371L9.68576 26.933C9.57242 27.2022 9.61492 27.0746 9.48741 27.2588C9.4449 27.3297 9.4449 27.3863 9.4024 27.4714C9.38823 27.5139 9.07653 27.9672 9.00569 28.1373L8.60898 28.8315C8.46729 29.044 8.52397 29.0865 8.45312 29.2282Z" fill="white"/>
</svg>
