<svg width="8" height="8" viewBox="0 0 8 8" fill="none" xmlns="http://www.w3.org/2000/svg">
<path d="M2.20386 0.778503V1.6391M6.21997 0.778503V1.6391M0.769531 6.80267V2.49969C0.769531 2.27145 0.860201 2.05255 1.02159 1.89116C1.18299 1.72977 1.40188 1.6391 1.63013 1.6391H6.7937C7.02194 1.6391 7.24084 1.72977 7.40223 1.89116C7.56363 2.05255 7.6543 2.27145 7.6543 2.49969V6.80267M0.769531 6.80267C0.769531 7.03092 0.860201 7.24981 1.02159 7.4112C1.18299 7.5726 1.40188 7.66327 1.63013 7.66327H6.7937C7.02194 7.66327 7.24084 7.5726 7.40223 7.4112C7.56363 7.24981 7.6543 7.03092 7.6543 6.80267M0.769531 6.80267V3.93402C0.769531 3.70578 0.860201 3.48688 1.02159 3.32549C1.18299 3.16409 1.40188 3.07342 1.63013 3.07342H6.7937C7.02194 3.07342 7.24084 3.16409 7.40223 3.32549C7.56363 3.48688 7.6543 3.70578 7.6543 3.93402V6.80267M4.21191 4.50775H4.21497V4.51081H4.21191V4.50775ZM4.21191 5.36835H4.21497V5.37141H4.21191V5.36835ZM4.21191 6.22894H4.21497V6.232H4.21191V6.22894ZM3.35132 5.36835H3.35438V5.37141H3.35132V5.36835ZM3.35132 6.22894H3.35438V6.232H3.35132V6.22894ZM2.49072 5.36835H2.49378V5.37141H2.49072V5.36835ZM2.49072 6.22894H2.49378V6.232H2.49072V6.22894ZM5.07251 4.50775H5.07557V4.51081H5.07251V4.50775ZM5.07251 5.36835H5.07557V5.37141H5.07251V5.36835ZM5.07251 6.22894H5.07557V6.232H5.07251V6.22894ZM5.9331 4.50775H5.93616V4.51081H5.9331V4.50775ZM5.9331 5.36835H5.93616V5.37141H5.9331V5.36835Z" stroke="#005050" stroke-width="0.57373" stroke-linecap="round" stroke-linejoin="round"/>
</svg>
