<svg width="9" height="10" viewBox="0 0 9 10" fill="none" xmlns="http://www.w3.org/2000/svg">
<path d="M8.06836 3.03699C8.06836 4.00341 6.50121 4.78699 4.56836 4.78699C2.63551 4.78699 1.06836 4.00341 1.06836 3.03699M8.06836 3.03699C8.06836 2.07056 6.50121 1.28699 4.56836 1.28699C2.63551 1.28699 1.06836 2.07056 1.06836 3.03699M8.06836 3.03699V7.80972C8.06836 8.77615 6.50121 9.55972 4.56836 9.55972C2.63551 9.55972 1.06836 8.77615 1.06836 7.80972V3.03699M8.06836 3.03699V4.6279M1.06836 3.03699V4.6279M8.06836 4.6279V6.21881C8.06836 7.18523 6.50121 7.96881 4.56836 7.96881C2.63551 7.96881 1.06836 7.18523 1.06836 6.21881V4.6279M8.06836 4.6279C8.06836 5.59432 6.50121 6.3779 4.56836 6.3779C2.63551 6.3779 1.06836 5.59432 1.06836 4.6279" stroke="#005050" stroke-width="0.67742" stroke-linecap="round" stroke-linejoin="round"/>
</svg>
