<svg width="9" height="9" viewBox="0 0 9 9" fill="none" xmlns="http://www.w3.org/2000/svg">
<path d="M8.03249 5.14851V6.9822C8.03249 7.45421 7.69293 7.86064 7.2248 7.92277C6.32435 8.04228 5.40578 8.10398 4.47297 8.10398C3.54017 8.10398 2.6216 8.04228 1.72115 7.92277C1.25302 7.86064 0.91346 7.45421 0.91346 6.9822V5.14851M8.03249 5.14851C8.13494 5.05947 8.21691 4.94932 8.27277 4.82562C8.32862 4.70191 8.35705 4.56759 8.35608 4.43186V2.79966C8.35608 2.33325 8.02472 1.93027 7.5635 1.86124C7.07479 1.78807 6.58362 1.73238 6.09094 1.69427M8.03249 5.14851C7.94879 5.2197 7.85128 5.27579 7.74212 5.31246C6.68773 5.6623 5.58388 5.84004 4.47297 5.83884C3.33048 5.83884 2.23156 5.65374 1.20383 5.31246C1.09737 5.27705 0.99877 5.22137 0.91346 5.14851M0.91346 5.14851C0.811008 5.05947 0.729039 4.94932 0.673181 4.82562C0.617324 4.70191 0.588902 4.56759 0.589868 4.43186V2.79966C0.589868 2.33325 0.921226 1.93027 1.38245 1.86124C1.87116 1.78807 2.36233 1.73238 2.85501 1.69427M6.09094 1.69427V1.30855C6.09094 1.05108 5.98866 0.804158 5.8066 0.622102C5.62455 0.440047 5.37762 0.337769 5.12016 0.337769H3.82579C3.56832 0.337769 3.3214 0.440047 3.13935 0.622102C2.95729 0.804158 2.85501 1.05108 2.85501 1.30855V1.69427M6.09094 1.69427C5.0139 1.61103 3.93205 1.61103 2.85501 1.69427M4.47297 4.54447H4.47643V4.54792H4.47297V4.54447Z" stroke="#005050" stroke-width="0.647184" stroke-linecap="round" stroke-linejoin="round"/>
</svg>
