<svg width="7" height="8" viewBox="0 0 7 8" fill="none" xmlns="http://www.w3.org/2000/svg">
<path d="M4.89152 2.16604C4.89152 2.50665 4.75622 2.83331 4.51537 3.07416C4.27452 3.315 3.94786 3.45031 3.60725 3.45031C3.26665 3.45031 2.93999 3.315 2.69914 3.07416C2.45829 2.83331 2.32299 2.50665 2.32299 2.16604C2.32299 1.82543 2.45829 1.49877 2.69914 1.25793C2.93999 1.01708 3.26665 0.881775 3.60725 0.881775C3.94786 0.881775 4.27452 1.01708 4.51537 1.25793C4.75622 1.49877 4.89152 1.82543 4.89152 2.16604ZM1.03906 7.00105C1.05007 6.32719 1.32548 5.68465 1.80592 5.212C2.28635 4.73935 2.9333 4.47446 3.60725 4.47446C4.28121 4.47446 4.92816 4.73935 5.40859 5.212C5.88903 5.68465 6.16444 6.32719 6.17545 7.00105C5.36975 7.3705 4.49362 7.56117 3.60725 7.55997C2.6908 7.55997 1.82092 7.35996 1.03906 7.00105Z" stroke="#005050" stroke-width="0.581133" stroke-linecap="round" stroke-linejoin="round"/>
</svg>
