<svg width="273" height="160" viewBox="0 0 273 160" fill="none" xmlns="http://www.w3.org/2000/svg">
<rect x="0.217047" y="0.816534" width="272.499" height="158.966" rx="9.95129" fill="#FCFFFF"/>
<rect x="0.217047" y="0.816534" width="272.499" height="158.966" rx="9.95129" stroke="#ECEEEE" stroke-width="0.434093"/>
<path d="M12.4301 22.7092H14.2415V23.5347H11.3524V18.1387H12.4301V22.7092ZM14.7605 18.0852C14.7605 17.912 14.8217 17.7719 14.944 17.6649C15.0663 17.5528 15.2268 17.4967 15.4255 17.4967C15.6242 17.4967 15.7847 17.5528 15.907 17.6649C16.0293 17.7719 16.0904 17.912 16.0904 18.0852C16.0904 18.2534 16.0293 18.3935 15.907 18.5056C15.7847 18.6126 15.6242 18.6661 15.4255 18.6661C15.2268 18.6661 15.0663 18.6126 14.944 18.5056C14.8217 18.3935 14.7605 18.2534 14.7605 18.0852ZM15.9605 19.3005V23.5347H14.8828V19.3005H15.9605ZM18.7774 22.457L19.8474 19.3005H20.9938L19.427 23.5347H18.1124L16.5456 19.3005H17.6997L18.7774 22.457ZM25.5748 21.2571C25.5748 21.3641 25.5621 21.4863 25.5366 21.6239H22.4336C22.4489 22.001 22.5508 22.2787 22.7393 22.457C22.9278 22.6353 23.1622 22.7245 23.4424 22.7245C23.6921 22.7245 23.8985 22.6634 24.0615 22.5411C24.2297 22.4188 24.3367 22.2532 24.3825 22.0443H25.5213C25.4653 22.3398 25.3455 22.6048 25.1621 22.8392C24.9787 23.0735 24.7417 23.257 24.4513 23.3895C24.166 23.5219 23.8475 23.5882 23.4959 23.5882C23.0832 23.5882 22.7164 23.5015 22.3953 23.3283C22.0743 23.15 21.8247 22.8978 21.6463 22.5717C21.468 22.2456 21.3788 21.8609 21.3788 21.4176C21.3788 20.9743 21.468 20.5896 21.6463 20.2635C21.8247 19.9323 22.0743 19.6801 22.3953 19.5068C22.7164 19.3336 23.0832 19.247 23.4959 19.247C23.9138 19.247 24.2781 19.3336 24.5889 19.5068C24.9048 19.6801 25.1468 19.9195 25.315 20.2253C25.4882 20.5259 25.5748 20.8698 25.5748 21.2571ZM24.4895 21.1501C24.5048 20.8036 24.4131 20.5412 24.2144 20.3628C24.0208 20.1845 23.7813 20.0953 23.4959 20.0953C23.2055 20.0953 22.9609 20.1845 22.7622 20.3628C22.5635 20.5412 22.4539 20.8036 22.4336 21.1501H24.4895ZM29.0819 18.1387V23.5347H28.0043V18.1387H29.0819ZM32.579 19.2393C33.0682 19.2393 33.458 19.3998 33.7484 19.7208C34.0388 20.0418 34.1841 20.4928 34.1841 21.0736V23.5347H33.114V21.1959C33.114 20.8596 33.0274 20.5998 32.8542 20.4163C32.6809 20.2278 32.444 20.1335 32.1434 20.1335C31.8377 20.1335 31.5931 20.2329 31.4097 20.4316C31.2262 20.6303 31.1345 20.9157 31.1345 21.2876V23.5347H30.0568V19.3005H31.1345V20.1488C31.2466 19.8635 31.43 19.6418 31.6848 19.4839C31.9447 19.3208 32.2427 19.2393 32.579 19.2393ZM37.3946 22.6099V23.5347H36.829C36.3551 23.5347 35.9908 23.42 35.7361 23.1907C35.4864 22.9614 35.3616 22.5793 35.3616 22.0443V20.21H34.773V19.3005H35.3616V18.2534H36.4392V19.3005H37.3869V20.21H36.4392V22.0596C36.4392 22.2634 36.48 22.4061 36.5615 22.4876C36.643 22.5691 36.7806 22.6099 36.9742 22.6099H37.3946ZM42.152 21.2571C42.152 21.3641 42.1393 21.4863 42.1138 21.6239H39.0108C39.0261 22.001 39.128 22.2787 39.3165 22.457C39.505 22.6353 39.7394 22.7245 40.0197 22.7245C40.2693 22.7245 40.4757 22.6634 40.6387 22.5411C40.8069 22.4188 40.9139 22.2532 40.9597 22.0443H42.0985C42.0425 22.3398 41.9228 22.6048 41.7393 22.8392C41.5559 23.0735 41.319 23.257 41.0285 23.3895C40.7432 23.5219 40.4247 23.5882 40.0732 23.5882C39.6604 23.5882 39.2936 23.5015 38.9726 23.3283C38.6516 23.15 38.4019 22.8978 38.2236 22.5717C38.0452 22.2456 37.956 21.8609 37.956 21.4176C37.956 20.9743 38.0452 20.5896 38.2236 20.2635C38.4019 19.9323 38.6516 19.6801 38.9726 19.5068C39.2936 19.3336 39.6604 19.247 40.0732 19.247C40.491 19.247 40.8553 19.3336 41.1661 19.5068C41.482 19.6801 41.724 19.9195 41.8922 20.2253C42.0654 20.5259 42.152 20.8698 42.152 21.2571ZM41.0667 21.1501C41.082 20.8036 40.9903 20.5412 40.7916 20.3628C40.598 20.1845 40.3585 20.0953 40.0732 20.0953C39.7827 20.0953 39.5381 20.1845 39.3394 20.3628C39.1407 20.5412 39.0312 20.8036 39.0108 21.1501H41.0667ZM45.4392 19.2393C45.9284 19.2393 46.3182 19.3998 46.6086 19.7208C46.8991 20.0418 47.0443 20.4928 47.0443 21.0736V23.5347H45.9743V21.1959C45.9743 20.8596 45.8876 20.5998 45.7144 20.4163C45.5412 20.2278 45.3042 20.1335 45.0036 20.1335C44.6979 20.1335 44.4533 20.2329 44.2699 20.4316C44.0864 20.6303 43.9947 20.9157 43.9947 21.2876V23.5347H42.9171V19.3005H43.9947V20.1488C44.1068 19.8635 44.2903 19.6418 44.545 19.4839C44.8049 19.3208 45.103 19.2393 45.4392 19.2393ZM50.2548 22.6099V23.5347H49.6892C49.2154 23.5347 48.851 23.42 48.5963 23.1907C48.3466 22.9614 48.2218 22.5793 48.2218 22.0443V20.21H47.6333V19.3005H48.2218V18.2534H49.2994V19.3005H50.2472V20.21H49.2994V22.0596C49.2994 22.2634 49.3402 22.4061 49.4217 22.4876C49.5032 22.5691 49.6408 22.6099 49.8344 22.6099H50.2548Z" fill="#424243"/>
<path d="M38.5893 138.084V141.129C38.5893 141.544 38.4731 141.868 38.2408 142.101C38.0125 142.329 37.6945 142.443 37.2869 142.443C36.8467 142.443 36.4982 142.317 36.2414 142.064C35.9846 141.811 35.8562 141.451 35.8562 140.982H36.7061C36.7061 141.202 36.7509 141.371 36.8406 141.489C36.9343 141.608 37.0709 141.667 37.2502 141.667C37.4133 141.667 37.5335 141.62 37.611 141.526C37.6884 141.428 37.7272 141.296 37.7272 141.129V138.084H38.5893ZM41.9731 141.532H40.2427L39.937 142.4H39.0259L40.6157 138.133H41.6001L43.1837 142.4H42.2727L41.9731 141.532ZM41.7407 140.878L41.1048 139.056L40.4689 140.878H41.7407ZM47.3054 142.4H46.4433L44.5112 139.466V142.4H43.649V138.084H44.5112L46.4433 141.043V138.084H47.3054V142.4Z" fill="#8A8686"/>
<path d="M16.2864 126.427C16.0418 126.036 15.9195 125.496 15.9195 124.807C15.9195 124.122 16.0418 123.586 16.2864 123.199C16.5309 122.812 16.9386 122.618 17.5093 122.618C18.0799 122.618 18.4876 122.814 18.7321 123.205C18.9767 123.592 19.099 124.126 19.099 124.807C19.099 125.492 18.9767 126.03 18.7321 126.421C18.4876 126.813 18.0799 127.008 17.5093 127.008C16.9386 127.008 16.5309 126.815 16.2864 126.427ZM18.2185 125.951C18.3408 125.686 18.402 125.304 18.402 124.807C18.402 124.318 18.3408 123.943 18.2185 123.682C18.0962 123.417 17.8598 123.285 17.5093 123.285C17.1546 123.285 16.9162 123.415 16.7939 123.676C16.6716 123.937 16.6104 124.314 16.6104 124.807C16.6104 125.304 16.6716 125.686 16.7939 125.951C16.9162 126.215 17.1546 126.348 17.5093 126.348C17.8598 126.348 18.0962 126.215 18.2185 125.951Z" fill="#8A8686"/>
<path d="M11.6977 111.64C12.3581 111.187 12.8859 110.745 13.2813 110.313C13.6808 109.877 13.8805 109.473 13.8805 109.102C13.8805 108.882 13.8255 108.707 13.7154 108.576C13.6095 108.446 13.4362 108.381 13.1957 108.381C12.9471 108.381 12.7596 108.462 12.6332 108.625C12.5068 108.784 12.4355 109.012 12.4192 109.31H11.7405C11.769 108.817 11.9199 108.44 12.193 108.179C12.4702 107.918 12.8227 107.788 13.2508 107.788C13.6706 107.788 13.9987 107.9 14.2352 108.124C14.4757 108.344 14.5959 108.65 14.5959 109.041C14.5959 109.355 14.4981 109.673 14.3024 109.995C14.1108 110.317 13.8663 110.614 13.5687 110.888C13.2711 111.157 12.9634 111.389 12.6454 111.585H14.6938V112.153H11.6977V111.64ZM15.6071 111.615C15.3626 111.224 15.2403 110.684 15.2403 109.995C15.2403 109.31 15.3626 108.774 15.6071 108.387C15.8517 107.999 16.2593 107.806 16.83 107.806C17.4007 107.806 17.8083 108.002 18.0529 108.393C18.2975 108.78 18.4198 109.314 18.4198 109.995C18.4198 110.68 18.2975 111.218 18.0529 111.609C17.8083 112 17.4007 112.196 16.83 112.196C16.2593 112.196 15.8517 112.002 15.6071 111.615ZM17.5393 111.138C17.6616 110.873 17.7227 110.492 17.7227 109.995C17.7227 109.506 17.6616 109.131 17.5393 108.87C17.417 108.605 17.1806 108.472 16.83 108.472C16.4754 108.472 16.2369 108.603 16.1146 108.864C15.9923 109.125 15.9312 109.502 15.9312 109.995C15.9312 110.492 15.9923 110.873 16.1146 111.138C16.2369 111.403 16.4754 111.536 16.83 111.536C17.1806 111.536 17.417 111.403 17.5393 111.138Z" fill="#8A8686"/>
<path d="M11.0773 95.2577V94.6707L13.2234 91.8336H13.9694V94.6462H14.5747V95.2577H13.9694V96.1871H13.2662V95.2577H11.0773ZM13.3152 92.6652L11.7988 94.6462H13.3152V92.6652ZM15.4293 95.6184C15.1847 95.2271 15.0624 94.687 15.0624 93.9981C15.0624 93.3133 15.1847 92.7773 15.4293 92.39C15.6739 92.0028 16.0815 91.8092 16.6522 91.8092C17.2228 91.8092 17.6305 92.0048 17.8751 92.3962C18.1196 92.7834 18.2419 93.3174 18.2419 93.9981C18.2419 94.6829 18.1196 95.221 17.8751 95.6123C17.6305 96.0036 17.2228 96.1993 16.6522 96.1993C16.0815 96.1993 15.6739 96.0057 15.4293 95.6184ZM17.3614 95.1415C17.4837 94.8766 17.5449 94.4954 17.5449 93.9981C17.5449 93.509 17.4837 93.134 17.3614 92.8731C17.2392 92.6081 17.0027 92.4756 16.6522 92.4756C16.2975 92.4756 16.0591 92.6061 15.9368 92.867C15.8145 93.1278 15.7534 93.5049 15.7534 93.9981C15.7534 94.4954 15.8145 94.8766 15.9368 95.1415C16.0591 95.4065 16.2975 95.5389 16.6522 95.5389C17.0027 95.5389 17.2392 95.4065 17.3614 95.1415Z" fill="#8A8686"/>
<path d="M14.1373 77.6276C14.064 77.1466 13.8133 76.9061 13.3853 76.9061C13.0755 76.9061 12.8431 77.0305 12.6882 77.2791C12.5333 77.5237 12.4559 77.9089 12.4559 78.4347L12.462 78.6426C12.5231 78.4225 12.6556 78.2472 12.8594 78.1168C13.0632 77.9863 13.3037 77.9211 13.5809 77.9211C14.0049 77.9211 14.3371 78.0475 14.5776 78.3002C14.8181 78.5529 14.9383 78.9096 14.9383 79.3702C14.9383 79.6474 14.8833 79.8961 14.7732 80.1162C14.6632 80.3322 14.4981 80.5055 14.278 80.6359C14.0579 80.7623 13.7868 80.8255 13.4648 80.8255C12.8411 80.8255 12.4131 80.6318 12.1807 80.2446C11.9484 79.8573 11.8322 79.3254 11.8322 78.6487C11.8322 77.8742 11.9565 77.2954 12.2052 76.9122C12.4538 76.5291 12.8615 76.3375 13.4281 76.3375C13.852 76.3375 14.1761 76.4577 14.4003 76.6982C14.6285 76.9387 14.761 77.2485 14.7977 77.6276H14.1373ZM12.5231 79.2907C12.5231 79.5557 12.6006 79.7779 12.7555 79.9572C12.9104 80.1325 13.1387 80.2201 13.4403 80.2201C13.6971 80.2201 13.9009 80.1447 14.0517 79.9939C14.2066 79.8431 14.2841 79.6331 14.2841 79.3641C14.2841 79.0747 14.2066 78.8525 14.0517 78.6976C13.8968 78.5427 13.6869 78.4653 13.422 78.4653C13.1815 78.4653 12.9715 78.5366 12.7922 78.6793C12.6128 78.822 12.5231 79.0258 12.5231 79.2907ZM15.9475 80.214C15.7029 79.8227 15.5806 79.2826 15.5806 78.5937C15.5806 77.9089 15.7029 77.3729 15.9475 76.9856C16.1921 76.5984 16.5997 76.4048 17.1704 76.4048C17.741 76.4048 18.1487 76.6004 18.3932 76.9917C18.6378 77.379 18.7601 77.913 18.7601 78.5937C18.7601 79.2785 18.6378 79.8166 18.3932 80.2079C18.1487 80.5992 17.741 80.7949 17.1704 80.7949C16.5997 80.7949 16.1921 80.6013 15.9475 80.214ZM17.8796 79.7371C18.0019 79.4721 18.0631 79.091 18.0631 78.5937C18.0631 78.1046 18.0019 77.7295 17.8796 77.4687C17.7573 77.2037 17.5209 77.0712 17.1704 77.0712C16.8157 77.0712 16.5773 77.2017 16.455 77.4625C16.3327 77.7234 16.2715 78.1005 16.2715 78.5937C16.2715 79.091 16.3327 79.4721 16.455 79.7371C16.5773 80.0021 16.8157 80.1345 17.1704 80.1345C17.5209 80.1345 17.7573 80.0021 17.8796 79.7371Z" fill="#8A8686"/>
<path d="M11.2913 62.6567C11.2913 62.4447 11.3484 62.2511 11.4625 62.0758C11.5766 61.9006 11.7458 61.7599 11.97 61.6539C12.1983 61.548 12.4714 61.495 12.7893 61.495C13.1073 61.495 13.3783 61.548 13.6025 61.6539C13.8308 61.7599 14.002 61.9006 14.1161 62.0758C14.2343 62.2511 14.2935 62.4447 14.2935 62.6567C14.2935 62.8931 14.2303 63.0969 14.1039 63.2681C13.9816 63.4393 13.7982 63.5637 13.5536 63.6411C13.8267 63.7267 14.0366 63.8653 14.1834 64.0569C14.3301 64.2444 14.4035 64.4747 14.4035 64.7478C14.4035 65.1677 14.2547 65.4958 13.9572 65.7322C13.6596 65.9646 13.2703 66.0808 12.7893 66.0808C12.3083 66.0808 11.919 65.9646 11.6215 65.7322C11.328 65.4958 11.1812 65.1677 11.1812 64.7478C11.1812 64.4747 11.2546 64.2444 11.4013 64.0569C11.5481 63.8653 11.758 63.7267 12.0311 63.6411C11.7866 63.5637 11.6011 63.4393 11.4747 63.2681C11.3524 63.0969 11.2913 62.8931 11.2913 62.6567ZM11.9822 62.7668C11.9822 62.9869 12.0535 63.1581 12.1962 63.2804C12.343 63.3986 12.5407 63.4577 12.7893 63.4577C13.038 63.4577 13.2357 63.3986 13.3824 63.2804C13.5292 63.1581 13.6025 62.9869 13.6025 62.7668C13.6025 62.5466 13.5271 62.3754 13.3763 62.2532C13.2295 62.1309 13.0339 62.0697 12.7893 62.0697C12.5447 62.0697 12.3491 62.1309 12.2023 62.2532C12.0556 62.3754 11.9822 62.5466 11.9822 62.7668ZM11.8599 64.7111C11.8599 64.9598 11.9435 65.1555 12.1106 65.2981C12.2777 65.4367 12.504 65.506 12.7893 65.506C13.0747 65.506 13.3009 65.4367 13.468 65.2981C13.6351 65.1555 13.7187 64.9598 13.7187 64.7111C13.7187 64.4584 13.6311 64.2689 13.4558 64.1425C13.2846 64.0121 13.0624 63.9468 12.7893 63.9468C12.5203 63.9468 12.2981 64.0121 12.1228 64.1425C11.9476 64.2729 11.8599 64.4625 11.8599 64.7111ZM15.4054 65.4021C15.1608 65.0107 15.0385 64.4706 15.0385 63.7818C15.0385 63.0969 15.1608 62.5609 15.4054 62.1737C15.65 61.7864 16.0576 61.5928 16.6283 61.5928C17.199 61.5928 17.6066 61.7885 17.8512 62.1798C18.0957 62.567 18.218 63.101 18.218 63.7818C18.218 64.4666 18.0957 65.0046 17.8512 65.396C17.6066 65.7873 17.199 65.9829 16.6283 65.9829C16.0576 65.9829 15.65 65.7893 15.4054 65.4021ZM17.3376 64.9251C17.4598 64.6602 17.521 64.2791 17.521 63.7818C17.521 63.2926 17.4598 62.9176 17.3376 62.6567C17.2153 62.3917 16.9788 62.2593 16.6283 62.2593C16.2737 62.2593 16.0352 62.3897 15.9129 62.6506C15.7906 62.9115 15.7295 63.2885 15.7295 63.7818C15.7295 64.2791 15.7906 64.6602 15.9129 64.9251C16.0352 65.1901 16.2737 65.3226 16.6283 65.3226C16.9788 65.3226 17.2153 65.1901 17.3376 64.9251Z" fill="#8A8686"/>
<path d="M8.57167 47.4961V46.8418H9.95353V51.1586H9.2198V47.4961H8.57167ZM11.0519 50.5899C10.8073 50.1986 10.6851 49.6585 10.6851 48.9696C10.6851 48.2848 10.8073 47.7488 11.0519 47.3615C11.2965 46.9743 11.7041 46.7807 12.2748 46.7807C12.8455 46.7807 13.2531 46.9763 13.4977 47.3676C13.7422 47.7549 13.8645 48.2889 13.8645 48.9696C13.8645 49.6544 13.7422 50.1925 13.4977 50.5838C13.2531 50.9751 12.8455 51.1708 12.2748 51.1708C11.7041 51.1708 11.2965 50.9772 11.0519 50.5899ZM12.9841 50.113C13.1064 49.8481 13.1675 49.4669 13.1675 48.9696C13.1675 48.4805 13.1064 48.1055 12.9841 47.8446C12.8618 47.5796 12.6254 47.4471 12.2748 47.4471C11.9202 47.4471 11.6817 47.5776 11.5594 47.8385C11.4371 48.0993 11.376 48.4764 11.376 48.9696C11.376 49.4669 11.4371 49.8481 11.5594 50.113C11.6817 50.378 11.9202 50.5104 12.2748 50.5104C12.6254 50.5104 12.8618 50.378 12.9841 50.113ZM14.8615 50.5899C14.6169 50.1986 14.4946 49.6585 14.4946 48.9696C14.4946 48.2848 14.6169 47.7488 14.8615 47.3615C15.106 46.9743 15.5137 46.7807 16.0843 46.7807C16.655 46.7807 17.0626 46.9763 17.3072 47.3676C17.5518 47.7549 17.6741 48.2889 17.6741 48.9696C17.6741 49.6544 17.5518 50.1925 17.3072 50.5838C17.0626 50.9751 16.655 51.1708 16.0843 51.1708C15.5137 51.1708 15.106 50.9772 14.8615 50.5899ZM16.7936 50.113C16.9159 49.8481 16.977 49.4669 16.977 48.9696C16.977 48.4805 16.9159 48.1055 16.7936 47.8446C16.6713 47.5796 16.4349 47.4471 16.0843 47.4471C15.7297 47.4471 15.4913 47.5776 15.369 47.8385C15.2467 48.0993 15.1855 48.4764 15.1855 48.9696C15.1855 49.4669 15.2467 49.8481 15.369 50.113C15.4913 50.378 15.7297 50.5104 16.0843 50.5104C16.4349 50.5104 16.6713 50.378 16.7936 50.113Z" fill="#8A8686"/>
<path d="M74.3643 138.084V138.769H72.5484V139.924H74.0036V140.584H72.5484V142.4H71.6862V138.084H74.3643ZM75.8086 138.769V139.887H77.3372V140.548H75.8086V141.71H77.5206V142.4H74.9465V138.084H77.5206V138.769H75.8086ZM80.568 140.175C80.8288 140.228 81.0367 140.352 81.1916 140.548C81.3506 140.739 81.4301 140.966 81.4301 141.226C81.4301 141.589 81.3078 141.877 81.0632 142.089C80.8227 142.297 80.4722 142.4 80.0116 142.4H78.1589V138.084H79.9749C80.411 138.084 80.7453 138.179 80.9776 138.371C81.2141 138.563 81.3323 138.832 81.3323 139.178C81.3323 139.447 81.2609 139.667 81.1183 139.839C80.9797 140.01 80.7962 140.122 80.568 140.175ZM79.021 139.894H79.7976C80.0136 139.894 80.1766 139.847 80.2867 139.753C80.4008 139.655 80.4579 139.516 80.4579 139.337C80.4579 139.158 80.4029 139.019 80.2928 138.921C80.1828 138.824 80.0136 138.775 79.7853 138.775H79.021V139.894ZM79.8404 141.697C80.0686 141.697 80.2439 141.648 80.3662 141.551C80.4885 141.449 80.5496 141.302 80.5496 141.11C80.5496 140.919 80.4864 140.772 80.3601 140.67C80.2378 140.564 80.0625 140.511 79.8342 140.511H79.021V141.697H79.8404Z" fill="#8A8686"/>
<path d="M116.035 138.133V142.4H115.179V139.423L114.084 142.4H113.338L112.244 139.435V142.4H111.382V138.133H112.427L113.723 141.343L114.995 138.133H116.035ZM119.444 141.532H117.714L117.408 142.4H116.497L118.087 138.133H119.071L120.655 142.4H119.744L119.444 141.532ZM119.212 140.878L118.576 139.056L117.94 140.878H119.212ZM123.37 142.4L122.362 140.719H121.983V142.4H121.12V138.084H122.765C123.267 138.084 123.648 138.206 123.909 138.451C124.174 138.695 124.306 139.017 124.306 139.417C124.306 139.743 124.214 140.016 124.031 140.236C123.851 140.456 123.591 140.603 123.248 140.676L124.324 142.4H123.37ZM121.983 140.126H122.692C123.185 140.126 123.432 139.908 123.432 139.472C123.432 139.264 123.37 139.103 123.248 138.989C123.13 138.87 122.945 138.811 122.692 138.811H121.983V140.126Z" fill="#8A8686"/>
<path d="M148.376 141.532H146.646L146.34 142.4H145.429L147.019 138.133H148.003L149.587 142.4H148.676L148.376 141.532ZM148.144 140.878L147.508 139.056L146.872 140.878H148.144ZM150.914 140.798V142.4H150.052V138.084H151.623C152.133 138.084 152.516 138.206 152.773 138.451C153.034 138.695 153.164 139.027 153.164 139.447C153.164 139.859 153.03 140.187 152.761 140.432C152.496 140.676 152.117 140.798 151.623 140.798H150.914ZM151.532 140.108C152.037 140.108 152.29 139.887 152.29 139.447C152.29 139.231 152.231 139.066 152.112 138.952C151.994 138.838 151.801 138.781 151.532 138.781H150.914V140.108H151.532ZM155.974 142.4L154.965 140.719H154.586V142.4H153.724V138.084H155.369C155.87 138.084 156.251 138.206 156.512 138.451C156.777 138.695 156.91 139.017 156.91 139.417C156.91 139.743 156.818 140.016 156.635 140.236C156.455 140.456 156.194 140.603 155.852 140.676L156.928 142.4H155.974ZM154.586 140.126H155.296C155.789 140.126 156.035 139.908 156.035 139.472C156.035 139.264 155.974 139.103 155.852 138.989C155.734 138.87 155.548 138.811 155.296 138.811H154.586V140.126Z" fill="#8A8686"/>
<path d="M188.316 138.133V142.4H187.46V139.423L186.365 142.4H185.619L184.525 139.435V142.4H183.663V138.133H184.708L186.005 141.343L187.276 138.133H188.316ZM191.726 141.532H189.995L189.69 142.4H188.779L190.368 138.133H191.353L192.936 142.4H192.025L191.726 141.532ZM191.493 140.878L190.857 139.056L190.222 140.878H191.493ZM196.881 138.084L195.419 140.89V142.4H194.551V140.89L193.084 138.084H194.074L194.991 139.973L195.909 138.084H196.881Z" fill="#8A8686"/>
<path d="M221.074 138.084V141.129C221.074 141.544 220.957 141.868 220.725 142.101C220.497 142.329 220.179 142.443 219.771 142.443C219.331 142.443 218.983 142.317 218.726 142.064C218.469 141.811 218.341 141.451 218.341 140.982H219.19C219.19 141.202 219.235 141.371 219.325 141.489C219.419 141.608 219.555 141.667 219.735 141.667C219.898 141.667 220.018 141.62 220.095 141.526C220.173 141.428 220.212 141.296 220.212 141.129V138.084H221.074ZM222.66 138.084V140.615C222.66 140.953 222.733 141.208 222.88 141.379C223.031 141.546 223.247 141.63 223.528 141.63C223.805 141.63 224.017 141.546 224.164 141.379C224.315 141.208 224.39 140.953 224.39 140.615V138.084H225.246V140.615C225.246 141.015 225.171 141.353 225.02 141.63C224.873 141.903 224.667 142.107 224.402 142.241C224.142 142.376 223.844 142.443 223.51 142.443C222.992 142.443 222.578 142.288 222.268 141.979C221.959 141.669 221.804 141.214 221.804 140.615V138.084H222.66ZM229.658 142.4H228.796L226.864 139.466V142.4H226.002V138.084H226.864L228.796 141.043V138.084H229.658V142.4Z" fill="#8A8686"/>
<path d="M253.068 138.084V141.129C253.068 141.544 252.952 141.868 252.719 142.101C252.491 142.329 252.173 142.443 251.765 142.443C251.325 142.443 250.977 142.317 250.72 142.064C250.463 141.811 250.335 141.451 250.335 140.982H251.185C251.185 141.202 251.229 141.371 251.319 141.489C251.413 141.608 251.549 141.667 251.729 141.667C251.892 141.667 252.012 141.62 252.089 141.526C252.167 141.428 252.206 141.296 252.206 141.129V138.084H253.068ZM254.654 138.084V140.615C254.654 140.953 254.727 141.208 254.874 141.379C255.025 141.546 255.241 141.63 255.522 141.63C255.799 141.63 256.011 141.546 256.158 141.379C256.309 141.208 256.384 140.953 256.384 140.615V138.084H257.24V140.615C257.24 141.015 257.165 141.353 257.014 141.63C256.867 141.903 256.662 142.107 256.397 142.241C256.136 142.376 255.838 142.443 255.504 142.443C254.986 142.443 254.572 142.288 254.263 141.979C253.953 141.669 253.798 141.214 253.798 140.615V138.084H254.654ZM258.858 141.74H260.307V142.4H257.996V138.084H258.858V141.74Z" fill="#8A8686"/>
<path d="M64.6885 20.0607L64.7117 20.0501C64.7839 20.016 64.865 20.0022 64.9453 20.0103C65.0257 20.0183 65.1019 20.048 65.1649 20.0956C65.2279 20.1433 65.2752 20.207 65.301 20.2793C65.3269 20.3515 65.3302 20.4292 65.3107 20.5032L64.9117 22.0114C64.8921 22.0854 64.8953 22.1632 64.9211 22.2355C64.9469 22.3078 64.9941 22.3716 65.0572 22.4193C65.1203 22.4671 65.1965 22.4968 65.2769 22.5049C65.3573 22.513 65.4385 22.4991 65.5108 22.465L65.5339 22.4538M70.1834 20.4595C70.1834 21.0881 70.0522 21.7105 69.7973 22.2912C69.5424 22.8719 69.1688 23.3995 68.6978 23.844C68.2268 24.2884 67.6676 24.641 67.0523 24.8815C66.4369 25.122 65.7773 25.2458 65.1112 25.2458C64.4451 25.2458 63.7856 25.122 63.1702 24.8815C62.5548 24.641 61.9957 24.2884 61.5247 23.844C61.0537 23.3995 60.6801 22.8719 60.4252 22.2912C60.1703 21.7105 60.0391 21.0881 60.0391 20.4595C60.0391 19.1902 60.5734 17.9727 61.5247 17.0751C62.4759 16.1775 63.766 15.6733 65.1112 15.6733C66.4564 15.6733 67.7466 16.1775 68.6978 17.0751C69.649 17.9727 70.1834 19.1902 70.1834 20.4595ZM65.1112 18.4653H65.1157V18.4695H65.1112V18.4653Z" stroke="#515151" stroke-width="0.887136" stroke-linecap="round" stroke-linejoin="round"/>
<rect x="204.01" y="14.5347" width="42.066" height="11.8496" rx="5.92479" fill="#FFF3F3"/>
<path d="M218.706 18.8474V22.4595H218.108V19.7517L217.064 22.4595H216.544L215.494 19.7517V22.4595H214.902V18.8474H215.619L216.814 21.7319L217.989 18.8474H218.706ZM220.728 19.5594C221.006 19.5594 221.255 19.6183 221.477 19.7361C221.699 19.8539 221.872 20.0237 221.997 20.2455C222.121 20.4672 222.184 20.7271 222.184 21.025C222.184 21.3265 222.121 21.5881 221.997 21.8098C221.872 22.0316 221.699 22.2013 221.477 22.3191C221.255 22.437 221.006 22.4959 220.728 22.4959C220.451 22.4959 220.202 22.437 219.98 22.3191C219.762 22.2013 219.588 22.0316 219.46 21.8098C219.336 21.5846 219.273 21.323 219.273 21.025C219.273 20.7271 219.336 20.4672 219.46 20.2455C219.588 20.0237 219.762 19.8539 219.98 19.7361C220.202 19.6183 220.451 19.5594 220.728 19.5594ZM220.728 20.0739C220.576 20.0739 220.436 20.1086 220.307 20.1779C220.179 20.2472 220.075 20.3546 219.996 20.5001C219.919 20.6422 219.881 20.8171 219.881 21.025C219.881 21.2364 219.919 21.4131 219.996 21.5552C220.075 21.6972 220.179 21.8029 220.307 21.8722C220.436 21.9415 220.576 21.9761 220.728 21.9761C220.881 21.9761 221.021 21.9415 221.149 21.8722C221.278 21.8029 221.38 21.6972 221.456 21.5552C221.536 21.4131 221.576 21.2364 221.576 21.025C221.576 20.8171 221.536 20.6422 221.456 20.5001C221.38 20.3546 221.278 20.2472 221.149 20.1779C221.021 20.1086 220.881 20.0739 220.728 20.0739ZM224.354 19.549C224.687 19.549 224.953 19.6564 225.154 19.8713C225.355 20.0861 225.456 20.3927 225.456 20.7912V22.4595H224.863V20.8535C224.863 20.5971 224.797 20.3996 224.666 20.261C224.534 20.119 224.354 20.048 224.125 20.048C223.89 20.048 223.701 20.1242 223.559 20.2766C223.417 20.4256 223.346 20.6456 223.346 20.9367V22.4595H222.753V19.5958H223.346V20.2247C223.422 20.0098 223.55 19.8435 223.73 19.7257C223.91 19.6079 224.118 19.549 224.354 19.549ZM227.588 21.9449V22.4595H227.225C226.92 22.4595 226.687 22.3867 226.528 22.2412C226.372 22.0922 226.294 21.8462 226.294 21.5032V20.0999H225.884V19.5958H226.294V18.8838H226.892V19.5958H227.583V20.0999H226.892V21.5136C226.892 21.6764 226.921 21.789 226.98 21.8514C227.043 21.9138 227.15 21.9449 227.302 21.9449H227.588ZM229.744 19.549C230.077 19.549 230.344 19.6564 230.544 19.8713C230.745 20.0861 230.846 20.3927 230.846 20.7912V22.4595H230.253V20.8535C230.253 20.5971 230.188 20.3996 230.056 20.261C229.924 20.119 229.744 20.048 229.515 20.048C229.28 20.048 229.091 20.1242 228.949 20.2766C228.807 20.4256 228.736 20.6456 228.736 20.9367V22.4595H228.143V18.6135H228.736V20.2247C228.812 20.0098 228.94 19.8435 229.12 19.7257C229.301 19.6079 229.508 19.549 229.744 19.549ZM232.131 18.6135V22.4595H231.539V18.6135H232.131ZM233.186 19.5958L234.044 21.7007L234.839 19.5958H235.499L233.768 23.8211H233.108L233.727 22.3919L232.521 19.5958H233.186Z" fill="#ED0000" fill-opacity="0.8"/>
<path d="M139.383 20.4723C139.383 20.8431 139.307 21.167 139.154 21.4442C139.005 21.7179 138.785 21.931 138.494 22.0835C138.207 22.2359 137.862 22.3121 137.46 22.3121H136.234V18.6429H137.46C137.862 18.6429 138.207 18.7191 138.494 18.8716C138.785 19.0206 139.005 19.2319 139.154 19.5056C139.307 19.7794 139.383 20.1016 139.383 20.4723ZM137.413 21.7768C137.853 21.7768 138.191 21.6625 138.427 21.4338C138.662 21.2051 138.78 20.8846 138.78 20.4723C138.78 20.06 138.662 19.7395 138.427 19.5108C138.191 19.2821 137.853 19.1678 137.413 19.1678H136.826V21.7768H137.413ZM141.128 19.4121C141.388 19.4121 141.609 19.4762 141.793 19.6044C141.977 19.7326 142.107 19.9024 142.183 20.1137V19.4485H142.775V22.3121H142.183V21.6469C142.107 21.8582 141.977 22.028 141.793 22.1562C141.609 22.2844 141.388 22.3485 141.128 22.3485C140.878 22.3485 140.655 22.2896 140.457 22.1718C140.263 22.054 140.111 21.8842 140 21.6625C139.889 21.4407 139.834 21.1791 139.834 20.8777C139.834 20.5797 139.889 20.3199 140 20.0981C140.111 19.8764 140.263 19.7066 140.457 19.5888C140.655 19.471 140.878 19.4121 141.128 19.4121ZM141.31 19.9318C141.046 19.9318 140.835 20.0167 140.676 20.1865C140.52 20.3528 140.442 20.5832 140.442 20.8777C140.442 21.1722 140.52 21.4044 140.676 21.5741C140.835 21.7404 141.046 21.8236 141.31 21.8236C141.476 21.8236 141.625 21.7855 141.757 21.7093C141.888 21.6296 141.992 21.5187 142.069 21.3766C142.145 21.2346 142.183 21.0683 142.183 20.8777C142.183 20.6906 142.145 20.526 142.069 20.384C141.992 20.2384 141.888 20.1276 141.757 20.0513C141.625 19.9716 141.476 19.9318 141.31 19.9318ZM143.403 18.6169C143.403 18.5164 143.438 18.4333 143.507 18.3674C143.576 18.3016 143.668 18.2687 143.783 18.2687C143.897 18.2687 143.989 18.3016 144.058 18.3674C144.131 18.4333 144.167 18.5164 144.167 18.6169C144.167 18.7174 144.131 18.7988 144.058 18.8612C143.989 18.9235 143.897 18.9547 143.783 18.9547C143.668 18.9547 143.576 18.9235 143.507 18.8612C143.438 18.7988 143.403 18.7174 143.403 18.6169ZM144.079 19.4485V22.3121H143.486V19.4485H144.079ZM145.388 18.4662V22.3121H144.796V18.4662H145.388ZM146.443 19.4485L147.301 21.5533L148.096 19.4485H148.756L147.025 23.6738H146.365L146.984 22.2446L145.778 19.4485H146.443Z" fill="#232323" fill-opacity="0.8"/>
<path d="M171.689 18.6429L170.774 22.3121H170.046L169.272 19.4744L168.497 22.3121H167.77L166.855 18.6429H167.505L168.139 21.6261L168.944 18.6429H169.599L170.405 21.6261L171.039 18.6429H171.689ZM174.88 20.7426C174.88 20.8396 174.873 20.9245 174.859 20.9972H172.656C172.666 21.2917 172.748 21.51 172.9 21.6521C173.052 21.7941 173.241 21.8652 173.466 21.8652C173.664 21.8652 173.83 21.8149 173.965 21.7145C174.104 21.614 174.189 21.4806 174.22 21.3143H174.854C174.816 21.5152 174.736 21.6937 174.615 21.8496C174.494 22.0055 174.336 22.1285 174.142 22.2186C173.948 22.3052 173.732 22.3485 173.492 22.3485C173.215 22.3485 172.969 22.2896 172.754 22.1718C172.543 22.054 172.377 21.8842 172.256 21.6625C172.134 21.4407 172.074 21.1791 172.074 20.8777C172.074 20.5797 172.134 20.3199 172.256 20.0981C172.377 19.8764 172.543 19.7066 172.754 19.5888C172.969 19.471 173.215 19.4121 173.492 19.4121C173.773 19.4121 174.017 19.471 174.225 19.5888C174.437 19.7031 174.598 19.8625 174.709 20.0669C174.823 20.2679 174.88 20.4931 174.88 20.7426ZM174.282 20.727C174.289 20.5399 174.256 20.384 174.184 20.2592C174.114 20.131 174.017 20.0375 173.893 19.9786C173.771 19.9162 173.638 19.885 173.492 19.885C173.26 19.885 173.066 19.9561 172.91 20.0981C172.754 20.2402 172.67 20.4498 172.656 20.727H174.282ZM178.113 20.7426C178.113 20.8396 178.106 20.9245 178.092 20.9972H175.889C175.899 21.2917 175.981 21.51 176.133 21.6521C176.285 21.7941 176.474 21.8652 176.7 21.8652C176.897 21.8652 177.063 21.8149 177.198 21.7145C177.337 21.614 177.422 21.4806 177.453 21.3143H178.087C178.049 21.5152 177.969 21.6937 177.848 21.8496C177.727 22.0055 177.569 22.1285 177.375 22.2186C177.181 22.3052 176.965 22.3485 176.725 22.3485C176.448 22.3485 176.202 22.2896 175.987 22.1718C175.776 22.054 175.61 21.8842 175.489 21.6625C175.367 21.4407 175.307 21.1791 175.307 20.8777C175.307 20.5797 175.367 20.3199 175.489 20.0981C175.61 19.8764 175.776 19.7066 175.987 19.5888C176.202 19.471 176.448 19.4121 176.725 19.4121C177.006 19.4121 177.25 19.471 177.458 19.5888C177.67 19.7031 177.831 19.8625 177.942 20.0669C178.056 20.2679 178.113 20.4931 178.113 20.7426ZM177.515 20.727C177.522 20.5399 177.489 20.384 177.417 20.2592C177.347 20.131 177.25 20.0375 177.126 19.9786C177.004 19.9162 176.871 19.885 176.725 19.885C176.493 19.885 176.299 19.9561 176.143 20.0981C175.987 20.2402 175.903 20.4498 175.889 20.727H177.515ZM180.307 22.3121L179.278 21.0388V22.3121H178.685V18.4662H179.278V20.6698L180.296 19.4485H181.008L179.761 20.8725L181.04 22.3121H180.307ZM182.018 18.4662V22.3121H181.426V18.4662H182.018ZM183.073 19.4485L183.931 21.5533L184.726 19.4485H185.386L183.655 23.6738H182.995L183.614 22.2446L182.408 19.4485H183.073Z" fill="#232323" fill-opacity="0.8"/>
<circle cx="255.827" cy="17.1767" r="0.864564" fill="#6B6565"/>
<circle cx="255.827" cy="20.6349" r="0.864564" fill="#6B6565"/>
<circle cx="255.827" cy="24.0932" r="0.864564" fill="#6B6565"/>
<line x1="32.7852" y1="50.3701" x2="264.444" y2="50.3701" stroke="#C1C1C1" stroke-width="0.611439" stroke-dasharray="1.83 1.83"/>
<line x1="32.7852" y1="56.9859" x2="264.444" y2="56.9859" stroke="#C1C1C1" stroke-width="0.414735" stroke-dasharray="1.83 1.83"/>
<line x1="32.7852" y1="118.559" x2="264.444" y2="118.559" stroke="#C1C1C1" stroke-width="0.414735" stroke-dasharray="1.83 1.83"/>
<line x1="32.7852" y1="72.39" x2="264.444" y2="72.39" stroke="#C1C1C1" stroke-width="0.414735" stroke-dasharray="1.83 1.83"/>
<line x1="32.7852" y1="88.3872" x2="264.444" y2="88.3872" stroke="#C1C1C1" stroke-width="0.414735" stroke-dasharray="1.83 1.83"/>
<line x1="32.7852" y1="103.851" x2="264.444" y2="103.851" stroke="#C1C1C1" stroke-width="0.296239" stroke-dasharray="1.83 1.83"/>
<line x1="32.7852" y1="64.5897" x2="264.444" y2="64.5897" stroke="#C1C1C1" stroke-width="0.611439" stroke-dasharray="1.83 1.83"/>
<line x1="32.7852" y1="79.9943" x2="264.444" y2="79.9943" stroke="#C1C1C1" stroke-width="0.611439" stroke-dasharray="1.83 1.83"/>
<line x1="32.7852" y1="95.3986" x2="264.444" y2="95.3986" stroke="#C1C1C1" stroke-width="0.611439" stroke-dasharray="1.83 1.83"/>
<line x1="32.7852" y1="110.211" x2="264.444" y2="110.211" stroke="#C1C1C1" stroke-width="0.611439" stroke-dasharray="1.83 1.83"/>
<line x1="32.7852" y1="125.615" x2="264.444" y2="125.615" stroke="#C1C1C1" stroke-width="0.611439" stroke-dasharray="1.83 1.83"/>
<path d="M57.0203 110.629L32.7852 109.352V121.181H263.613C264.088 121.047 263.446 115.979 264.444 96.7842L236.823 98.33L222.746 102.094L209.024 95.9105L196.729 100.481L176.592 90.6683L151.822 98.33L119.925 101.556L101.392 110.629L76.2658 102.363L57.0203 110.629Z" fill="url(#paint0_linear_352_2770)"/>
<path d="M57.0203 98.6316L32.7852 97.3547V109.183H263.613C264.088 109.049 263.446 103.981 264.444 84.7867L236.823 86.3325L222.746 90.0962L209.024 83.913L196.729 88.4832L176.592 78.6707L151.822 86.3325L119.925 89.5585L101.392 98.6316L76.2658 90.365L57.0203 98.6316Z" fill="url(#paint1_linear_352_2770)"/>
<path d="M57.0203 83.3751L32.7852 82.0981V93.9268H263.613C264.088 93.7924 263.446 88.7249 264.444 69.5302L236.823 71.076L222.746 74.8396L209.024 68.6564L196.729 73.2266L176.592 63.4142L151.822 71.076L119.925 74.302L101.392 83.3751L76.2658 75.1085L57.0203 83.3751Z" fill="url(#paint2_linear_352_2770)"/>
<path d="M32.7852 97.3988L56.6053 98.6569C56.8783 98.6713 57.1509 98.6225 57.402 98.5144L75.1401 90.8772C75.8178 90.5854 76.6054 90.7427 77.119 91.2724L102.032 116.966C102.367 117.311 102.827 117.506 103.308 117.506H134.521C134.863 117.506 135.198 117.407 135.486 117.221L155.767 104.112C156.247 103.803 156.846 103.742 157.377 103.949L191.397 117.207C191.884 117.396 192.429 117.363 192.888 117.114L217.701 103.695C217.795 103.644 217.892 103.602 217.993 103.569L236.587 97.4761C236.744 97.4248 236.893 97.3519 237.029 97.2595L245.927 91.2443C246.652 90.754 247.627 90.8648 248.223 91.5056L257.302 101.256C258.256 102.281 259.966 101.851 260.322 100.497L264.444 84.801" stroke="#FA1AFF" stroke-width="1.18496" stroke-linecap="round"/>
<path d="M32.7852 109.396L57.0203 110.676L76.2658 102.39L101.392 110.676L132.163 90.6682L162.819 76.6318L181.422 70.3435L197.143 76.6318L209.024 95.9229L222.746 102.121L237.754 102.39L264.444 96.7986" stroke="#1AACFF" stroke-width="1.18496" stroke-linecap="round"/>
<path d="M32.7852 82.1426L49.7089 61.0691C50.2642 60.3776 51.2442 60.2013 52.0057 60.6558L76.0976 75.0359C76.2094 75.1026 76.3282 75.1569 76.4519 75.1977L99.9151 82.9355C100.761 83.2144 101.682 82.8245 102.071 82.0235L109.763 66.1712C110.009 65.6643 110.481 65.304 111.035 65.2002L139.5 59.863L176.534 52.3526C176.819 52.2948 177.113 52.3077 177.392 52.3902L201.905 59.644C202.377 59.7837 202.77 60.113 202.99 60.5535L211.801 78.1755C211.98 78.5333 212.274 78.8203 212.636 78.99L228.002 86.1927C228.531 86.4404 229.147 86.4129 229.651 86.119L248.35 75.2218C248.448 75.1649 248.551 75.1175 248.657 75.0801L264.444 69.5447" stroke="#F0CC6F" stroke-width="1.18496" stroke-linecap="round"/>
<defs>
<linearGradient id="paint0_linear_352_2770" x1="148.615" y1="90.6683" x2="148.615" y2="121.181" gradientUnits="userSpaceOnUse">
<stop stop-color="#96F5D9"/>
<stop offset="1" stop-color="#D9D9D9" stop-opacity="0"/>
</linearGradient>
<linearGradient id="paint1_linear_352_2770" x1="148.615" y1="78.6707" x2="148.615" y2="109.183" gradientUnits="userSpaceOnUse">
<stop stop-color="#FFCDFD"/>
<stop offset="1" stop-color="#D9D9D9" stop-opacity="0"/>
</linearGradient>
<linearGradient id="paint2_linear_352_2770" x1="148.615" y1="63.4142" x2="148.615" y2="93.9268" gradientUnits="userSpaceOnUse">
<stop stop-color="#FFEF9C"/>
<stop offset="1" stop-color="#D9D9D9" stop-opacity="0"/>
</linearGradient>
</defs>
</svg>
