<svg width="10" height="6" viewBox="0 0 10 6" fill="none" xmlns="http://www.w3.org/2000/svg">
<path d="M5.41149 4.89497L5.41156 4.89489L9.05655 1.24991L9.05663 1.24998L9.06085 1.24545C9.1562 1.14312 9.20811 1.00777 9.20565 0.867915C9.20318 0.728061 9.14652 0.594625 9.04762 0.495717C8.94871 0.39681 8.81527 0.340155 8.67542 0.337688C8.53557 0.33522 8.40021 0.387133 8.29788 0.482489L8.29781 0.482409L8.29343 0.486786L5.03 3.75021L1.76658 0.486786L1.76666 0.486708L1.76213 0.482489C1.65979 0.387133 1.52444 0.33522 1.38459 0.337688C1.24473 0.340155 1.1113 0.39681 1.01239 0.495717C0.913483 0.594625 0.856828 0.728061 0.85436 0.867914C0.851892 1.00777 0.903804 1.14312 0.999162 1.24546L0.999082 1.24553L1.00346 1.24991L4.64844 4.89489L4.64852 4.89497C4.74974 4.99606 4.88695 5.05285 5.03 5.05285C5.17306 5.05285 5.31027 4.99606 5.41149 4.89497Z" fill="#005050" stroke="#005050" stroke-width="0.350671"/>
</svg>
