<svg width="10" height="6" viewBox="0 0 10 6" fill="none" xmlns="http://www.w3.org/2000/svg">
<path d="M5.41149 4.90559L5.41156 4.90551L9.05655 1.26053L9.05663 1.2606L9.06085 1.25608C9.1562 1.15374 9.20811 1.01839 9.20565 0.878535C9.20318 0.738681 9.14652 0.605245 9.04762 0.506338C8.94871 0.407431 8.81527 0.350775 8.67542 0.348308C8.53557 0.34584 8.40021 0.397753 8.29788 0.493109L8.29781 0.493029L8.29343 0.497406L5.03 3.76083L1.76658 0.497406L1.76666 0.497329L1.76213 0.493109C1.65979 0.397753 1.52444 0.34584 1.38459 0.348308C1.24473 0.350775 1.1113 0.40743 1.01239 0.506338C0.913483 0.605245 0.856828 0.738681 0.85436 0.878534C0.851892 1.01839 0.903804 1.15374 0.999162 1.25608L0.999082 1.25615L1.00346 1.26053L4.64844 4.90551L4.64852 4.90559C4.74974 5.00668 4.88695 5.06347 5.03 5.06347C5.17306 5.06347 5.31027 5.00668 5.41149 4.90559Z" fill="white" stroke="white" stroke-width="0.350671"/>
</svg>
