<svg width="27" height="14" viewBox="0 0 27 14" fill="none" xmlns="http://www.w3.org/2000/svg">
<path d="M19.1867 0.562233L19.1865 0.562399C19.0455 0.703556 18.9663 0.8949 18.9663 1.0944C18.9663 1.2939 19.0455 1.48524 19.1865 1.6264L19.1866 1.62648L23.5479 5.9878H1.79119C1.59152 5.9878 1.40004 6.06711 1.25885 6.2083C1.11767 6.34948 1.03835 6.54097 1.03835 6.74063C1.03835 6.94029 1.11767 7.13178 1.25885 7.27296C1.40004 7.41414 1.59152 7.49346 1.79119 7.49346H23.5479L19.1887 11.8526C19.116 11.9211 19.0576 12.0033 19.0169 12.0945C18.9758 12.1869 18.9536 12.2866 18.9519 12.3877C18.9501 12.4887 18.9687 12.5892 19.0065 12.6829C19.0444 12.7766 19.1008 12.8618 19.1722 12.9333C19.2437 13.0048 19.3289 13.0611 19.4226 13.099C19.5164 13.1368 19.6168 13.1554 19.7179 13.1537C19.8189 13.1519 19.9186 13.1297 20.011 13.0886C20.1022 13.0479 20.1845 12.9895 20.2529 12.9168L25.897 7.27271L25.897 7.27263C26.038 7.13147 26.1172 6.94013 26.1172 6.74063C26.1172 6.54113 26.038 6.34978 25.897 6.20863L25.897 6.20855L20.2507 0.562316L20.2507 0.562233C20.1095 0.421253 19.9182 0.342066 19.7187 0.342066C19.5192 0.342066 19.3278 0.421253 19.1867 0.562233Z" fill="#005050" stroke="#005050" stroke-width="0.376415"/>
</svg>
