<svg width="13" height="7" viewBox="0 0 13 7" fill="none" xmlns="http://www.w3.org/2000/svg">
<path d="M9.01454 0.423637L9.01444 0.423742C8.94418 0.494083 8.90472 0.589434 8.90472 0.68885C8.90472 0.788265 8.94418 0.883616 9.01444 0.953957L9.01449 0.95401L10.932 2.87156H1.15813C1.05863 2.87156 0.963211 2.91108 0.892857 2.98144C0.822502 3.05179 0.782977 3.14721 0.782977 3.24671C0.782977 3.34621 0.822502 3.44163 0.892856 3.51198C0.963211 3.58234 1.05863 3.62186 1.15813 3.62186H10.932L9.01585 5.53805C8.97976 5.57209 8.95079 5.61294 8.93059 5.65826C8.91009 5.70428 8.89906 5.75396 8.89817 5.80433C8.89728 5.8547 8.90655 5.90474 8.92542 5.95145C8.94429 5.99816 8.97237 6.0406 9.008 6.07622C9.04362 6.11185 9.08605 6.13993 9.13277 6.1588C9.17948 6.17767 9.22952 6.18693 9.27989 6.18604C9.33026 6.18516 9.37994 6.17413 9.42595 6.15363L9.37737 6.04459L9.42596 6.15363C9.47127 6.13343 9.51213 6.10446 9.54616 6.06838L12.1027 3.51187L12.1027 3.51182C12.173 3.44148 12.2124 3.34613 12.2124 3.24671C12.2124 3.14729 12.173 3.05194 12.1027 2.9816L12.1027 2.98155L9.54481 0.423689L9.54476 0.423637C9.47442 0.353382 9.37906 0.313922 9.27965 0.313922C9.18023 0.313922 9.08488 0.353382 9.01454 0.423637Z" fill="#E3F8F5" stroke="#E3F8F5" stroke-width="0.238734"/>
</svg>
