<svg width="14" height="12" viewBox="0 0 14 12" fill="none" xmlns="http://www.w3.org/2000/svg">
<path d="M7.17093 0.760829L7.17086 0.760901C7.06287 0.869028 7.00221 1.0156 7.00221 1.16842C7.00221 1.32124 7.06287 1.46781 7.17086 1.57593L7.1709 1.57597L11.1296 5.53467H0.658355C0.505411 5.53467 0.358732 5.59542 0.250584 5.70357C0.142437 5.81172 0.0816804 5.9584 0.0816804 6.11134C0.0816804 6.26429 0.142437 6.41096 0.250584 6.51911C0.358732 6.62726 0.505411 6.68802 0.658355 6.68802H11.1296L7.17188 10.6457C7.11574 10.6983 7.07068 10.7616 7.03937 10.8319C7.00785 10.9026 6.9909 10.979 6.98953 11.0564C6.98817 11.1339 7.00241 11.2108 7.03141 11.2826C7.06042 11.3544 7.10359 11.4196 7.15835 11.4744C7.21311 11.5291 7.27834 11.5723 7.35014 11.6013C7.42195 11.6303 7.49886 11.6445 7.57629 11.6432C7.65372 11.6418 7.73008 11.6249 7.80082 11.5933C7.8711 11.562 7.93439 11.517 7.98698 11.4608L12.9289 6.51889L12.929 6.51886C13.037 6.41073 13.0976 6.26416 13.0976 6.11134C13.0976 5.95852 13.037 5.81195 12.929 5.70383L12.9289 5.70379L7.986 0.760865L7.98596 0.760829C7.87784 0.652837 7.73127 0.592178 7.57845 0.592178C7.42563 0.592178 7.27906 0.652837 7.17093 0.760829Z" fill="#E3F8F5" stroke="#E3F8F5" stroke-width="0.164764"/>
</svg>
