<svg width="61" height="61" viewBox="0 0 61 61" fill="none" xmlns="http://www.w3.org/2000/svg">
<path d="M51.0608 36.8028C48.5164 38.3565 45.7811 39.2932 42.8451 39.582C38.5259 40.0069 34.471 39.1403 30.7259 36.9225C30.4209 36.7419 30.2439 36.733 29.9889 37.0038C29.3137 37.721 28.6051 38.407 27.904 39.0995C27.7541 39.2475 27.6738 39.3994 27.6681 39.6201C27.6262 41.2646 27.0315 42.6962 25.8766 43.8562C21.0095 48.7449 16.1424 53.6341 11.2377 58.485C9.44327 60.2597 7.23471 60.7619 4.83688 60.0005C2.48532 59.2537 1.02875 57.5746 0.560461 55.1629C0.135094 52.9722 0.752008 51.0244 2.34414 49.4292C6.72778 45.037 11.1187 40.652 15.5067 36.2642C15.9381 35.8329 16.3682 35.4003 16.8014 34.9708C18.0036 33.779 19.4488 33.1396 21.1429 33.0841C21.3655 33.0769 21.5152 32.983 21.6611 32.8365C22.3813 32.1133 23.0994 31.3879 23.8321 30.6775C24.0195 30.4957 24.0338 30.3585 23.8988 30.1376C22.939 28.5671 22.2221 26.8904 21.7476 25.1115C21.1624 22.9178 20.9468 20.6911 21.1425 18.4255C21.6339 12.7382 24.1237 8.10489 28.5423 4.52022C31.2604 2.31507 34.3804 0.954091 37.8513 0.484941C44.3896 -0.398839 50.0704 1.45319 54.7668 6.08345C57.8405 9.11378 59.6607 12.8325 60.2799 17.1202C60.8613 21.1457 60.2724 24.9959 58.486 28.6458C56.8097 32.0706 54.3244 34.7785 51.0608 36.8028ZM24.794 13.3087C23.5532 16.3297 23.1609 19.4616 23.6815 22.6815C24.3188 26.6231 26.0923 29.9912 29.0462 32.6886C33.0038 36.3023 37.6982 37.7674 42.9933 37.134C47.1633 36.6351 50.6977 34.7718 53.5444 31.6701C56.4442 28.5106 57.9335 24.7543 58.1017 20.483C58.1855 18.3557 57.8399 16.2797 57.1414 14.2643C54.23 5.86449 45.3731 0.971015 36.6236 3.17353C31.0614 4.57372 27.1336 8.00312 24.794 13.3087ZM3.08588 52.5756C2.51545 54.2334 2.96956 55.9632 4.2488 57.0052C5.87275 58.328 8.09465 58.2281 9.5861 56.7465C11.6666 54.6796 13.7362 52.6017 15.8098 50.5278C18.5718 47.7654 21.3365 45.0057 24.0928 42.2376C25.0066 41.32 25.4263 40.2101 25.245 38.913C25.0188 37.2956 24.1056 36.1838 22.5744 35.6852C21.0517 35.1893 19.6537 35.5174 18.4965 36.6742C13.6928 41.4765 8.89179 46.2816 4.0848 51.0806C3.6622 51.5025 3.32897 51.9737 3.08588 52.5756ZM27.0904 36.4901C27.4829 36.0783 27.8755 35.6664 28.2887 35.2328C27.2725 34.3945 26.3521 33.4399 25.4723 32.4177C25.0144 32.8544 24.5831 33.2413 24.2119 33.7184C24.2968 33.7807 24.3478 33.8266 24.4061 33.8597C25.4581 34.4575 26.2864 35.2786 26.8833 36.3323C26.9224 36.4014 26.9534 36.4834 27.0904 36.4901Z" fill="#005050"/>
<path d="M43.7437 25.3199C42.3593 27.2676 39.4582 27.386 38.0125 25.5752C37.6107 25.0721 37.4189 24.4917 37.3694 23.8572C37.2673 22.5492 37.1682 21.241 37.0616 19.9334C36.956 18.6376 36.8398 17.3427 36.7338 16.0469C36.6516 15.0428 36.5812 14.0377 36.4997 13.0335C36.3936 11.7261 36.3249 10.4138 36.163 9.1132C35.8753 6.80266 37.2439 5.20364 39.5762 5.19898C40.4796 5.19718 41.3832 5.18811 42.2863 5.20261C43.7171 5.22557 45.0213 6.22809 45.3635 7.55668C45.4395 7.85157 45.4651 8.15154 45.4389 8.46088C45.3281 9.76768 45.2345 11.0759 45.1285 12.3832C44.9979 13.9939 44.8585 15.6039 44.7279 17.2147C44.6237 18.4988 44.5308 19.7838 44.4259 21.0679C44.3381 22.1417 44.2463 23.2154 44.1431 24.2878C44.1078 24.6546 43.9512 24.9862 43.7437 25.3199ZM41.0624 7.57171C40.4313 7.59927 39.794 7.49808 39.1691 7.63418C38.6766 7.74142 38.496 7.98575 38.519 8.47586C38.5365 8.84998 38.5732 9.22326 38.6042 9.59667C38.714 10.9148 38.8273 12.2326 38.9347 13.5509C39.0145 14.5312 39.0844 15.5122 39.1635 16.4925C39.2735 17.8575 39.3869 19.2222 39.5009 20.5869C39.5837 21.5784 39.6534 22.5713 39.7599 23.5602C39.8354 24.2609 40.3132 24.5746 41.016 24.4381C41.5525 24.3338 41.7451 24.1518 41.8174 23.6172C41.8707 23.2236 41.8883 22.825 41.9192 22.4284C41.9983 21.4131 42.0731 20.3975 42.155 19.3824C42.2623 18.0526 42.376 16.7233 42.4845 15.3936C42.5644 14.4136 42.6385 13.4331 42.7186 12.453C42.8265 11.1351 42.9475 9.81819 43.0426 8.49938C43.082 7.95272 42.9239 7.77105 42.3933 7.63007C41.9776 7.5196 41.5528 7.59298 41.0624 7.57171Z" fill="#005050"/>
<path d="M37.3858 32.0723C36.9005 30.0696 38.2452 28.0607 40.3413 27.7654C42.0689 27.5221 43.8595 28.7639 44.2093 30.5063C44.5876 32.3915 43.4362 34.2349 41.6192 34.6533C39.7081 35.0933 37.8954 33.9979 37.3858 32.0723ZM40.7807 30.1441C40.2974 30.1506 39.9437 30.3702 39.7691 30.8196C39.6161 31.2137 39.6528 31.6041 39.9311 31.944C40.24 32.3214 40.7868 32.4425 41.2404 32.2429C41.6585 32.0589 41.9599 31.5537 41.8989 31.1389C41.8152 30.5699 41.4424 30.2199 40.7807 30.1441Z" fill="#005050"/>
</svg>
