<svg width="65" height="53" viewBox="0 0 65 53" fill="none" xmlns="http://www.w3.org/2000/svg">
<path d="M31.1508 43.543C30.5088 42.7779 29.8089 42.1633 29.119 41.5372C28.8086 41.2555 28.5075 40.9571 28.2421 40.6335C27.8999 40.2163 27.8319 39.7591 28.2464 39.3382C28.6495 38.9289 29.1154 38.9475 29.5556 39.2554C30.2008 39.7067 30.6641 40.3493 31.2142 40.9009C32.7828 42.4737 34.3745 44.024 35.9783 45.561C36.9577 46.4997 38.4369 46.4788 39.2887 45.5594C40.076 44.7097 39.9564 43.3969 38.9872 42.4254C37.1 40.5338 35.2059 38.6492 33.3145 36.7619C33.1868 36.6345 33.0548 36.5114 32.9298 36.3816C32.4959 35.931 32.1989 35.4165 32.7499 34.8973C33.2761 34.4016 33.8082 34.5251 34.3233 35.0401C36.3415 37.0579 38.3812 39.0543 40.4168 41.0547C41.4224 42.0429 42.757 42.1183 43.6279 41.247C44.5079 40.3666 44.5002 39.0004 43.5418 38.0047C42.3342 36.75 41.0826 35.5374 39.8451 34.3117C39.1832 33.6561 38.5018 33.02 37.8478 32.3568C37.5973 32.1028 37.3748 31.8129 37.1818 31.5122C36.9177 31.1008 37.007 30.6936 37.3418 30.3654C37.7039 30.0103 38.1155 30.073 38.4865 30.3541C39.2785 30.9541 39.9639 31.6678 40.6573 32.3787C42.1246 33.883 43.6152 35.3663 45.1385 36.8136C45.8604 37.4995 46.7768 37.5484 47.6497 37.0712C48.4698 36.6228 48.8357 35.922 48.7742 34.9839C48.7357 34.3954 48.4014 33.9844 48.0147 33.5976C46.1039 31.6871 44.1913 29.7784 42.2784 27.87C38.9189 24.5187 35.5739 21.1527 32.1932 17.823C30.1242 15.7852 27.318 16.2796 26.0331 18.9134C25.4293 20.1511 24.84 21.401 24.3899 22.7132C23.6274 24.9363 21.8211 26.1314 19.8257 25.8027C17.2327 25.3755 15.7615 22.8148 16.781 20.3768C17.8698 17.7732 18.8688 15.1267 20.1727 12.6192C20.8666 11.285 21.1234 9.76642 21.9335 8.49554C23.9247 5.37182 26.6896 4.45674 29.993 5.34803C33.4079 6.26939 36.7836 7.33623 40.1757 8.34184C40.7228 8.50401 41.2564 8.72873 41.8132 8.83684C42.8517 9.03846 43.6468 9.53585 44.4051 10.3028C47.0655 12.9938 49.816 15.5955 52.5226 18.2411C53.6179 19.3117 54.6704 20.4268 55.7785 21.4838C56.2691 21.9517 56.2381 22.2625 55.7629 22.7292C53.3415 25.107 50.9661 27.532 48.5367 29.9016C47.9941 30.4309 47.984 30.767 48.5304 31.2716C49.1429 31.8371 49.8444 32.3376 50.2137 33.1288C51.5329 35.9547 50.2088 38.6971 47.1578 39.3286C46.5272 39.4592 46.3157 39.7607 46.1969 40.2971C45.7377 42.3717 44.6555 43.403 42.5044 43.7754C42.083 43.8483 41.9069 44.0006 41.8142 44.4335C41.5098 45.8543 40.9895 47.388 39.5251 47.753C37.9517 48.1452 37.3811 48.9343 36.8679 50.3791C35.9817 52.874 31.9006 53.4658 30.2726 51.5177C29.679 50.8075 28.9221 50.236 28.2697 49.5718C27.843 49.1374 27.5086 49.1249 27.0645 49.5689C26.2155 50.4177 25.3437 51.2479 24.4336 52.0303C23.3973 52.9212 22.152 52.8288 21.0322 52.3514C19.8651 51.8539 19.1632 50.8721 19.1997 49.5035C19.2117 49.0563 19.2016 48.6085 19.2016 48.0763C17.9331 48.4536 16.7572 48.2617 15.683 47.3332C14.521 46.3288 14.6844 45.0534 14.7872 43.6765C13.4538 43.8681 12.2391 43.8846 11.1954 42.8185C10.1812 41.7826 10.0617 40.6361 10.3386 39.3035C9.8694 39.1365 9.42947 39.3006 8.99852 39.3162C7.7592 39.3612 6.49588 38.5953 5.96923 37.4381C5.40713 36.203 5.63695 34.77 6.57613 33.8572C7.37306 33.0828 8.1663 32.3086 8.89729 31.4682C9.23497 31.08 9.32261 30.8156 8.91916 30.4152C7.30049 28.809 5.7103 27.1741 4.10191 25.5574C2.93748 24.387 1.74814 23.241 0.596236 22.0585C0.149953 21.6004 -0.291801 21.0811 0.363366 20.4368C0.905412 19.9038 1.38266 19.9533 2.04828 20.6623C4.69974 23.4863 7.52606 26.135 10.2586 28.8775C10.6945 29.315 11.0402 29.5065 11.7272 29.2615C14.0643 28.428 16.3853 30.4896 15.9364 32.9205C15.894 33.1503 15.8784 33.3852 15.8371 33.7285C17.2462 33.3948 18.5275 33.4887 19.557 34.5273C20.5665 35.5459 20.7542 36.7644 20.2391 38.2556C21.7001 37.7721 23.0092 37.9231 24.0171 38.911C25.0503 39.9239 25.111 41.2481 24.6607 42.6941C26.0043 42.2823 27.2099 42.2814 28.2659 43.2213C29.3778 44.2109 29.6946 45.4312 29.2381 46.8061C29.045 47.3877 29.1275 47.7389 29.5637 48.1374C30.2278 48.7442 30.8176 49.4315 31.4692 50.053C32.4408 50.9796 33.8319 50.9807 34.6993 50.0871C35.5953 49.1639 35.5653 47.9962 34.5696 46.9678C33.4626 45.8243 32.3221 44.7133 31.1508 43.543Z" fill="#005050"/>
<path d="M49.2162 10.5091C48.1306 9.42612 47.0761 8.40143 46.0568 7.34289C45.1045 6.35382 45.1441 5.30084 46.1066 4.346C47.0015 3.45828 47.8756 2.54944 48.7789 1.67045C49.7786 0.697562 50.7707 0.634272 51.7961 1.59713C53.436 3.13705 55.017 4.74018 56.6077 6.33176C58.3676 8.09255 60.1101 9.8707 61.8607 11.6407C62.7251 12.5147 63.6053 13.3738 64.4517 14.265C65.1799 15.0318 65.147 16.0755 64.3458 16.9351C63.4869 17.8565 62.576 18.7293 61.6931 19.6285C60.8435 20.494 59.4253 20.5863 58.4407 19.5799C55.4403 16.5133 52.4291 13.4527 49.2162 10.5091Z" fill="#005050"/>
</svg>
