<svg width="59" height="50" viewBox="0 0 59 50" fill="none" xmlns="http://www.w3.org/2000/svg">
<path fill-rule="evenodd" clip-rule="evenodd" d="M41.3709 12.5266C41.0576 12.4744 40.6658 11.8998 39.4644 11.508C38.6026 11.2469 37.8452 11.1685 36.8528 11.2991C35.4164 11.4819 33.8755 12.6311 33.2748 13.5974C32.9092 13.5974 30.8198 12.84 30.2975 12.6572L27.4769 11.6647C27.4247 10.4373 27.4769 10.0194 27.0329 9.05308C25.2048 4.97889 19.7725 4.74384 17.4743 8.21735C16.8736 9.18366 16.4557 10.6201 16.6385 11.8998C16.6908 12.2393 16.8997 12.8922 16.8997 13.1534L9.87433 18.0111C9.63928 17.9066 9.45646 17.6977 9.1953 17.541C8.30733 16.9664 7.41937 16.7052 6.27024 16.7052C3.55411 16.7314 1.25585 18.7423 0.942448 21.1973C0.733515 22.7904 1.04691 24.0962 1.77818 25.1931C2.45721 26.1856 3.50188 26.9168 4.57266 27.3086C6.40082 27.9876 8.80355 27.3869 10.1616 25.9766C11.0235 25.0887 11.598 23.8351 11.7286 22.5815C11.807 21.589 11.4936 21.0406 11.4936 20.231L14.9671 17.8283C15.5416 17.3843 16.1423 17.0186 16.7169 16.6269C18.989 15.1121 17.9705 15.2166 19.2241 15.8695C20.2165 16.3918 20.5821 16.653 22.0969 16.653C23.4811 16.653 24.7869 16.1307 25.7271 15.2427C25.936 15.0338 26.4061 14.5376 26.5367 14.3025C26.9546 14.3286 30.0625 15.3994 30.6893 15.6867C31.1594 15.9217 31.8645 16.0262 32.3085 16.2351C32.413 17.4626 32.3085 17.7499 32.7525 18.7685C33.7449 21.0928 35.782 22.2681 38.5765 22.0591C39.2294 22.033 40.3524 21.5368 40.7442 21.2495C42.4156 19.9698 43.408 18.3767 43.1991 16.1307C43.1469 15.6083 42.9379 15.2688 42.9641 14.7204C43.4342 14.4592 44.6616 13.5451 45.2623 13.1273L48.7619 10.7245C48.9448 10.5678 49.1798 10.4373 49.3365 10.3328C50.3289 9.62764 49.8327 10.0977 51.243 10.7245C51.6348 10.8812 52.3138 11.1424 52.7839 11.1685C56.4663 11.4819 59.0258 8.84414 58.9735 5.50122C58.9213 3.59471 57.5371 1.58373 55.8134 0.826347C55.5784 0.747998 55.2911 0.591298 55.1083 0.539065C53.2279 -0.00938401 51.2169 0.512948 49.8588 1.71431C48.5008 2.94179 47.7956 4.90054 48.1613 6.7287C48.3963 7.79948 48.6836 7.5122 47.2472 8.47851L44.8967 10.0716C44.296 10.4895 41.5799 12.4482 41.3709 12.5266Z" fill="#005050"/>
<path fill-rule="evenodd" clip-rule="evenodd" d="M48.0584 19.2127V45.7733C48.0584 47.1575 47.7711 49.4035 50.0693 49.4035H56.7552C59.3146 49.4035 58.949 47.3403 58.949 45.4076V18.7165C58.949 17.9852 58.7139 17.3323 58.061 16.9405C57.4342 16.5488 56.4157 16.6533 55.5277 16.6533H50.67C48.659 16.6271 48.0584 17.1756 48.0584 19.2127Z" fill="#005050"/>
<path fill-rule="evenodd" clip-rule="evenodd" d="M16.5898 24.1225V47.3924C16.5898 48.0714 16.8249 48.5938 17.2428 48.9333C17.974 49.5601 18.7314 49.4034 19.8544 49.4034H25.3128C27.9506 49.4295 27.4805 47.1312 27.4805 44.9635V26.2379C27.4805 24.6187 27.8461 23.2084 26.5925 22.3466C26.0179 21.9548 23.9025 22.1115 22.9623 22.1115H18.5486C17.3733 22.1115 16.5898 22.895 16.5898 24.1225Z" fill="#005050"/>
<path fill-rule="evenodd" clip-rule="evenodd" d="M32.3359 30.1291V47.3138C32.3359 47.9667 32.4404 48.3585 32.806 48.7502C33.1717 49.1681 33.6157 49.3248 34.2424 49.3248H41.32C43.6444 49.3248 43.2266 47.0004 43.2266 45.3289V29.5284C43.2266 27.1779 40.8238 27.5435 39.0218 27.5435H34.9215C32.806 27.5435 32.3359 28.1703 32.3359 30.1291Z" fill="#005050"/>
<path fill-rule="evenodd" clip-rule="evenodd" d="M0.839844 35.0393L0.86596 46.2694C0.839844 47.2619 0.735377 48.0454 1.25771 48.6722C1.85839 49.4295 2.43296 49.4034 3.47762 49.4034H8.30919C9.45832 49.4034 10.503 49.534 11.182 48.8811C11.9655 48.1237 11.7566 46.6351 11.7305 45.3292V36.7108C11.7305 35.431 12.1483 33.0022 9.79784 33.0022H3.66044C2.43296 33.0022 0.839844 33.0022 0.839844 35.0393Z" fill="#005050"/>
<path fill-rule="evenodd" clip-rule="evenodd" d="M37.1927 14.0153C36.5397 14.2242 36.0174 14.4332 35.5734 15.0861C35.1817 15.6345 34.9466 16.4441 35.1295 17.3321C35.4167 18.5335 36.8009 19.7871 38.394 19.3431C39.8304 18.9252 40.7706 17.6455 40.4311 16.0263C40.1438 14.851 38.7074 13.5452 37.1927 14.0153Z" fill="#8CEDE1"/>
<path fill-rule="evenodd" clip-rule="evenodd" d="M53.0747 3.12461C52.3173 3.30742 51.7949 3.49024 51.3771 4.09092C50.9592 4.66549 50.7503 5.37064 50.8547 6.33695C51.0114 7.56443 52.6307 8.84414 54.0671 8.4524C57.8279 7.45996 56.1825 2.39334 53.0747 3.12461Z" fill="#8CEDE1"/>
<path fill-rule="evenodd" clip-rule="evenodd" d="M5.72505 19.4739C4.96767 19.6828 4.49757 19.9701 4.10583 20.5185C2.69553 22.3989 4.23641 25.2195 6.79584 24.7755C8.25837 24.5405 9.2508 23.2346 8.9374 21.511C8.72846 20.3096 7.2137 19.0299 5.72505 19.4739Z" fill="#8CEDE1"/>
<path fill-rule="evenodd" clip-rule="evenodd" d="M21.4704 8.58316C20.9742 8.71374 20.922 8.73986 20.5302 8.97491C20.1907 9.20996 20.0602 9.31442 19.8251 9.65394C18.3626 11.8216 20.3213 14.4333 22.5935 13.8848C23.8993 13.5975 24.9701 12.3701 24.6828 10.6725C24.4739 9.39277 23.0113 8.19141 21.4704 8.58316Z" fill="#8CEDE1"/>
</svg>
