<svg width="55" height="54" viewBox="0 0 55 54" fill="none" xmlns="http://www.w3.org/2000/svg">
<path d="M0.9375 29.9854C0.9375 28.3523 0.9375 26.7192 0.975171 25.0232C1.05539 24.8524 1.11774 24.748 1.13744 24.6361C1.33765 23.4981 1.48082 22.3475 1.73641 21.2224C2.29174 18.7778 3.25198 16.4864 4.50226 14.3151C6.03601 11.6516 7.97203 9.31649 10.3295 7.35138C12.1673 5.81935 14.1816 4.55341 16.376 3.57039C19.2993 2.26081 22.3625 1.53127 25.5464 1.38157C26.9895 1.31371 28.4505 1.4272 29.8925 1.56937C33.1498 1.89053 36.2043 2.89461 39.0636 4.48811C40.0495 5.03756 40.0473 5.04027 40.7989 4.2287C40.8931 4.12703 40.9948 4.03238 41.0929 3.93434C42.0984 2.92943 43.1069 1.92752 44.1057 0.916121C44.2453 0.774845 44.3376 0.586963 44.4518 0.420654C44.6303 0.420654 44.8087 0.420654 45.0326 0.459512C45.2052 0.874345 45.3618 1.24323 45.454 1.62757C45.7929 3.03947 46.0695 4.46767 46.4515 5.86735C46.6737 6.68112 46.6125 7.20854 45.8928 7.83257C43.9213 9.54214 42.0758 11.3967 40.1724 13.1854C39.7916 13.5432 39.3754 13.8632 38.9161 14.2507C38.5634 12.7972 38.2121 11.4478 37.9204 10.0856C37.8372 9.69695 37.6541 9.48175 37.3357 9.29871C35.3731 8.17078 33.3088 7.32822 31.0818 6.86011C28.7671 6.37357 26.4396 6.31267 24.1137 6.59403C21.3024 6.93412 18.6671 7.86261 16.2362 9.32856C13.767 10.8176 11.6662 12.7224 9.98777 15.0678C8.08856 17.7217 6.84641 20.6606 6.28852 23.8849C5.95966 25.7854 5.87414 27.701 6.06971 29.6107C6.30488 31.9069 6.90499 34.1127 7.84901 36.2391C8.79445 38.3686 10.0744 40.257 11.6294 41.9633C12.8435 43.2956 14.2514 44.4082 15.7673 45.393C18.817 47.3741 22.184 48.3633 25.7779 48.6037C27.648 48.7288 29.5037 48.5065 31.3392 48.0999C34.9181 47.3071 38.0493 45.6491 40.7476 43.1967C42.9744 41.1728 44.6756 38.7586 45.8828 35.9868C47.0899 33.2155 47.6649 30.3218 47.6618 27.3176C47.6607 26.2183 47.5248 25.1103 47.3519 24.022C46.9776 21.6666 46.251 19.4197 45.0404 17.3512C44.9248 17.1538 44.6796 16.9652 44.4592 16.9072C43.0729 16.5423 41.6771 16.2134 40.2825 15.881C40.1809 15.8568 40.0253 15.8575 39.9594 15.9175C39.4001 16.4267 38.8558 16.9524 38.3094 17.4708C44.2837 24.7713 42.6136 34.9198 35.6282 39.9896C29.172 44.6754 20.072 43.5978 14.94 37.0366C9.72219 30.3658 10.7402 20.541 17.7779 15.1902C23.8402 10.5811 32.2387 11.5268 36.9168 16.1509C35.9313 17.096 34.9511 18.0461 33.9594 18.984C33.1771 19.7238 33.1655 19.7251 32.2619 19.1133C30.2523 17.7525 28.0108 17.2587 25.6411 17.5326C23.2507 17.8088 21.222 18.8689 19.5638 20.6673C17.8398 22.5373 16.9993 24.7368 16.8725 27.2345C16.8023 28.6176 17.0748 29.9586 17.5872 31.2414C18.5519 33.6568 20.206 35.4649 22.5404 36.6C24.3036 37.4573 26.1771 37.7806 28.1422 37.4852C31.1407 37.0344 33.4751 35.5367 35.1185 33.0089C36.489 30.9008 37.0013 28.5726 36.6426 26.0703C36.3794 24.2346 35.6734 22.5914 34.4546 21.0777C33.4962 21.9692 32.5804 22.8566 31.6226 23.696C31.1734 24.0896 31.0913 24.4209 31.4088 24.9547C32.0824 26.0873 32.2201 27.3294 31.9556 28.6156C31.3708 31.4582 28.6578 33.3658 25.7019 32.7228C23.8875 32.328 22.5935 31.207 21.9067 29.4397C20.7303 26.4127 22.4921 23.0578 25.6501 22.3207C27.0315 21.9983 28.3113 22.2328 29.5808 23.0044C29.3992 23.1993 29.2701 23.354 29.1247 23.4915C28.0693 24.4894 26.9994 25.4724 25.9589 26.4856C25.5898 26.845 25.6372 27.2437 26.0293 27.6943C27.0703 26.739 28.1133 25.7867 29.1508 24.8286C30.1285 23.9257 31.102 23.0183 32.0746 22.11C33.7047 20.5878 35.3318 19.0623 36.9619 17.5401C37.9346 16.6319 38.9119 15.7286 39.8848 14.8206C41.5025 13.3106 43.1216 11.8021 44.734 10.2864C46.0446 9.05431 47.3455 7.81178 48.6538 6.57716C48.7216 6.51312 48.8186 6.47988 48.9143 6.42527C49.4965 7.22567 48.7764 7.62608 48.3844 8.15342C50.3764 8.6749 52.3069 9.18028 54.2373 9.68566C54.2373 9.86413 54.2373 10.0426 54.2011 10.2665C52.6667 11.8219 51.1638 13.3273 49.6819 14.8531C49.5968 14.9407 49.6319 15.2164 49.6975 15.3668C49.9947 16.0482 50.3554 16.7029 50.6347 17.391C52.1444 21.1106 52.843 24.9616 52.5909 28.9895C52.4692 30.9328 52.1791 32.8328 51.6476 34.7004C50.3561 39.2381 48.0321 43.1495 44.6266 46.4307C42.9069 48.0877 41.004 49.4647 38.9184 50.6171C36.2671 52.0821 33.4338 52.9663 30.451 53.4194C30.0458 53.481 29.6521 53.6183 29.253 53.7205C27.6546 53.7205 26.0562 53.7205 24.395 53.6828C24.2068 53.6017 24.0845 53.5396 23.9556 53.5181C23.1218 53.3792 22.2787 53.2861 21.4533 53.1093C19.1246 52.6106 16.9096 51.8033 14.8047 50.6729C12.9338 49.6681 11.1962 48.4783 9.63752 47.0478C7.76936 45.3333 6.12554 43.424 4.8207 41.2297C2.95749 38.0965 1.70607 34.7565 1.23361 31.1321C1.18297 30.7436 1.03846 30.3673 0.9375 29.9854Z" fill="#005050"/>
</svg>
