<svg width="7" height="5" viewBox="0 0 7 5" fill="none" xmlns="http://www.w3.org/2000/svg">
<path fill-rule="evenodd" clip-rule="evenodd" d="M0.964844 0.751224V4.39418C0.964844 4.51116 1.08182 4.61142 1.1988 4.61142H6.32901C6.47941 4.61142 6.59639 4.52787 6.59639 4.37747V0.734513C6.59639 0.684381 6.57968 0.634249 6.54625 0.584116C6.52954 0.567405 6.51283 0.567405 6.47941 0.550695L6.37915 0.517273H1.18208C1.13195 0.517273 1.0484 0.567405 1.01498 0.600827C0.981555 0.634249 0.964844 0.701092 0.964844 0.751224ZM1.41604 3.89286C1.44946 3.89286 1.48288 3.85943 1.5163 3.82601L1.71683 3.64219C1.73354 3.64219 1.73354 3.64219 1.73354 3.64219L1.75025 3.62548V3.60877L1.96749 3.42495C2.03434 3.37482 2.08447 3.30798 2.15131 3.25785L2.6025 2.85679C2.65264 2.82336 2.85317 2.63955 2.86988 2.60612C2.83645 2.58941 2.38526 2.18835 2.33513 2.15493C2.33513 2.13822 2.33513 2.13822 2.31842 2.13822L2.25158 2.07138C2.21815 2.03796 2.20144 2.02125 2.16802 1.98782L1.81709 1.68703C1.75025 1.6369 1.70012 1.58676 1.64999 1.53663L1.46617 1.38623C1.44946 1.36952 1.41604 1.28597 1.41604 1.43637V3.89286ZM3.82239 3.32469C3.72213 3.32469 3.68871 3.32469 3.58844 3.24113L3.30436 2.99047C3.25422 2.94034 3.25422 2.95705 3.25422 2.92363H3.20409C3.18738 2.97376 3.20409 2.94034 3.17067 2.97376L1.95078 4.05996C1.90065 4.09339 1.88394 4.09339 1.86723 4.14352C3.15396 4.14352 4.42398 4.14352 5.71071 4.14352C5.71071 4.1101 5.71071 4.12681 5.694 4.09339L5.66058 4.07668L4.80833 3.30798H4.79162L4.40727 2.95705C4.37385 2.94034 4.37385 2.95705 4.37385 2.92363C4.32372 2.92363 4.27358 2.97376 4.24016 3.00718L3.97279 3.24113C3.93937 3.27456 3.88924 3.32469 3.82239 3.32469ZM4.69135 2.62283C4.74149 2.63955 4.92531 2.80665 4.97544 2.85679L5.86111 3.65891C5.91124 3.70904 6.11177 3.87615 6.14519 3.89286V1.43637C6.14519 1.40295 6.14519 1.36952 6.14519 1.35281C6.12848 1.35281 6.14519 1.3361 6.09506 1.38623L4.87517 2.45573C4.80833 2.50586 4.72478 2.55599 4.69135 2.62283ZM3.80568 2.78994L3.85581 2.7231C3.88924 2.70639 3.88924 2.70639 3.92266 2.67297C3.95608 2.65626 3.95608 2.65626 3.9895 2.62283L4.59109 2.08809C4.6078 2.07138 4.62451 2.07138 4.65793 2.03796L5.20939 1.57005C5.2261 1.53663 5.24281 1.51992 5.25952 1.50321L5.51018 1.28597C5.56032 1.23584 5.71071 1.13557 5.74413 1.06873H1.81709C1.85052 1.11886 1.85052 1.11886 1.93407 1.18571L2.40197 1.58676C2.40197 1.60348 2.40197 1.60348 2.40197 1.60348C2.41868 1.60348 2.41868 1.60348 2.41868 1.60348L3.07041 2.17164L3.23751 2.32204C3.23751 2.32204 3.23751 2.32204 3.23751 2.33875L3.72213 2.75652C3.75555 2.77323 3.75555 2.78994 3.80568 2.78994Z" fill="#005050"/>
</svg>
