<svg width="6" height="5" viewBox="0 0 6 5" fill="none" xmlns="http://www.w3.org/2000/svg">
<path fill-rule="evenodd" clip-rule="evenodd" d="M2.20518 4.71681H3.16857C3.17311 4.67598 3.17008 4.09673 3.17008 4.03926V3.01991C3.17008 2.89438 3.17765 2.86716 3.24722 2.75676C3.28351 2.69777 3.35611 2.61762 3.41055 2.58132C3.48164 2.53141 3.56784 2.5057 3.67069 2.50116C3.90359 2.4936 4.02761 2.58586 4.1002 2.75373C4.18187 2.9458 4.17582 3.12427 4.17582 3.35718V4.5444C4.17582 4.59733 4.1728 4.6669 4.17734 4.71681H5.1498V2.91556C5.14375 2.90648 5.14073 2.82179 5.13922 2.80969C5.11351 2.58888 5.07116 2.38773 4.95168 2.2002C4.84884 2.03686 4.6613 1.87654 4.44201 1.80244C4.3195 1.76312 4.19549 1.74043 4.05181 1.73892C3.92174 1.73741 3.76294 1.75404 3.65254 1.79488C3.51793 1.84478 3.46198 1.89772 3.37879 1.97636C3.34099 2.01417 3.30469 2.04896 3.26839 2.09282L3.17008 2.21683V1.80546H2.20518V4.71681Z" fill="#005050"/>
<path fill-rule="evenodd" clip-rule="evenodd" d="M0.688252 4.71682H1.66223L1.66072 1.80546H0.686739L0.688252 4.71682Z" fill="#005050"/>
<path fill-rule="evenodd" clip-rule="evenodd" d="M0.639855 0.976674C0.68069 1.31091 1.01039 1.45156 1.32648 1.38502C1.63047 1.3215 1.82406 1.02961 1.68643 0.713518C1.64711 0.627312 1.5851 0.556229 1.51855 0.507833C1.4384 0.450362 1.35522 0.423139 1.23876 0.412552C1.03761 0.406503 0.904524 0.44885 0.789582 0.548667C0.683715 0.640923 0.621707 0.775526 0.639855 0.976674Z" fill="#005050"/>
</svg>
