<svg width="6" height="5" viewBox="0 0 6 5" fill="none" xmlns="http://www.w3.org/2000/svg">
<path fill-rule="evenodd" clip-rule="evenodd" d="M0.421875 0.140449H0.872241C0.890176 0.170341 0.955938 0.230124 0.983836 0.260015L1.42225 0.734295C1.46011 0.77415 1.49199 0.814005 1.53185 0.853861C1.62551 0.947521 1.765 1.11292 1.86066 1.20857C1.89852 1.24644 1.9304 1.28829 1.97026 1.32814L2.13566 1.5035C2.16156 1.53539 2.16754 1.53937 2.18946 1.56329C2.26519 1.64499 2.33494 1.7247 2.40867 1.80242C2.44454 1.84028 2.48639 1.88014 2.52026 1.91999C2.55414 1.95786 2.59997 1.9997 2.62787 2.03956C2.6478 2.02362 2.65378 2.00768 2.67371 1.98376C2.68965 1.96583 2.7016 1.94789 2.71755 1.92796L3.16194 1.33213C3.31339 1.1189 3.54853 0.81002 3.696 0.618714L4.05071 0.140449H5.59312V0.150413C5.55127 0.190268 4.98333 0.965456 4.92952 1.03321L4.53695 1.5593C4.44927 1.68285 4.3576 1.78847 4.27191 1.91202C4.15633 2.07942 4.0248 2.22887 3.91122 2.39627C3.85143 2.48594 3.7518 2.60949 3.68006 2.70315C3.6402 2.75696 3.50868 2.92036 3.48476 2.96819C3.50868 2.98613 3.52661 3.00605 3.54853 3.03196L3.95506 3.47037C3.96502 3.47834 3.97897 3.49628 3.98694 3.50624C4.0527 3.58794 4.16828 3.69755 4.248 3.78921C4.3018 3.85099 4.37155 3.91276 4.42137 3.97653L4.77409 4.35715C4.8538 4.43487 4.92753 4.52654 5.00525 4.60824L5.1826 4.79556C5.20054 4.81549 5.22445 4.83542 5.2404 4.85734C5.26829 4.8952 5.33605 4.94502 5.35199 4.98687H4.98931C4.95543 4.98687 4.9076 4.99484 4.88369 4.97292C4.87173 4.96096 4.86974 4.95299 4.85579 4.93904L4.7701 4.84538C4.6884 4.76567 4.61666 4.68197 4.54093 4.59628L3.79364 3.7932C3.77372 3.76928 3.76176 3.75932 3.73785 3.73541L3.39509 3.36077C3.37317 3.33486 3.35922 3.3249 3.3373 3.297C3.31936 3.27508 3.29944 3.25515 3.27752 3.2412C3.25958 3.27109 3.21973 3.32091 3.19581 3.3528C3.04237 3.55606 2.8969 3.75932 2.74345 3.95461L2.62389 4.11603C2.51229 4.25951 2.40667 4.41096 2.29508 4.55444C2.22932 4.64013 2.02406 4.92908 1.97026 4.98687H0.429846C0.447781 4.95299 0.473687 4.92708 0.493615 4.90118C0.617167 4.72582 0.820429 4.47473 0.930032 4.3153C1.00576 4.20371 1.09742 4.09211 1.17913 3.98251C1.30667 3.80715 1.43221 3.6537 1.55178 3.48233C1.67334 3.31095 1.80685 3.15153 1.92642 2.98214C1.95631 2.94029 2.40269 2.3584 2.42062 2.31456C2.39472 2.26474 2.30704 2.193 2.26519 2.1392C2.25522 2.12525 2.24526 2.11728 2.2333 2.10532C2.16555 2.03956 2.11174 1.96981 2.04598 1.90405C1.95432 1.81238 1.83276 1.6709 1.72714 1.56329L1.66935 1.49553C1.62551 1.45169 1.58565 1.40387 1.54181 1.36003C1.5179 1.33611 1.50594 1.31618 1.48203 1.29227C1.37243 1.18466 1.27677 1.0631 1.16916 0.955492L0.790538 0.546974C0.746697 0.501141 0.708834 0.4573 0.664993 0.411466C0.643073 0.387553 0.623145 0.365632 0.601224 0.341719C0.563362 0.301864 0.429846 0.170341 0.421875 0.140449ZM4.21611 0.481213H4.91557C4.9076 0.503133 4.88568 0.529039 4.87173 0.544981L4.53097 1.00332C4.49709 1.04517 4.4672 1.08303 4.43532 1.12886C4.40343 1.17669 4.37155 1.21057 4.33767 1.26039L3.95107 1.77851C3.82553 1.94789 3.67806 2.13322 3.56049 2.30061L3.07425 2.95026C3.05632 2.97417 3.04436 2.9941 3.02643 3.01602C3.00849 3.03794 2.99454 3.05787 2.97661 3.08178C2.90885 3.16946 2.84708 3.25116 2.78132 3.34084L2.14961 4.18777C2.13367 4.20969 2.11772 4.23161 2.10178 4.25154L1.80685 4.64411L1.10938 4.6461L1.34851 4.31929C1.51591 4.10606 1.72515 3.8211 1.88258 3.60389C1.94834 3.51421 2.0141 3.43649 2.07587 3.34682L2.41664 2.89047C2.55414 2.7171 2.71755 2.48594 2.85306 2.30659L3.34328 1.65496C3.37516 1.60912 3.40705 1.56528 3.44092 1.52343C3.51864 1.42778 3.64419 1.24843 3.72987 1.13484C3.76176 1.091 3.79763 1.04915 3.82752 1.00531L4.12046 0.612736C4.15035 0.570888 4.1922 0.527047 4.21611 0.481213Z" fill="#005050"/>
</svg>
