<svg width="24" height="24" viewBox="0 0 24 24" fill="none" xmlns="http://www.w3.org/2000/svg">
<circle cx="11.8254" cy="11.6445" r="11.5481" fill="#0077B7"/>
<path fill-rule="evenodd" clip-rule="evenodd" d="M10.0661 17.4184H12.5312C12.5428 17.3089 12.5351 15.755 12.5351 15.6008V12.8663C12.5351 12.5296 12.5545 12.4566 12.7325 12.1604C12.8253 12.0022 13.0111 11.7871 13.1504 11.6898C13.3323 11.5559 13.5529 11.4869 13.816 11.4747C14.412 11.4545 14.7293 11.7019 14.9151 12.1523C15.1241 12.6675 15.1086 13.1463 15.1086 13.7711V16.9559C15.1086 17.0979 15.1008 17.2845 15.1125 17.4184H17.6008V12.5864C17.5853 12.5621 17.5776 12.3349 17.5737 12.3024C17.5079 11.7101 17.3996 11.1705 17.0938 10.6674C16.8307 10.2292 16.3508 9.79916 15.7897 9.60036C15.4762 9.49488 15.1589 9.43402 14.7913 9.42996C14.4584 9.42591 14.0521 9.47053 13.7696 9.58008C13.4252 9.71396 13.282 9.85596 13.0691 10.0669C12.9724 10.1684 12.8795 10.2617 12.7866 10.3793L12.5351 10.712V9.60848H10.0661V17.4184Z" fill="#F6FFFE"/>
<path fill-rule="evenodd" clip-rule="evenodd" d="M6.1846 17.4184H8.67681L8.67294 9.60848H6.18073L6.1846 17.4184Z" fill="#F6FFFE"/>
<path fill-rule="evenodd" clip-rule="evenodd" d="M6.06076 7.38518C6.16525 8.2818 7.00889 8.65911 7.81769 8.4806C8.59554 8.3102 9.09089 7.52718 8.73873 6.67924C8.63811 6.44799 8.47945 6.2573 8.30917 6.12748C8.10407 5.9733 7.89122 5.90028 7.59324 5.87188C7.07854 5.85565 6.73799 5.96925 6.44388 6.23702C6.17299 6.4845 6.01432 6.84558 6.06076 7.38518Z" fill="#F6FFFE"/>
</svg>
