<svg width="38" height="8" viewBox="0 0 38 8" fill="none" xmlns="http://www.w3.org/2000/svg">
<path d="M6.44984 0.12439C6.46772 2.6343 6.46864 5.14421 6.4692 7.65413C6.46921 7.67179 6.46442 7.68945 6.45745 7.7377C6.24777 7.7377 6.03309 7.74721 5.82034 7.73118C5.76536 7.72704 5.7088 7.64876 5.66583 7.59438C4.79469 6.49177 3.92545 5.38767 3.05579 4.28389C2.36532 3.40756 1.67493 2.53116 0.983912 1.65526C0.954946 1.61855 0.919908 1.58662 0.86139 1.52457C0.86139 3.60997 0.86139 5.66189 0.86139 7.73744C0.578841 7.73744 0.315892 7.73744 0.0362368 7.73409C0.0195312 5.19529 0.0195312 2.65984 0.0195312 0.12439C0.288414 0.12439 0.553533 0.12439 0.836997 0.13682C0.879723 0.1837 0.902622 0.219317 0.928697 0.252432C2.36958 2.08238 3.81073 3.91212 5.25185 5.74188C5.36854 5.89004 5.48519 6.03821 5.63374 6.22687C5.63374 4.15447 5.63374 2.13943 5.63374 0.12439C5.90012 0.12439 6.16649 0.12439 6.44984 0.12439Z" fill="#E3F8F5"/>
<path d="M23.1091 7.87562C22.9967 7.84662 22.9023 7.81397 22.8058 7.78919C21.692 7.50314 20.8747 6.56524 20.7378 5.41608C20.6155 4.3893 20.8529 3.47627 21.5951 2.7269C22.7267 1.58435 25.0761 1.68146 25.8116 3.66753C25.9965 4.16666 26.0616 4.68115 26.0225 5.23599C25.2763 5.23599 24.5367 5.23599 23.7972 5.23599C23.0621 5.23599 22.327 5.23599 21.5931 5.23599C21.5491 5.82022 21.9893 6.55672 22.5137 6.86669C23.2148 7.28103 24.3873 7.31082 25.3239 6.36025C25.4064 6.43157 25.4916 6.50361 25.5749 6.57783C25.6594 6.65313 25.742 6.73059 25.8369 6.81766C25.3361 7.39871 24.7257 7.74839 23.9691 7.86371C23.683 7.87562 23.4045 7.87562 23.1091 7.87562ZM21.6386 4.19787C21.6119 4.33047 21.5852 4.46307 21.5558 4.60877C22.7813 4.60877 23.9774 4.60877 25.2037 4.60877C25.1486 4.37744 25.1131 4.15783 25.0439 3.94944C24.6789 2.85108 23.538 2.37761 22.5647 2.92394C22.0761 3.19816 21.7952 3.63859 21.6386 4.19787Z" fill="#E3F8F5"/>
<path d="M10.3956 7.87562C10.2667 7.8404 10.156 7.80063 10.0426 7.77066C8.67989 7.41033 7.76035 6.04418 7.93869 4.64272C8.10786 3.31332 8.95605 2.34816 10.2031 2.06601C11.8293 1.69809 13.4553 2.73709 13.7422 4.32742C14.0516 6.0429 12.9789 7.58558 11.298 7.84249C11.2862 7.84429 11.2748 7.84865 11.2556 7.86372C10.9695 7.87562 10.6911 7.87562 10.3956 7.87562ZM12.0769 3.15091C11.1528 2.49041 9.90605 2.64259 9.25578 3.49526C8.63383 4.31081 8.62278 5.47179 9.22913 6.29778C10.1243 7.51729 12.0186 7.35517 12.6927 6.00134C13.178 5.0266 12.9367 3.87802 12.0769 3.15091Z" fill="#E3F8F5"/>
<path d="M34.8445 7.87562C34.573 7.81515 34.3159 7.76376 34.0644 7.69223C33.5961 7.55902 33.1689 7.34162 32.7714 7.02803C32.9138 6.82544 33.0506 6.63067 33.1755 6.45298C33.4988 6.62039 33.7977 6.80412 34.1183 6.93454C34.6358 7.14508 35.1738 7.23719 35.7229 7.0414C35.9269 6.96864 36.095 6.84484 36.2063 6.65259C36.4131 6.29507 36.3432 5.8685 35.9819 5.67394C35.6357 5.48754 35.2496 5.3747 34.8794 5.23388C34.5197 5.09705 34.1445 4.99343 33.7995 4.82691C32.689 4.29103 32.9163 2.86981 33.7044 2.36742C34.1236 2.10018 34.5805 1.99985 35.0662 2.01907C35.7108 2.04456 36.3109 2.23178 36.8672 2.55798C36.903 2.57896 36.9347 2.60694 36.9865 2.6451C36.8627 2.85246 36.7411 3.05623 36.6332 3.23685C36.2789 3.09286 35.9462 2.93708 35.5997 2.82273C35.2711 2.71425 34.9232 2.67899 34.5827 2.77202C34.4237 2.81544 34.2576 2.88247 34.1306 2.98377C33.724 3.30808 33.7512 3.8467 34.2044 4.09505C34.5233 4.2698 34.8817 4.37267 35.2229 4.50674C35.6145 4.66065 36.017 4.79174 36.3953 4.97326C36.7514 5.14408 36.9878 5.44228 37.0977 5.84144C37.1095 6.02917 37.1095 6.21107 37.1009 6.42017C36.9769 7.07125 36.6037 7.47761 36.0186 7.6908C35.7975 7.77134 35.5631 7.8151 35.3347 7.87562C35.1769 7.87562 35.0191 7.87562 34.8445 7.87562Z" fill="#E3F8F5"/>
<path d="M28.3996 0.12439C28.4186 0.29915 28.4225 0.473911 28.4225 0.648672C28.4229 2.92836 28.4228 5.20805 28.4229 7.48775C28.4229 7.5644 28.4229 7.64105 28.4229 7.72803C28.1393 7.72803 27.8761 7.72803 27.5834 7.72803C27.5834 5.20602 27.5834 2.68218 27.5835 0.141365C27.8499 0.12439 28.1162 0.12439 28.3996 0.12439Z" fill="#E3F8F5"/>
<path d="M31.261 0.12439C31.278 0.394254 31.278 0.664118 31.278 0.947235C31.006 0.947235 30.739 0.947235 30.4475 0.947235C30.4475 0.683518 30.4475 0.420888 30.4462 0.141324C30.7113 0.12439 30.9777 0.12439 31.261 0.12439Z" fill="#E3F8F5"/>
<path d="M18.9642 2.58767C19.0336 2.42594 19.0607 2.21684 19.1743 2.14537C19.2969 2.06825 19.5005 2.11867 19.6688 2.11574C19.789 2.11365 19.9093 2.11534 20.0629 2.11534C20.0239 2.20978 19.9942 2.28487 19.9622 2.35896C19.2043 4.11238 18.4446 5.86505 17.6911 7.62036C17.6347 7.75174 17.5692 7.80865 17.4242 7.79379C17.2406 7.77497 17.0153 7.83662 16.8817 7.74995C16.7542 7.66724 16.7188 7.43977 16.6473 7.27403C15.9531 5.66379 15.2597 4.05317 14.5663 2.44255C14.5238 2.34382 14.4834 2.24415 14.4301 2.11602C14.7315 2.11602 15.0114 2.11037 15.2906 2.12203C15.3331 2.12381 15.3892 2.19881 15.4107 2.2515C15.874 3.38345 16.3332 4.51708 16.7934 5.65032C16.9406 6.01275 17.0882 6.37499 17.2519 6.77733C17.8305 5.36254 18.3952 3.98173 18.9642 2.58767Z" fill="#E3F8F5"/>
<path d="M31.2846 7.54623C31.2808 7.61656 31.2771 7.66914 31.2728 7.72959C30.9984 7.72959 30.7355 7.72959 30.4603 7.72959C30.4603 5.79344 30.4603 3.86442 30.4603 1.92026C30.725 1.92026 30.9923 1.92026 31.2846 1.92026C31.2846 3.79097 31.2846 5.65972 31.2846 7.54623Z" fill="#E3F8F5"/>
</svg>
