<svg width="65" height="10" viewBox="0 0 65 10" fill="none" xmlns="http://www.w3.org/2000/svg">
<path d="M37.3493 0.714478C37.3623 0.722969 37.3685 0.738067 37.3764 0.738964C37.5026 0.753387 37.6301 0.759319 37.755 0.78076C37.9037 0.806277 38.0511 0.840877 38.1973 0.878515C38.4259 0.93738 38.6454 1.02462 38.8488 1.14254C39.0337 1.24974 39.2109 1.37204 39.3824 1.49978C39.4964 1.58465 39.5985 1.68693 39.6989 1.78832C39.8661 1.95707 40.0034 2.14929 40.1245 2.35363C40.2999 2.64972 40.4058 2.97173 40.4759 3.3058C40.501 3.42534 40.5086 3.54913 40.5168 3.67148C40.5259 3.80797 40.5342 3.9453 40.5291 4.08177C40.5193 4.3501 40.478 4.61444 40.4068 4.87407C40.3405 5.11628 40.2552 5.35191 40.1281 5.56791C40.026 5.74143 39.9098 5.90773 39.788 6.06823C39.7007 6.18325 39.5999 6.28998 39.4944 6.38887C39.2307 6.63591 38.9313 6.82751 38.5948 6.96488C38.3447 7.06699 38.0868 7.13783 37.8239 7.19058C37.6566 7.22415 37.4852 7.2379 37.3155 7.25876C36.8547 7.31536 36.3904 7.27386 35.9299 7.3045C35.6121 7.32564 35.2959 7.30885 34.9794 7.32333C34.9562 7.32439 34.933 7.32346 34.9063 7.32346C34.9063 5.55391 34.9063 3.78912 34.9063 2.0182C34.934 2.0182 34.9593 2.0182 34.9845 2.0182C35.6277 2.0182 36.2709 2.01625 36.9142 2.01938C37.1118 2.02034 37.2569 2.12239 37.3601 2.28711C37.444 2.42105 37.4535 2.56909 37.4428 2.72562C36.9208 2.72562 36.4009 2.72562 35.8709 2.72562C35.8709 2.75462 35.8709 2.77929 35.8709 2.80396C35.8709 3.99576 35.8709 5.18755 35.8709 6.37935C35.8709 6.47612 35.8797 6.48541 35.973 6.49738C36.1697 6.52264 36.3657 6.55851 36.5633 6.57172C36.7564 6.58465 36.9511 6.5774 37.1451 6.57431C37.3792 6.57057 37.603 6.51234 37.8218 6.43306C38.0772 6.34053 38.3109 6.21041 38.5205 6.03639C38.8046 5.80047 39.0248 5.51542 39.1805 5.18146C39.2756 4.97742 39.3403 4.76299 39.3824 4.54149C39.4259 4.31242 39.4451 4.08113 39.4321 3.84908C39.4131 3.51119 39.352 3.18179 39.2153 2.86829C39.1346 2.68341 39.0353 2.50959 38.9083 2.35564C38.7787 2.19871 38.6309 2.0587 38.4616 1.94012C38.2157 1.76779 37.9479 1.64565 37.6595 1.57277C37.4928 1.53065 37.3197 1.49643 37.1487 1.4925C36.5603 1.47897 35.9716 1.4817 35.3831 1.47547C35.0949 1.47241 34.8748 1.28735 34.8164 1.00994C34.7973 0.919233 34.8128 0.821239 34.8124 0.720526C35.656 0.714477 36.4996 0.714477 37.3493 0.714478Z" fill="#E3F8F5"/>
<path d="M4.00743 0.714478C4.02372 0.723037 4.03339 0.738256 4.04428 0.73919C4.39532 0.76928 4.73387 0.85865 5.07123 0.9538C5.07475 0.954793 5.07712 0.959866 5.08671 0.97032C5.03269 1.06836 4.97802 1.16977 4.92127 1.27C4.84628 1.40243 4.76903 1.53358 4.69423 1.66612C4.67672 1.69714 4.66485 1.70805 4.62133 1.69928C4.41856 1.65842 4.21484 1.6194 4.00968 1.59414C3.8219 1.57101 3.63147 1.55178 3.44286 1.55658C3.06762 1.56614 2.70281 1.63693 2.36533 1.81145C2.20529 1.89421 2.05688 1.99346 1.92035 2.11394C1.6816 2.32465 1.51193 2.57917 1.38604 2.86925C1.29511 3.0788 1.23157 3.2948 1.21406 3.52105C1.19635 3.74976 1.17902 3.98057 1.19065 4.20898C1.20681 4.52631 1.27397 4.83778 1.39646 5.1327C1.48914 5.35585 1.60792 5.56549 1.76408 5.7527C1.97355 6.0038 2.21741 6.21078 2.51589 6.34816C2.71392 6.4393 2.91885 6.51182 3.13701 6.53541C3.29758 6.55277 3.45919 6.5742 3.62004 6.57197C3.87025 6.5685 4.11936 6.53372 4.35692 6.45261C4.58625 6.37432 4.80995 6.27955 5.03623 6.19229C5.04384 6.18936 5.05256 6.18932 5.06685 6.1869C5.0687 6.20739 5.07171 6.2253 5.07173 6.24322C5.07203 6.50994 5.07068 6.77667 5.07311 7.04337C5.07355 7.09092 5.05749 7.10804 5.01319 7.12168C4.74872 7.20314 4.48197 7.27574 4.20702 7.30938C4.00892 7.33362 3.80951 7.34941 3.61023 7.3612C3.33829 7.37728 3.06951 7.34811 2.80118 7.30046C2.43016 7.23457 2.07812 7.11462 1.74201 6.94796C1.51167 6.83376 1.30219 6.68826 1.10747 6.51798C0.775283 6.22748 0.522743 5.88005 0.337715 5.48273C0.218914 5.22763 0.13736 4.9594 0.0891413 4.68154C0.0766885 4.60978 0.0619202 4.53842 0.0429865 4.46882C0.0377575 4.19942 0.0377575 3.92808 0.0429687 3.65265C0.0531855 3.63985 0.0607181 3.63171 0.0628223 3.62235C0.102104 3.44767 0.132064 3.27033 0.181679 3.09866C0.245742 2.877 0.344517 2.66882 0.457733 2.46693C0.587006 2.2364 0.738644 2.02186 0.919511 1.83109C1.05566 1.68749 1.20396 1.55337 1.35875 1.42994C1.6268 1.21618 1.92813 1.05604 2.24998 0.93945C2.53244 0.837135 2.8228 0.761969 3.12439 0.739036C3.13304 0.738378 3.14058 0.722995 3.14863 0.714478C3.43288 0.714478 3.71713 0.714478 4.00743 0.714478Z" fill="#E3F8F5"/>
<path d="M58.6469 9.28552C58.6236 9.25476 58.6092 9.22183 58.5884 9.19356C58.3655 8.8902 58.1415 8.58762 57.9181 8.28465C57.9045 8.26619 57.8928 8.24633 57.8717 8.21416C60.1102 8.21416 62.3384 8.21416 64.5727 8.21415C64.5787 8.21414 64.5787 8.22059 64.5733 8.22382C64.5494 8.23118 64.5312 8.23612 64.5127 8.23932C64.234 8.28731 63.9551 8.33387 63.6767 8.3832C63.3194 8.44649 62.9626 8.51196 62.6055 8.57649C62.2485 8.64102 61.8914 8.70474 61.5346 8.77033C61.2401 8.82447 60.9463 8.88249 60.6516 8.93577C60.305 8.99845 59.9576 9.05728 59.6107 9.11889C59.3511 9.165 59.0918 9.21266 58.8326 9.26082C58.8235 9.26253 58.8167 9.277 58.8088 9.28552C58.7568 9.28552 58.7049 9.28552 58.6469 9.28552Z" fill="#E3F8F5"/>
<path d="M16.7151 5.37429C16.6335 4.66407 16.5518 3.95974 16.4691 3.24739C15.8699 4.67661 15.2744 6.09679 14.6722 7.53313C14.6196 7.42316 14.5745 7.33058 14.5309 7.23728C14.4583 7.082 14.3871 6.92611 14.3147 6.77072C14.1324 6.37928 13.9497 5.98804 13.7674 5.5966C13.6585 5.3628 13.5503 5.1287 13.4415 4.89486C13.2621 4.50918 13.0822 4.12371 12.903 3.73792C12.8266 3.57355 12.7516 3.40859 12.6696 3.23019C12.6484 3.37016 12.6292 3.49538 12.6104 3.62065C12.5913 3.74822 12.5725 3.87586 12.5535 4.00344C12.5338 4.13518 12.5136 4.26683 12.4943 4.39861C12.4715 4.55351 12.45 4.7086 12.4266 4.86341C12.4071 4.99294 12.3847 5.12205 12.3655 5.25161C12.3464 5.3793 12.3307 5.50748 12.3117 5.63518C12.2919 5.76889 12.2689 5.90213 12.2491 6.03586C12.2226 6.21581 12.1963 6.39582 12.1731 6.57622C12.1568 6.7024 12.1482 6.82956 12.1321 6.95576C12.1173 7.07115 12.0981 7.18601 12.0778 7.30056C12.0754 7.31418 12.0537 7.33454 12.0409 7.33465C11.7982 7.33669 11.5555 7.33615 11.308 7.33615C11.317 7.2595 11.3237 7.18861 11.3338 7.1182C11.3538 6.97783 11.3764 6.83781 11.3968 6.69747C11.4272 6.48822 11.4565 6.27883 11.4864 6.0695C11.5168 5.85588 11.5461 5.64208 11.5782 5.42869C11.6061 5.24271 11.6387 5.05742 11.6665 4.87141C11.6946 4.68303 11.7177 4.49388 11.7461 4.30554C11.7779 4.09452 11.8147 3.88425 11.8467 3.67326C11.8711 3.5122 11.8902 3.35036 11.9137 3.18916C11.9363 3.0344 11.9619 2.88007 11.9855 2.72546C12.0092 2.5709 12.0324 2.41627 12.0551 2.26156C12.0649 2.1946 12.0701 2.12675 12.084 2.06072C12.0876 2.04379 12.1166 2.02016 12.1341 2.02004C12.4739 2.01762 12.8138 2.01764 13.1537 2.01999C13.171 2.02011 13.1966 2.04203 13.2041 2.0598C13.3749 2.46654 13.5438 2.8741 13.7129 3.28153C13.9023 3.73762 14.0913 4.19385 14.281 4.64979C14.401 4.93826 14.522 5.22634 14.6428 5.51448C14.6443 5.51795 14.6493 5.51992 14.6578 5.52667C15.1266 4.3576 15.5947 3.19031 16.0647 2.0182C16.2212 2.0182 16.3802 2.01821 16.5391 2.0182C16.7177 2.0182 16.8962 2.01878 17.0747 2.01757C17.1008 2.0174 17.132 2.03171 17.1491 1.9884C17.1541 1.97554 17.2039 1.9803 17.2389 1.97633C17.254 2.098 17.2696 2.2149 17.2829 2.33206C17.3007 2.49009 17.317 2.6483 17.3336 2.80648C17.3472 2.93739 17.3586 3.06856 17.374 3.19926C17.3883 3.32109 17.4077 3.44233 17.423 3.56406C17.4379 3.68187 17.4495 3.80008 17.4641 3.91791C17.4792 4.03969 17.4971 4.16111 17.5121 4.2829C17.5272 4.40499 17.5396 4.52741 17.5544 4.64954C17.5699 4.77771 17.5875 4.90564 17.603 5.0338C17.6176 5.15374 17.6303 5.27392 17.6447 5.39389C17.6608 5.52845 17.6786 5.66282 17.6942 5.79743C17.7087 5.92179 17.7205 6.04647 17.7351 6.17081C17.7502 6.29903 17.7677 6.42697 17.7835 6.55511C17.7936 6.63716 17.8025 6.71937 17.8123 6.80147C17.8291 6.94242 17.8465 7.08331 17.8629 7.22432C17.8653 7.24543 17.8632 7.26707 17.8632 7.29382C17.8427 7.29518 17.8241 7.29748 17.8055 7.29749C17.5301 7.29772 17.2548 7.2964 16.9795 7.29872C16.9253 7.29918 16.9122 7.27796 16.9075 7.22826C16.8943 7.087 16.8739 6.94643 16.8588 6.80531C16.8541 6.76062 16.8608 6.71475 16.8565 6.66996C16.8413 6.50955 16.8239 6.34932 16.8066 6.18911C16.794 6.07317 16.7801 5.95738 16.767 5.84149C16.7497 5.68773 16.7324 5.53395 16.7151 5.37429Z" fill="#E3F8F5"/>
<path d="M62.9361 5.34298C62.852 5.62343 62.7366 5.8845 62.5762 6.12283C62.429 6.3415 62.2576 6.53926 62.0598 6.71684C61.8676 6.88945 61.6581 7.03342 61.4288 7.14645C61.2066 7.25596 60.9716 7.33212 60.726 7.37719C60.4952 7.41955 60.2634 7.44585 60.0297 7.43837C59.5179 7.42198 59.0274 7.31594 58.5729 7.06963C58.3048 6.92437 58.0689 6.73654 57.872 6.50612C57.5838 6.16884 57.388 5.78176 57.2844 5.34791C57.2217 5.08524 57.1949 4.81964 57.2104 4.55172C57.2226 4.34195 57.2599 4.13523 57.3213 3.93195C57.4139 3.62538 57.5522 3.3434 57.7359 3.08248C57.8665 2.89705 58.0235 2.73671 58.1932 2.58659C58.3811 2.42029 58.5894 2.28621 58.8138 2.17761C59.0641 2.05645 59.3276 1.97085 59.603 1.92912C59.7368 1.90885 59.8724 1.89688 60.0076 1.89054C60.1454 1.88408 60.2845 1.87941 60.4216 1.8911C60.7453 1.91868 61.061 1.98552 61.3641 2.10765C61.6036 2.20415 61.8278 2.32743 62.0295 2.48723C62.1867 2.61168 62.3354 2.74786 62.4496 2.9149C62.5492 3.06049 62.6533 3.20469 62.7354 3.36005C62.8665 3.60797 62.9445 3.87596 62.9917 4.15305C63.0291 4.373 63.0428 4.59496 63.0265 4.81593C63.0145 4.97859 62.9724 5.13902 62.9438 5.30047C62.9416 5.31296 62.9403 5.3256 62.9361 5.34298ZM61.5639 3.33458C61.5328 3.29468 61.5023 3.25437 61.4706 3.21495C61.3144 3.02037 61.1227 2.87341 60.8971 2.76457C60.7124 2.67546 60.5194 2.61811 60.3182 2.60212C60.0977 2.58458 59.8758 2.59501 59.6602 2.65737C59.3909 2.7353 59.1463 2.85773 58.9281 3.03787C58.7369 3.19568 58.5928 3.38771 58.4827 3.60477C58.3348 3.8961 58.2673 4.21105 58.2561 4.53581C58.251 4.68411 58.2603 4.83493 58.2825 4.98169C58.3198 5.22894 58.3936 5.4658 58.5081 5.69111C58.6432 5.95707 58.8212 6.18432 59.0579 6.36563C59.314 6.56183 59.6027 6.686 59.923 6.71349C60.19 6.73641 60.4565 6.71301 60.7154 6.62732C60.9717 6.54252 61.2042 6.41531 61.3925 6.2247C61.5067 6.10903 61.5985 5.96882 61.6881 5.83158C61.8619 5.56517 61.9409 5.2643 61.969 4.95136C61.9824 4.80153 61.973 4.64948 61.9709 4.49847C61.9682 4.30509 61.924 4.11847 61.8674 3.93508C61.8012 3.72115 61.7076 3.52007 61.5639 3.33458Z" fill="#E3F8F5"/>
<path d="M6.20346 6.94C5.93093 6.76718 5.71944 6.53949 5.53743 6.28174C5.32227 5.97705 5.18294 5.63891 5.10243 5.27683C5.04663 5.02584 5.02919 4.7691 5.04834 4.51341C5.07853 4.11024 5.19422 3.72997 5.3876 3.37362C5.55108 3.07233 5.76653 2.81201 6.02234 2.58739C6.28852 2.35367 6.59217 2.17442 6.92788 2.06198C7.12661 1.99542 7.33545 1.95635 7.54203 1.91691C7.6728 1.89194 7.80775 1.87863 7.94088 1.87828C8.27298 1.87741 8.60003 1.92033 8.92066 2.01194C9.24712 2.10522 9.54954 2.24927 9.81956 2.45222C10.1311 2.68639 10.3757 2.98078 10.5572 3.32828C10.7036 3.6085 10.7948 3.9061 10.8377 4.21609C10.8648 4.412 10.8748 4.61336 10.864 4.8107C10.8468 5.12248 10.7644 5.42146 10.6371 5.70868C10.514 5.9866 10.3475 6.23383 10.1487 6.46216C9.81916 6.84073 9.4144 7.10565 8.94259 7.27109C8.73069 7.3454 8.51397 7.39905 8.28905 7.41382C8.14443 7.42332 7.99927 7.44274 7.85512 7.43729C7.531 7.42503 7.21108 7.3834 6.90077 7.27796C6.65499 7.19445 6.42137 7.08992 6.20346 6.94ZM6.13166 4.15882C6.11834 4.27254 6.09865 4.38596 6.09309 4.50006C6.08301 4.70707 6.10241 4.91219 6.14218 5.11634C6.22481 5.54047 6.40578 5.91457 6.7143 6.2176C6.82441 6.32576 6.95918 6.41162 7.09122 6.49398C7.29743 6.62259 7.52981 6.68666 7.76978 6.70021C7.94349 6.71001 8.12201 6.70327 8.29325 6.67395C8.66515 6.61025 8.99111 6.44203 9.25858 6.17421C9.43652 5.99604 9.57112 5.78653 9.6694 5.55249C9.76734 5.31926 9.81912 5.07597 9.83199 4.82639C9.84005 4.67006 9.82158 4.51188 9.80862 4.35507C9.78823 4.10817 9.71104 3.87643 9.60619 3.65353C9.48233 3.39019 9.30369 3.17027 9.07958 2.98483C8.81234 2.76369 8.50509 2.6336 8.16303 2.60229C7.88641 2.57697 7.61113 2.60585 7.34602 2.70235C6.9758 2.83711 6.6746 3.06009 6.45282 3.38758C6.29555 3.6198 6.19169 3.87413 6.13166 4.15882Z" fill="#E3F8F5"/>
<path d="M21.4774 5.08053C21.4687 5.02256 21.4547 4.9705 21.4536 4.91817C21.4504 4.76931 21.4426 4.61953 21.4547 4.47159C21.4748 4.2268 21.5288 3.98768 21.6163 3.75718C21.7113 3.50715 21.8347 3.27216 21.9934 3.05665C22.1084 2.90039 22.2379 2.75797 22.3827 2.62706C22.578 2.45061 22.7922 2.30375 23.0263 2.18826C23.2863 2.06001 23.5587 1.9632 23.849 1.9275C23.9689 1.91276 24.089 1.89615 24.2095 1.89058C24.3475 1.8842 24.4867 1.87979 24.624 1.89103C24.9473 1.91748 25.262 1.98568 25.565 2.10628C25.8348 2.21368 26.0823 2.35873 26.305 2.54282C26.5237 2.72357 26.7057 2.93848 26.8556 3.18047C26.9676 3.36129 27.0543 3.55361 27.118 3.75547C27.1804 3.95312 27.2282 4.15492 27.2352 4.36363C27.2408 4.53272 27.2563 4.70273 27.245 4.87084C27.23 5.09434 27.1772 5.31269 27.1025 5.52491C26.9887 5.84762 26.8219 6.13931 26.6024 6.40204C26.3772 6.67153 26.1123 6.89139 25.8071 7.06498C25.5306 7.22223 25.2342 7.324 24.9242 7.38504C24.7956 7.41034 24.6629 7.41534 24.5318 7.42614C24.4403 7.43367 24.3481 7.44234 24.2567 7.43845C23.8504 7.42117 23.4542 7.35196 23.0766 7.19396C22.833 7.09205 22.6074 6.9595 22.4021 6.79387C22.2219 6.64844 22.0745 6.47248 21.9417 6.28343C21.7152 5.96093 21.5719 5.60358 21.4928 5.21921C21.4839 5.17573 21.4827 5.13066 21.4774 5.08053ZM25.0915 6.55613C25.2252 6.49281 25.3547 6.42458 25.474 6.33395C25.7087 6.1557 25.8927 5.93532 26.0184 5.6728C26.1855 5.32419 26.2595 4.95477 26.2312 4.56441C26.2172 4.37114 26.1925 4.18222 26.1387 3.99627C26.0516 3.69527 25.9103 3.4236 25.7014 3.18977C25.5324 3.00057 25.3334 2.84908 25.1008 2.74495C24.9282 2.66772 24.7476 2.61282 24.5592 2.60092C24.2597 2.582 23.9654 2.6117 23.6835 2.72694C23.4817 2.80942 23.2975 2.9187 23.1361 3.06512C22.9301 3.25215 22.7741 3.47532 22.6668 3.73195C22.5665 3.97206 22.5045 4.22241 22.5002 4.48262C22.4974 4.64859 22.5034 4.81661 22.5271 4.98058C22.5508 5.1443 22.5915 5.30735 22.6427 5.46486C22.7123 5.67891 22.8252 5.87296 22.9643 6.05066C23.105 6.23038 23.2765 6.37589 23.4749 6.48643C23.6758 6.59834 23.8893 6.67253 24.1221 6.69397C24.3236 6.71253 24.523 6.70973 24.7198 6.6686C24.8429 6.64288 24.9618 6.59736 25.0915 6.55613Z" fill="#E3F8F5"/>
<path d="M53.9166 7.32347C53.7126 7.32347 53.5151 7.32347 53.3073 7.32347C53.3073 5.55549 53.3073 3.79156 53.3073 2.01821C53.3222 2.01821 53.3448 2.01821 53.3675 2.01821C53.9202 2.01821 54.4731 2.01187 55.0257 2.02097C55.2897 2.02532 55.5455 2.08956 55.7888 2.19834C55.9888 2.28774 56.1647 2.40952 56.3099 2.57304C56.4552 2.73657 56.5545 2.92522 56.5873 3.14298C56.6037 3.25172 56.613 3.36262 56.6128 3.47252C56.6124 3.6703 56.5532 3.85301 56.4502 4.02211C56.3045 4.26112 56.09 4.42471 55.8551 4.5646C55.7431 4.6313 55.6251 4.68784 55.51 4.74885C56.1462 5.60104 56.784 6.45542 57.4321 7.32347C57.3009 7.32347 57.1918 7.32347 57.0826 7.32347C56.8503 7.32347 56.618 7.32214 56.3858 7.32467C56.3431 7.32514 56.3157 7.31198 56.2916 7.27898C56.1602 7.09857 56.0276 6.91898 55.8956 6.73894C55.7438 6.53184 55.592 6.32477 55.4407 6.1173C55.2907 5.91159 55.1416 5.70514 54.9916 5.49946C54.8167 5.25976 54.6411 5.0206 54.4659 4.78111C54.4107 4.70566 54.356 4.62992 54.2926 4.5427C54.2926 5.47615 54.2926 6.39532 54.2926 7.32347C54.1663 7.32347 54.0447 7.32347 53.9166 7.32347ZM54.2798 2.68686C54.2798 3.2885 54.2798 3.89015 54.2798 4.49596C54.2984 4.49596 54.3139 4.49927 54.3273 4.49546C54.5227 4.44018 54.7207 4.39216 54.9122 4.32553C55.0916 4.2631 55.262 4.17285 55.397 4.03678C55.569 3.86333 55.6644 3.65439 55.6473 3.40136C55.6336 3.19857 55.5524 3.02694 55.4036 2.89637C55.2426 2.75522 55.0429 2.68875 54.8303 2.67845C54.6502 2.66973 54.4692 2.67767 54.2798 2.68686Z" fill="#E3F8F5"/>
<path d="M31.524 6.49397C31.7286 6.76811 31.93 7.03888 32.1388 7.31967C32.1073 7.32153 32.091 7.32331 32.0748 7.32332C31.7457 7.32349 31.4165 7.32416 31.0874 7.32201C31.0629 7.32185 31.0294 7.30794 31.0155 7.28907C30.7679 6.95411 30.5233 6.61695 30.2769 6.28114C29.9753 5.87015 29.6721 5.46035 29.3707 5.04923C29.2619 4.90092 29.1566 4.7501 29.049 4.60096C29.0384 4.58626 29.0226 4.57529 29.004 4.55764C29.004 5.48015 29.004 6.39746 29.004 7.3191C28.6773 7.3191 28.3556 7.3191 28.0218 7.3191C28.0218 5.55697 28.0218 3.79295 28.0218 2.01821C28.035 2.01821 28.0575 2.01821 28.08 2.01821C28.6329 2.01821 29.1859 2.01146 29.7386 2.02116C30.0015 2.02578 30.2573 2.08875 30.4993 2.19823C30.6706 2.27572 30.8263 2.37509 30.9598 2.50875C31.1581 2.70724 31.2774 2.94339 31.3153 3.22235C31.3501 3.47788 31.3203 3.72222 31.1983 3.95077C31.09 4.15338 30.9351 4.31728 30.745 4.4435C30.578 4.55441 30.4024 4.65234 30.227 4.75813C30.3232 4.88711 30.4263 5.02518 30.5291 5.16354C30.6628 5.34346 30.7955 5.52412 30.9298 5.70355C31.1023 5.93402 31.2761 6.16355 31.4493 6.39357C31.4734 6.42566 31.4969 6.45826 31.524 6.49397ZM28.9779 3.57364C28.9779 3.88034 28.9779 4.18703 28.9779 4.49296C28.993 4.49475 28.9997 4.49716 29.0057 4.49601C29.0471 4.48809 29.0885 4.4797 29.1297 4.47096C29.4437 4.4044 29.7464 4.30994 30.0098 4.11712C30.2078 3.97214 30.3221 3.77389 30.3434 3.53393C30.3728 3.20218 30.219 2.92736 29.913 2.77761C29.7799 2.71247 29.6368 2.68254 29.4903 2.6778C29.3214 2.67233 29.1522 2.67653 28.9779 2.67653C28.9779 2.97669 28.9779 3.26871 28.9779 3.57364Z" fill="#E3F8F5"/>
<path d="M48.9763 3.53274C48.8665 3.73639 48.7983 3.94979 48.756 4.17112C48.7389 4.26023 48.7324 4.35197 48.7285 4.44283C48.724 4.5506 48.7261 4.65872 48.7278 4.76665C48.7312 4.98744 48.7693 5.20224 48.8363 5.41287C48.9025 5.62078 48.9977 5.81414 49.1308 5.9856C49.2721 6.16775 49.4419 6.31999 49.6453 6.43434C49.7909 6.5162 49.9421 6.5831 50.1034 6.62268C50.2256 6.65265 50.3508 6.67126 50.4754 6.68995C50.5425 6.70001 50.6111 6.70125 50.6791 6.70359C50.9866 6.71422 51.2857 6.66271 51.5807 6.581C51.613 6.57207 51.6457 6.56514 51.6819 6.5564C51.6819 6.02853 51.6819 5.49976 51.6819 4.96665C51.9647 4.82837 52.2463 4.69067 52.5383 4.54788C52.5418 4.59524 52.5483 4.63895 52.5477 4.68258C52.5451 4.88627 52.5379 5.08993 52.5373 5.29361C52.5369 5.43951 52.5467 5.5854 52.5478 5.73133C52.5496 5.99473 52.5482 6.25815 52.5481 6.52156C52.5481 6.71967 52.5477 6.91779 52.5486 7.1159C52.5487 7.15406 52.5344 7.17476 52.4958 7.18264C52.3767 7.20694 52.2585 7.23573 52.1391 7.25843C51.9491 7.29456 51.7591 7.33145 51.5678 7.35987C51.4297 7.3804 51.2898 7.39259 51.1502 7.39971C50.9685 7.40897 50.7863 7.41309 50.6043 7.4131C50.2064 7.41313 49.8169 7.35468 49.4421 7.21884C49.166 7.11875 48.9114 6.97809 48.6802 6.79388C48.3506 6.53126 48.1012 6.20771 47.928 5.82555C47.8237 5.5955 47.7464 5.35625 47.7207 5.1031C47.7067 4.96398 47.6816 4.82437 47.6845 4.68545C47.692 4.31898 47.7532 3.96185 47.9038 3.62331C48.0201 3.36184 48.1682 3.12229 48.3513 2.90159C48.5727 2.63487 48.8342 2.41993 49.1354 2.25173C49.4146 2.09584 49.7117 1.98864 50.0283 1.94113C50.1787 1.91857 50.3302 1.89916 50.4819 1.89102C50.6411 1.88248 50.802 1.87798 50.9604 1.89186C51.1765 1.91081 51.391 1.94867 51.6062 1.97878C51.6722 1.98803 51.7382 1.99847 51.8149 2.00998C51.7702 2.09162 51.7312 2.16407 51.6911 2.2358C51.6192 2.36405 51.5464 2.49182 51.4742 2.61992C51.454 2.65587 51.4406 2.67987 51.3828 2.66693C51.0733 2.59767 50.7574 2.58237 50.4425 2.60233C50.2162 2.61667 49.9961 2.67347 49.787 2.77082C49.5766 2.86882 49.3881 2.99601 49.2372 3.17072C49.1414 3.28165 49.0644 3.40879 48.9763 3.53274Z" fill="#E3F8F5"/>
<path d="M43.2544 6.5748C43.5057 6.5748 43.7505 6.5748 43.9992 6.5748C43.9992 6.81645 43.9992 7.05377 43.9992 7.29438C43.0088 7.29438 42.0202 7.29438 41.0264 7.29438C41.0264 5.54416 41.0264 3.79255 41.0264 2.03603C41.9207 2.03603 42.8178 2.03603 43.7226 2.03603C43.6764 2.12517 43.6334 2.21099 43.5877 2.29537C43.5246 2.41182 43.4582 2.52643 43.396 2.64336C43.369 2.69429 43.3372 2.71763 43.2742 2.71705C42.8806 2.71341 42.487 2.71521 42.0934 2.71521C42.0701 2.71521 42.0467 2.71521 42.0193 2.71521C42.0193 3.17587 42.0193 3.63259 42.0193 4.096C42.4339 4.096 42.8477 4.096 43.2643 4.096C43.2643 4.33844 43.2643 4.57424 43.2643 4.81672C42.8507 4.81672 42.437 4.81672 42.0128 4.81672C42.0128 5.40416 42.0128 5.98502 42.0128 6.5748C42.4197 6.5748 42.8338 6.5748 43.2544 6.5748Z" fill="#E3F8F5"/>
<path d="M18.6385 5.09036C18.6385 4.06909 18.6385 3.05428 18.6385 2.0353C19.5288 2.0353 20.414 2.0353 21.3089 2.0353C21.26 2.12421 21.2141 2.2112 21.1651 2.2964C21.0943 2.41924 21.0182 2.53908 20.9511 2.66383C20.9288 2.70528 20.9051 2.71617 20.8621 2.71603C20.4642 2.71474 20.0663 2.71527 19.6684 2.71527C19.6427 2.71527 19.617 2.71527 19.586 2.71527C19.586 3.17475 19.586 3.63133 19.586 4.09343C20.0106 4.09343 20.4356 4.09343 20.8661 4.09343C20.8661 4.34031 20.8661 4.58179 20.8661 4.83106C20.4492 4.83106 20.0313 4.83106 19.6066 4.83106C19.6066 4.90469 19.6069 4.97078 19.6065 5.03687C19.6023 5.74801 19.5981 6.45916 19.5932 7.17031C19.5928 7.224 19.5874 7.27767 19.5842 7.33366C19.2667 7.33366 18.9575 7.33366 18.6385 7.33366C18.6385 6.58743 18.6385 5.84212 18.6385 5.09036Z" fill="#E3F8F5"/>
<path d="M46.8687 7.32347C46.1614 7.32347 45.4606 7.32347 44.7558 7.32347C44.7558 5.55476 44.7558 3.79021 44.7558 2.02193C45.0712 2.02193 45.386 2.02193 45.7049 2.02193C45.7049 3.54194 45.7049 5.05976 45.7049 6.58541C46.3526 6.58541 46.9963 6.58541 47.6534 6.58541C47.6099 6.69786 47.5708 6.79912 47.5316 6.90032C47.4868 7.01558 47.4415 7.1306 47.3974 7.24608C47.3779 7.29697 47.3547 7.32911 47.288 7.32563C47.1507 7.31845 47.0128 7.32347 46.8687 7.32347Z" fill="#E3F8F5"/>
<path d="M34.1799 5.50342C34.1799 6.11168 34.1799 6.71348 34.1799 7.31936C33.8616 7.31936 33.5485 7.31936 33.2288 7.31936C33.2276 7.30282 33.225 7.28448 33.2249 7.26612C33.2204 6.29895 33.2156 5.33179 33.2121 4.36462C33.2105 3.9323 33.2118 3.49998 33.2118 3.06765C33.2118 2.95265 33.2118 2.83765 33.2118 2.71527C33.1703 2.71527 33.1474 2.71527 33.1244 2.71527C32.8212 2.71527 32.5179 2.71664 32.2146 2.71488C31.9187 2.71316 31.6991 2.54912 31.641 2.25231C31.6268 2.1801 31.6388 2.10276 31.6388 2.023C32.4803 2.023 33.3198 2.023 34.1768 2.023C34.1832 2.60279 34.1791 3.18204 34.1798 3.76122C34.1805 4.3398 34.1799 4.91838 34.1799 5.50342Z" fill="#E3F8F5"/>
</svg>
