<svg width="1000" height="338" viewBox="0 0 1000 338" fill="none" xmlns="http://www.w3.org/2000/svg">
<g clip-path="url(#clip0_351_797)">
<path d="M287.094 297.734C277.413 300.075 267.703 302.3 258.058 304.779C234.833 310.749 212.934 319.233 196.935 338.374C196.674 338.777 196.07 338.777 195.013 338.147C194.598 331.646 194.636 325.777 195.078 319.68C206.25 312.423 217.018 305.392 227.632 298.462C213.808 293.536 203.28 283.929 194.635 271.306C194.625 258.972 194.648 247.264 195.076 235.255C198.185 226.357 201.283 217.855 203.435 209.121C204.599 204.396 205.529 198.799 204.038 194.465C202.578 190.222 197.91 187.083 194.627 182.836C194.626 160.088 194.649 137.963 195.086 115.518C200.41 95.0948 208.782 76.5203 220.273 59.3451C223.817 54.0474 227.572 48.8902 231.347 43.1224C231.868 38.4372 232.272 34.2983 233.16 30.2695C237.546 31.9135 241.547 33.2381 245.333 35.0193C257.725 40.8495 270.713 44.2515 284.368 45.7277C284.367 50.3072 284.369 54.2902 283.781 58.3675C272.341 56.2555 261.435 54.2823 250.671 51.7131C247.035 50.8452 244.329 50.6955 242.008 53.8925C237.038 60.7383 231.463 67.215 227.127 74.4375C217.579 90.3388 210.861 107.462 206.761 125.644C215.66 119.149 224.251 112.816 232.908 106.574C249.536 94.5845 266.202 82.6465 283.164 71.1304C284.239 76.3394 285.002 81.1051 285.57 86.2856C284.184 87.7192 283.073 88.8535 281.791 89.7396C262.733 102.908 243.523 115.863 224.629 129.263C214.83 136.212 208.165 145.741 203.644 158.74C209.556 155.068 214.116 152.425 218.481 149.492C239.961 135.055 261.39 120.542 283.258 106.369C283.912 111.862 284.143 117.042 283.927 122.332C282.336 123.351 281.193 124.262 279.576 125.164C277.121 126.503 275.138 127.85 272.778 129.423C270.669 130.973 268.937 132.297 267.227 133.602C272.423 142.277 271.828 149.643 265.727 153.92C260.825 157.355 251.774 154.843 245.567 148.053C244.019 149.095 242.416 150.176 240.338 151.189C237.832 152.887 235.801 154.653 233.321 156.448C231.476 157.499 230.081 158.52 228.159 159.926C232.57 163.661 236.18 167.459 240.461 170.213C257.338 181.068 274.263 181.013 287.052 165.165C287.539 171.348 288.012 176.909 288.247 182.875C276.217 192.106 262.968 192.256 249.538 188.987C236.103 185.717 225.776 177.093 216.312 167.092C215.132 168.084 214.353 168.882 213.444 169.482C205.786 174.536 205.761 174.541 211.633 181.029C216.557 186.471 220.668 192.199 219.024 200.169C218.261 203.866 217.064 207.553 216.941 211.273C216.87 213.433 217.92 216.381 219.517 217.73C239.342 234.474 261.748 236.544 285.732 229.388C286.196 234.091 286.665 238.209 286.834 242.757C282.666 244.204 278.842 245.857 274.921 246.129C252.517 247.686 230.905 245.683 212.466 229.795C208.777 238.014 205.271 245.695 201.936 253.448C201.598 254.233 202.092 255.549 202.524 256.466C209.643 271.578 220.564 282.269 236.967 287.172C253.664 292.163 269.686 289.354 285.776 284.746C286.293 289.441 286.694 293.587 287.094 297.734Z" fill="white"/>
<path d="M194.67 235.553C194.648 247.261 194.625 258.969 194.261 271.583C186.126 284.578 175.035 292.915 162.169 298.711C173.635 306.187 184.154 313.046 194.673 319.905C194.635 325.774 194.598 331.644 194.559 338.144C193.953 338.775 193.348 338.775 192.29 338.775C187.97 334.566 184.625 329.671 180.146 326.268C161.736 312.279 140.199 305.963 117.794 302.04C116.031 301.731 114.312 301.172 112.054 299.996C111.53 295.275 111.524 291.287 112.073 287.246C120.902 288.057 129.227 289.982 137.439 289.584C159.469 288.517 175.967 278.018 185.894 258.018C186.795 256.204 187.407 253.468 186.698 251.768C183.706 244.593 180.161 237.649 176.67 230.306C174.229 231.998 171.926 233.764 169.466 235.273C151.915 246.045 132.95 248.674 112.912 244.362C113.395 240.026 113.875 236.28 114.987 232.564C134.774 233.832 153.095 232.262 168.574 218.842C171.763 216.077 172.884 214.141 171.945 209.854C169.714 199.677 168.118 189.896 177.71 181.229C184.407 175.177 183.404 174.056 174.854 168.744C174.119 168.288 173.272 168.013 173.019 167.899C167.425 172.479 162.51 177.175 156.954 180.919C143.004 190.318 127.996 194.215 111.537 187.296C111.986 182.595 112.429 178.488 113.359 174.506C128.984 183.176 150.164 172.414 160.068 159.55C158.518 158.11 156.91 156.617 155.093 154.715C152.771 153.205 150.658 152.104 148.217 150.655C144.895 148.152 142.696 148.087 140.051 151.475C136.504 156.019 127.747 156.501 122.918 153.19C118.541 150.188 117.062 143.743 119.49 138.066C120.161 136.498 120.955 134.983 121.817 133.181C119.693 131.694 117.887 130.43 115.922 128.743C114.366 127.186 112.97 126.054 111.573 124.332C112.061 119.661 112.55 115.581 113.507 111.576C137.183 126.967 160.391 142.283 183.598 157.599C181.059 145.247 174.116 136.108 164.491 129.251C147.266 116.979 129.69 105.198 112.64 92.7288C113.915 87.7518 114.809 83.2572 116.099 78.9991C138.249 94.3909 160.003 109.546 182.387 125.139C175.543 98.3241 165.145 74.2379 147.211 53.7681C144.629 50.8207 142.624 50.7359 139.175 51.6223C130.958 53.7338 122.575 55.1999 114.266 56.3291C114.268 51.7339 114.263 47.7361 114.826 43.6759C121.65 42.0792 128.02 40.8997 134.132 38.9226C142.148 36.3296 149.961 33.1075 157.852 30.7578C157.845 35.4484 157.847 39.5372 157.907 44.0899C166.011 57.2025 174.876 69.4191 181.839 82.6378C187.331 93.0641 190.482 104.724 194.672 115.836C194.649 137.961 194.626 160.085 194.216 183.065C190.472 188.76 183.756 194.098 184.387 198.345C186.266 210.978 191.032 223.181 194.67 235.553Z" fill="white"/>
<path d="M1001.36 253.784C993.416 254.42 985.471 254.42 977.204 254.42C977.204 246.672 977.204 239.516 977.204 231.959C984.752 231.959 992.488 231.959 1000.79 231.625C1001.36 238.576 1001.36 245.862 1001.36 253.784Z" fill="white"/>
<path d="M370.125 23.2813C366.354 30.3574 362.583 37.4335 358.071 44.2751C356.566 37.0186 355.802 29.9966 355.078 22.4974C353.495 20.1664 361.973 18.3733 355.142 15.8549C355.122 10.6007 355.112 5.98005 355.102 1.35938C359.225 1.35938 363.348 1.35937 368.089 1.99286C369.18 9.51133 369.652 16.3963 370.125 23.2813Z" fill="white"/>
<path d="M36.152 1.35938C36.627 1.89762 36.5191 2.43587 36.3412 3.90514C35.5046 8.72341 34.738 12.6107 33.4888 16.4497C33.0746 18.1117 32.6882 20.0104 33.3034 21.4939C34.6966 24.8538 36.5835 28.0091 37.9449 31.7095C37.3242 35.9582 37.304 39.7948 36.6329 43.5139C36.2021 45.9012 34.8127 48.1155 33.8529 50.4074C31.1822 45.2969 28.5115 40.1863 26.0918 34.1169C26.6329 30.5223 27.0255 27.8931 27.1937 25.2497C27.6999 17.2892 28.1188 9.32322 28.5717 1.35938C30.9042 1.35938 33.2366 1.35938 36.152 1.35938Z" fill="white"/>
<path d="M27.9757 1.35938C28.118 9.32322 27.6992 17.2892 27.1929 25.2497C27.0248 27.8931 26.6321 30.5223 26.0249 33.6222C22.662 29.8292 19.6163 25.5721 16.8398 20.6648C17.7551 13.7963 18.4011 7.57783 19.0471 1.35938C21.8249 1.35938 24.6027 1.35938 27.9757 1.35938Z" fill="white"/>
<path d="M370.551 23.0852C369.652 16.3963 369.18 9.51133 368.707 1.99286C375.087 1.35937 381.467 1.35938 388.481 1.35938C386.47 4.68707 383.904 8.08128 381.161 11.3254C377.845 15.2464 374.378 19.0403 370.551 23.0852Z" fill="white"/>
<path d="M354.649 1.35938C355.112 5.98005 355.122 10.6007 354.913 16.2858C350.31 19.7845 345.926 22.2187 341.533 24.037C341.04 18.7374 340.556 14.0539 340.072 9.3703C344.478 6.94624 348.884 4.52219 352.836 1.72875C352.986 1.35938 353.591 1.35938 354.649 1.35938Z" fill="white"/>
<path d="M18.3989 1.35938C18.4014 7.57783 17.7553 13.7963 16.6235 20.2469C11.4344 15.1723 6.7312 9.86561 1.69417 4.99995C1.36035 4.12026 1.36035 2.7995 1.36035 1.35938C6.82336 1.35938 12.2869 1.35938 18.3989 1.35938Z" fill="white"/>
<path d="M907.647 137.416C905.218 137.5 903.436 137.584 900.807 137.707C900.807 148.819 900.807 159.764 900.807 171.052C894.617 171.052 889.281 171.052 883.467 171.052C883.467 143.318 883.467 115.622 883.467 88.302C901.983 88.302 920.378 88.3387 938.773 88.2854C947.069 88.2613 954.273 90.3351 959.128 97.7257C969.545 113.586 961.508 131.886 941.516 136.981C948.972 148.002 956.365 158.929 963.968 170.166C949.09 173.703 945.923 172.441 938.465 161.223C934.636 155.463 930.02 150.162 926.728 144.125C923.685 138.545 919.708 136.547 913.723 137.378C911.946 137.624 910.105 137.416 907.647 137.416ZM916.351 122.45C924.161 121.986 932.052 122.043 939.751 120.854C944.073 120.186 946.748 116.103 945.367 111.654C944.453 108.711 941.792 104.381 939.51 104.113C926.76 102.619 913.888 102.174 901.139 101.376C901.139 109.448 901.139 115.671 901.139 122.45C906.054 122.45 910.529 122.45 916.351 122.45Z" fill="white"/>
<path d="M671.886 156.462C674.501 156.602 676.46 156.743 678.555 156.893C678.555 161.82 678.555 166.245 678.555 171.044C653.381 171.044 628.561 171.044 603.23 171.044C603.23 143.282 603.23 115.59 603.23 87.4883C627.807 87.4883 652.162 87.4883 677.034 87.4883C677.034 92.1632 677.034 96.7383 677.034 101.943C658.326 101.943 639.844 101.943 620.891 101.943C620.891 108.047 620.891 113.538 620.891 119.781C630.604 119.781 640.055 119.78 649.505 119.781C660.229 119.783 660.235 119.785 659.848 130.734C659.81 131.819 659.637 132.9 659.468 134.555C646.591 134.555 633.998 134.555 620.911 134.555C620.911 142.014 620.911 148.863 620.911 156.461C637.835 156.461 654.533 156.461 671.886 156.462Z" fill="white"/>
<path d="M790.435 88.3006C791.639 87.8972 792.843 87.1455 794.049 87.1421C816.27 87.0792 838.491 87.1012 860.712 87.1301C861.568 87.1312 862.423 87.3803 863.588 87.5623C863.588 92.2426 863.588 96.6717 863.588 101.739C844.945 101.739 826.45 101.739 807.382 101.739C807.382 107.854 807.382 113.35 807.382 119.547C819.947 119.547 832.537 119.547 845.689 119.547C845.689 124.793 845.689 129.362 845.689 134.582C832.952 134.582 820.354 134.582 807.284 134.582C807.284 141.9 807.284 148.595 807.284 156.176C826.2 156.176 845.316 156.176 864.861 156.176C864.861 161.462 864.861 165.892 864.861 171.122C840.353 171.122 815.756 171.122 790.806 170.018C790.446 142.043 790.44 115.172 790.435 88.3006Z" fill="white"/>
<path d="M489.84 144.432C492.378 147.333 494.715 150.068 496.398 153.158C498.758 157.49 494.95 158.897 492.211 160.605C482.481 166.671 472.582 171.397 460.505 171.765C447.949 172.147 436.294 171.054 425.631 163.89C410.028 153.409 403.71 129.752 410.902 112.454C419.58 91.5794 443.04 83.724 463.252 86.5702C476.432 88.4262 487.265 94.1516 498.06 102.228C495.514 106.503 493.184 110.415 491.406 113.4C483.196 109.631 475.933 104.73 467.981 102.999C454.48 100.06 440.991 100.886 431.485 113.369C419.195 129.509 427.858 149.955 445.689 154.918C461.873 159.422 476.604 155.46 489.84 144.432Z" fill="white"/>
<path d="M702.057 121.175C697.054 110.123 692.181 99.5759 687.316 89.0483C696.736 84.1804 705.401 86.5549 709.423 95.1636C716.795 110.943 723.934 126.832 731.787 144.023C735.706 135.919 739.196 128.918 742.495 121.828C746.737 112.707 751.204 103.663 754.839 94.2997C757.063 88.5714 760.173 86.0459 766.316 87.007C769.145 87.4495 772.101 87.0824 776.065 87.0824C772.4 95.9873 769.295 104.021 765.816 111.889C757.778 130.074 749.36 148.094 741.53 166.366C739.123 171.984 735.016 171.281 730.518 171.521C726.235 171.749 723.693 170.761 721.861 166.385C715.575 151.368 708.784 136.564 702.057 121.175Z" fill="white"/>
<path d="M540.851 255.736C536.733 251.903 533.089 248.176 529.674 244.25C528.212 242.568 526.928 240.595 526.078 238.541C522.211 229.206 514.876 227.495 505.797 228.467C502.062 228.868 500.563 230.101 500.656 233.817C500.799 239.473 500.517 245.141 500.702 250.795C500.896 256.695 496.763 255.804 493.261 255.741C489.881 255.68 485.67 256.987 485.709 250.954C485.837 231.258 485.62 211.558 485.993 191.869C486.028 190.025 489.284 186.681 491.05 186.677C505.496 186.646 519.981 186.729 534.377 187.807C546.714 188.731 552.298 194.959 553.34 206.599C554.194 216.132 548.808 223.411 538.142 227.126C537.513 227.344 536.86 227.492 535.336 227.92C541.349 236.827 547.168 245.445 554.132 255.761C548.762 255.761 545.089 255.761 540.851 255.736ZM501.29 200.062C501.105 204.107 500.535 208.191 500.934 212.177C501.083 213.66 503.513 216.094 504.885 216.081C513.877 215.999 522.939 215.878 531.807 214.589C534.345 214.221 538.071 209.943 538.056 207.477C538.041 204.994 534.257 200.671 531.764 200.394C521.979 199.305 512.052 199.496 501.29 200.062Z" fill="white"/>
<path d="M650.34 223.131C650.34 213.61 650.151 204.763 650.442 195.932C650.544 192.84 651.087 187.681 652.71 187.11C657.592 185.394 663.063 185.686 666.961 190.374C667.825 191.412 668.379 192.731 669.321 193.678C680.668 205.09 692.056 216.461 703.465 227.813C703.874 228.22 704.599 228.309 706.124 228.936C706.124 216.938 706.413 205.473 706.004 194.034C705.794 188.134 707.514 185.947 713.63 186.239C718.455 186.47 719.833 188.192 719.79 192.76C719.62 210.893 719.826 229.03 719.615 247.162C719.582 249.966 718.105 255.14 717.281 255.144C713.288 255.159 708.12 255.068 705.496 252.678C694.278 242.464 683.761 231.475 673.106 220.652C670.612 218.12 668.578 215.136 666.332 212.359C665.535 212.806 664.737 213.253 663.94 213.7C663.94 225.57 663.736 237.445 664.035 249.307C664.164 254.451 662.271 255.9 657.314 255.924C652.103 255.95 649.979 254.471 650.239 248.968C650.634 240.6 650.341 232.198 650.34 223.131Z" fill="white"/>
<path d="M911.309 253.596C897.32 247.521 890.705 236.306 890.334 222.521C889.998 210.063 894.228 198.226 906.066 191.459C925.83 180.162 955.145 184.413 964.484 206.1C975.217 231.027 958.988 256.088 931.53 256.935C924.979 257.137 918.353 254.951 911.309 253.596ZM905.058 223.388C909.336 238.638 916.897 244.337 931.769 243.518C944.021 242.843 952.402 233.398 952.38 220.291C952.36 208.924 942.957 199.192 931.474 198.655C916.159 197.939 907.818 205.367 905.058 223.388Z" fill="white"/>
<path d="M775.231 242.411C777.873 239.691 779.981 237.124 782.089 234.558C779.135 233.012 776.334 230.714 773.195 230.074C766.157 228.638 758.929 228.163 751.818 227.043C743.374 225.714 736.894 219.886 736.114 213.275C734.607 200.511 737.898 193.025 747.378 189.007C764.637 181.694 780.26 185.966 795.725 196.197C793.568 200.269 791.633 203.923 789.473 208.003C780.637 201.804 771.914 197.893 761.787 198.697C759.365 198.89 756.573 199.098 754.71 200.392C752.628 201.837 751.409 204.526 749.814 206.674C751.826 208.078 753.667 210.276 755.878 210.748C765.305 212.762 774.919 213.925 784.315 216.058C792.276 217.866 796.309 223.881 797.134 231.652C798.007 239.864 795.212 246.911 788.021 251.502C775.507 259.49 748.509 257.982 737.073 248.602C735.904 247.644 735.322 245.098 735.582 243.467C736.032 240.646 737.356 237.966 738.502 234.684C750.205 240.147 761.479 246.216 775.231 242.411Z" fill="white"/>
<path d="M862.887 239.929C864.159 239.287 865.019 238.975 865.795 238.521C874.415 233.477 874.412 233.471 879.702 243.576C866.984 254.653 852.686 259.338 835.616 255.956C818.015 252.469 806.74 240.747 805.473 223.486C804.146 205.425 816.328 190.138 834.364 186.531C848.68 183.667 861.634 186.568 873.747 194.302C880.679 198.728 880.817 199.422 876.009 206.29C875.367 207.207 874.622 208.053 873.528 209.434C865.135 201.887 855.457 197.922 844.047 198.616C831.3 199.392 820.371 209.734 820.49 221.251C820.617 233.555 831.336 243.751 844.722 243.376C850.652 243.21 856.533 241.308 862.887 239.929Z" fill="white"/>
<path d="M556.463 171.424C543.143 171.424 530.504 171.424 517.44 171.424C517.44 143.269 517.44 115.729 517.44 87.6289C522.392 87.6289 527.42 87.6289 533.112 87.6289C533.112 110.299 533.112 132.855 533.112 156.268C552.382 156.268 571.033 156.268 590.07 156.268C590.07 161.55 590.07 165.986 590.07 171.424C579.153 171.424 568.148 171.424 556.463 171.424Z" fill="white"/>
<path d="M628.832 255.776C623.757 256.422 621.425 253.808 620.333 250.029C617.4 239.88 610.847 237.624 600.59 237.659C589.288 237.697 581.275 239.251 577.497 251.364C575.107 259.026 568.137 254.955 561.98 255.486C564.571 249.382 566.673 244.002 569.106 238.776C576.546 222.802 584.22 206.936 591.552 190.913C593.283 187.128 595.882 185.619 599.529 186.511C602.463 187.228 606.677 188.178 607.723 190.304C617.673 210.528 627.072 231.024 636.604 251.453C637.056 252.423 637.268 253.504 637.984 255.778C634.608 255.778 632.009 255.778 628.832 255.776ZM603.897 215.904C602.503 213.265 601.108 210.626 599.195 207.007C595.665 214.197 592.741 220.15 589.57 226.609C596.507 226.609 602.352 226.609 609.152 226.609C607.229 222.783 605.733 219.808 603.897 215.904Z" fill="white"/>
<path d="M450.341 209.641C450.341 222.983 450.03 235.673 450.473 248.338C450.689 254.509 448.452 256.004 442.656 255.964C437.115 255.926 435.14 254.378 435.28 248.649C435.632 234.166 435.228 219.666 435.481 205.179C435.569 200.136 433.845 198.208 428.822 198.578C424.543 198.893 420.219 198.537 415.921 198.666C412.103 198.781 409.374 198.33 409.429 193.328C409.481 188.521 410.966 186.296 416.085 186.342C434.197 186.507 452.313 186.507 470.426 186.337C474.926 186.294 476.242 188.048 476.294 192.35C476.35 196.974 474.903 199.095 470.074 198.684C466.927 198.416 463.739 198.638 460.569 198.64C450.368 198.647 450.368 198.647 450.341 209.641Z" fill="white"/>
<path d="M346.715 77.5389C346.325 86.1854 345.935 94.8319 345.375 104.571C344.871 110.044 344.916 114.501 344.062 118.778C343.518 121.502 341.639 123.96 340.127 126.077C338.337 121.758 337.268 117.596 335.113 114.104C331.024 107.483 330.086 100.441 330.598 92.9405C330.789 90.1436 330.652 87.3244 330.653 83.8866C329.669 78.6195 328.697 73.981 327.814 68.8638C332.87 60.9644 337.837 53.5438 342.926 46.6875C343.438 55.0074 343.663 62.777 344.316 70.5105C344.518 72.9037 345.883 75.1988 346.715 77.5389Z" fill="white"/>
<path d="M355.321 129.156C362.893 150.37 364.619 172.42 362.987 194.571C362.156 205.855 358.515 216.933 355.216 228.134C353.653 225.89 352.477 223.617 352.466 221.338C352.338 194.229 352.275 167.118 352.515 140.01C352.547 136.384 354.342 132.774 355.321 129.156Z" fill="white"/>
<path d="M355.231 128.63C354.343 132.772 352.547 136.383 352.515 140.009C352.275 167.116 352.339 194.228 352.466 221.337C352.477 223.615 353.654 225.888 354.774 228.397C355.199 229.235 355.14 229.84 354.772 231.114C354.211 232.107 353.99 232.45 353.797 232.812C351.819 237.64 349.84 242.468 347.374 246.954C345.976 238.28 345.067 229.947 344.187 221.073C353.356 188.772 351.211 157.476 340.359 126.537C341.64 123.959 343.519 121.502 344.063 118.777C344.917 114.5 344.871 110.043 345.428 105.133C348.813 112.437 351.977 120.27 355.231 128.63Z" fill="white"/>
<path d="M346.818 77.0199C345.883 75.2005 344.518 72.9054 344.316 70.5121C343.664 62.7787 343.439 55.0091 342.96 46.1952C346.927 37.7502 350.983 30.3634 355.039 22.9766C355.802 29.9985 356.566 37.0205 357.648 44.5074C354.284 55.4813 350.602 65.9903 346.818 77.0199Z" fill="white"/>
<path d="M340.289 258.572C335.989 263.888 331.69 269.204 326.772 274.229C324.871 269.233 323.588 264.527 322.498 259.398C327.126 252.868 331.56 246.76 336.208 241.172C337.71 247.318 339 252.945 340.289 258.572Z" fill="white"/>
<path d="M340.712 258.373C339 252.948 337.711 247.321 336.421 240.733C338.999 233.721 341.578 227.669 344.157 221.617C345.067 229.95 345.976 238.283 346.94 247.195C345.041 251.241 343.088 254.706 340.712 258.373Z" fill="white"/>
<path d="M287.602 297.794C286.693 293.587 286.293 289.44 286.057 284.337C291.023 281.385 295.824 279.39 300.638 278.012C301.159 282.829 301.669 287.029 302.18 291.229C297.49 293.438 292.8 295.646 287.602 297.794Z" fill="white"/>
<path d="M322.305 259.824C323.588 264.53 324.872 269.236 326.363 274.444C322.774 278.001 318.978 281.056 314.554 283.8C313.573 278.737 313.22 273.984 313.056 268.826C316.264 265.556 319.285 262.69 322.305 259.824Z" fill="white"/>
<path d="M312.868 269.23C313.22 273.983 313.573 278.736 314.145 284.018C310.624 286.739 306.885 288.931 302.663 291.177C301.67 287.029 301.16 282.829 300.875 277.614C305.023 274.143 308.945 271.687 312.868 269.23Z" fill="white"/>
<path d="M789.959 88.6523C790.441 115.17 790.447 142.041 790.444 169.558C790.007 169.25 789.205 168.295 789.206 167.34C789.248 141.229 789.372 115.118 789.959 88.6523Z" fill="white"/>
<path d="M354.129 232.687C353.989 232.45 354.211 232.107 354.672 231.559C354.741 231.744 354.602 232.153 354.129 232.687Z" fill="white"/>
<path d="M42.1236 247.785C38.9541 240.399 35.7847 233.013 32.8706 224.682C33.8743 219.788 35.2309 215.846 35.2696 211.891C35.4817 190.241 35.5173 168.587 35.2406 146.938C35.188 142.823 33.4593 138.729 32.5039 134.626C34.0373 129.366 35.5706 124.106 38.0055 118.809C39.543 121.497 40.4965 124.194 40.753 126.955C41.416 134.092 41.7715 141.257 42.2174 148.991C37.728 173.831 38.3614 197.894 44.6092 222.112C43.5412 230.927 42.8324 239.356 42.1236 247.785Z" fill="white"/>
<path d="M44.7588 101.973C44.7933 97.9298 44.8279 93.8866 45.0616 88.7049C45.5938 79.7002 45.7076 71.8164 46.343 63.9749C46.7172 59.3574 47.9194 54.807 48.9555 50.6602C52.3012 55.7874 55.4406 60.4808 58.3558 65.7029C57.8239 72.3248 57.5161 78.4181 57.1927 84.9244C57.6088 85.9418 58.0407 86.5462 58.4858 87.1118C58.4991 87.073 58.418 87.0836 58.4162 87.7154C60.4329 101.516 55.4669 112.862 48.7687 123.477C47.6836 119.718 46.8706 116.352 46.2877 112.946C45.6649 109.308 45.2592 105.632 44.7588 101.973Z" fill="white"/>
<path d="M32.0717 134.93C33.459 138.729 35.1877 142.822 35.2403 146.938C35.517 168.586 35.4814 190.241 35.2693 211.89C35.2306 215.845 33.8739 219.787 32.8044 224.156C25.9285 204.388 23.9297 183.797 27.1436 162.775C28.5493 153.581 30.1355 144.414 32.0717 134.93Z" fill="white"/>
<path d="M48.749 50.2253C47.9193 54.8059 46.7171 59.3563 46.3429 63.9739C45.7075 71.8154 45.5937 79.6992 45.0351 88.101C41.1948 76.2487 37.5801 63.8606 33.9092 50.9405C34.8128 48.1167 36.2022 45.9024 36.633 43.5151C37.3041 39.7959 37.3243 35.9593 38.3675 31.9141C42.3261 37.8455 45.5376 44.0354 48.749 50.2253Z" fill="white"/>
<path d="M42.1729 248.259C42.8323 239.356 43.5411 230.927 45.0142 222.402C49.5845 230.704 53.3904 239.101 57.0749 248.053C56.089 254.225 55.2246 259.843 54.3602 265.462C50.3142 259.886 46.2682 254.31 42.1729 248.259Z" fill="white"/>
<path d="M54.3965 265.931C55.2244 259.842 56.0888 254.224 57.4659 248.305C62.0142 252.941 66.0497 257.878 69.8086 263.391C69.0175 269.01 68.5029 274.053 67.9883 279.095C63.4698 274.863 58.9514 270.632 54.3965 265.931Z" fill="white"/>
<path d="M44.3557 102.234C45.2583 105.631 45.664 109.306 46.2868 112.945C46.8697 116.35 47.6827 119.717 48.6917 124.01C46.7424 132.749 44.4958 140.58 42.2492 148.41C41.7709 141.257 41.4155 134.091 40.7525 126.955C40.4959 124.194 39.5425 121.497 38.4209 118.538C39.9413 113.035 41.9475 107.766 44.3557 102.234Z" fill="white"/>
<path d="M68.1982 279.502C68.503 274.054 69.0176 269.012 69.9758 263.632C70.4193 263.295 70.1326 263.803 70.5196 264.01C71.3686 264.569 71.8306 264.92 72.692 265.473C76.38 268.354 79.6685 271.034 82.9635 274.307C82.5083 279.464 82.0464 284.027 81.5844 288.59C77.1923 285.696 72.8002 282.802 68.1982 279.502Z" fill="white"/>
<path d="M111.518 287.301C111.524 291.289 111.53 295.277 111.525 299.857C106.73 299.015 101.946 297.58 96.8686 295.13C96.6248 289.876 96.6747 285.636 97.2143 281.512C102.309 283.518 106.913 285.409 111.518 287.301Z" fill="white"/>
<path d="M96.7253 281.395C96.6753 285.634 96.6253 289.874 96.5682 294.749C91.7513 293.372 86.9416 291.36 81.8584 288.968C82.0468 284.025 82.5087 279.462 83.4148 274.406C88.1477 276.407 92.4365 278.901 96.7253 281.395Z" fill="white"/>
<path d="M296.372 115.699C299.174 123.761 303.322 131.639 304.451 139.929C305.983 151.186 305.777 162.915 297.966 172.63C295.299 175.948 292.204 178.921 288.894 182.261C288.011 176.908 287.538 171.347 287.255 164.708C291.652 156.286 292.421 148.365 291.832 139.884C292.813 135.505 293.218 131.363 293.914 127.27C294.575 123.386 295.54 119.554 296.372 115.699Z" fill="white"/>
<path d="M279.576 125.164C287.039 136.56 289.245 147.905 280.658 159.699C269.938 174.423 248.201 174.868 237.464 160.647C236.525 159.404 235.256 158.409 233.955 156.859C235.801 154.652 237.832 152.886 240.351 151.672C247.674 164.465 260.402 166.756 271.62 158.787C279.899 152.906 280.562 138.63 273.155 129.196C275.138 127.849 277.121 126.502 279.576 125.164Z" fill="white"/>
<path d="M283.163 71.1281C286.589 66.6256 290.327 62.5664 295.246 57.2254C290.801 57.7733 288.119 58.104 284.903 58.3528C284.368 54.288 284.366 50.305 284.368 45.7254C288.077 44.6118 291.784 44.0948 296.049 44.2668C297.106 54.482 297.606 64.0081 298.106 73.5343C294.267 77.5057 290.428 81.4771 286.177 85.6585C285.002 81.1029 284.239 76.3372 283.163 71.1281Z" fill="white"/>
<path d="M291.832 139.882C289.327 134.342 287.27 128.544 284.794 122.483C284.142 117.04 283.911 111.86 283.258 106.367C288.031 102.104 293.226 98.154 298.892 94.7109C299.818 99.8129 300.274 104.408 300.73 109.004C299.28 110.959 297.831 112.914 296.376 115.283C295.54 119.552 294.575 123.385 293.914 127.269C293.218 131.361 292.813 135.503 291.832 139.882Z" fill="white"/>
<path d="M285.731 229.385C290.868 225.628 296.001 222.457 301.572 219.711C302.494 224.814 302.978 229.492 303.463 234.171C298.36 236.842 293.258 239.513 287.644 242.254C286.664 238.206 286.196 234.088 285.731 229.385Z" fill="white"/>
<path d="M231.347 43.1212C227.086 42.689 222.943 41.7106 218.253 40.0395C217.71 35.2455 217.713 31.1442 217.716 27.043C222.351 28.0004 226.985 28.9578 232.147 30.0367C232.271 34.2971 231.868 38.436 231.347 43.1212Z" fill="white"/>
<path d="M111.575 124.922C112.97 126.054 114.366 127.186 115.651 129.18C113.761 134.27 110.946 138.377 110.432 142.754C109.496 150.724 115.603 160.671 126.125 162.974C133.569 164.603 143.567 162.766 148.546 151.002C150.659 152.104 152.771 153.205 155.002 155.202C154.548 157.019 154.015 157.967 153.397 158.856C141.724 175.648 118.579 174.949 107.835 158.774C100.306 147.44 101.975 136.108 109.519 125.147C110.481 125.068 111.028 124.995 111.575 124.922Z" fill="white"/>
<path d="M109.52 125.146C106.412 121.323 104.173 121.988 102.362 125.889C101.522 127.699 100.838 129.581 99.6004 131.189C98.7518 120.803 98.3866 110.66 98.0215 100.516C102.86 103.92 107.699 107.324 112.788 111.114C112.55 115.58 112.061 119.66 111.573 124.331C111.028 124.994 110.481 125.067 109.52 125.146Z" fill="white"/>
<path d="M101.938 163.266C105.317 166.812 108.696 170.359 112.473 174.145C112.429 178.49 111.986 182.597 111.537 187.298C107.133 185.437 102.736 182.981 98.3369 179.6C98.6613 176.057 98.7755 173.39 99.3738 170.836C99.9789 168.254 101.063 165.785 101.938 163.266Z" fill="white"/>
<path d="M172.847 39.5987C168.2 40.9012 163.552 42.2037 158.376 43.5673C157.847 39.5396 157.845 35.4508 157.852 30.7602C161.996 29.1517 166.13 28.1449 170.833 27.6992C171.884 32.0397 172.366 35.8192 172.847 39.5987Z" fill="white"/>
<path d="M102.507 228.984C106.209 229.936 109.911 230.888 113.984 232.186C113.875 236.279 113.395 240.025 112.912 244.362C109.497 244.346 106.086 243.741 102.339 242.116C102.171 237.06 102.339 233.022 102.507 228.984Z" fill="white"/>
<path d="M107.609 72.0352C110.154 74.0267 112.698 76.0182 115.473 78.3858C114.809 83.2565 113.915 87.7511 112.64 92.7281C109.945 91.4006 107.63 89.5908 105.242 86.9342C105.983 81.4033 106.796 76.7192 107.609 72.0352Z" fill="white"/>
<path d="M114.266 56.3309C111.892 57.4264 109.525 57.9244 106.631 57.7536C106.101 53.0973 106.096 49.1097 106.092 45.1222C108.485 44.7619 110.878 44.4015 113.764 43.8906C114.263 47.7378 114.268 51.7356 114.266 56.3309Z" fill="white"/>
<path d="M97.9009 58.3891C97.9009 58.3891 97.3573 58.5472 96.7216 58.9898C95.3384 65.0734 94.591 70.7145 93.8435 76.3555C89.4423 71.6384 85.0411 66.9212 80.5508 61.2361C80.8421 53.4027 81.2225 46.5373 81.6029 39.6719C85.7843 40.9871 89.9656 42.3023 94.5603 44.2045C93.5623 49.8379 92.5375 54.8012 97.9009 58.3891Z" fill="white"/>
<path d="M326.672 39.5218C321.481 46.211 316.29 52.9002 310.462 59.2669C309.493 52.1071 309.163 45.27 308.832 38.4328C313.521 33.4109 318.21 28.3891 323.445 23.7305C324.884 29.2364 325.778 34.3791 326.672 39.5218Z" fill="white"/>
<path d="M308.371 38.5312C309.163 45.2695 309.493 52.1066 310.042 59.4755C306.48 64.3864 302.701 68.7655 298.513 73.3402C297.606 64.0097 297.106 54.4836 296.609 44.362C300.378 42.0544 304.144 40.3423 308.371 38.5312Z" fill="white"/>
<path d="M327.082 39.3304C325.779 34.3769 324.885 29.2342 323.869 23.5367C328.868 18.4866 333.988 13.9914 339.59 9.43359C340.556 14.0545 341.04 18.7381 341.533 24.0376C336.859 29.4829 332.175 34.312 327.082 39.3304Z" fill="white"/>
<path d="M81.2006 39.4486C81.2223 46.5359 80.8419 53.4013 80.3395 60.8335C76.2736 56.6796 72.3296 51.9589 68.1943 46.2022C68.9673 40.0679 69.9316 34.9695 70.8959 29.8711C74.1967 32.9896 77.4976 36.1082 81.2006 39.4486Z" fill="white"/>
<path d="M173.431 39.5411C172.365 35.8176 171.884 32.0381 171.39 27.6601C176.906 26.2215 182.434 25.3813 188.547 25.2227C189.138 29.8938 189.144 33.8836 189.15 37.8734C184.105 38.4106 179.06 38.9478 173.431 39.5411Z" fill="white"/>
<path d="M70.802 29.4029C69.9313 34.9702 68.967 40.0686 67.992 45.7955C63.4745 41.2572 58.9676 36.0904 54.832 30.2414C56.3257 25.1019 57.4481 20.6447 58.5705 16.1875C62.6165 20.4364 66.6625 24.6852 70.802 29.4029Z" fill="white"/>
<path d="M58.3466 15.787C57.4479 20.6466 56.3255 25.1038 54.73 29.7808C50.6821 27.0043 47.1074 24.008 43.4258 19.9009C43.5625 14.847 43.8061 10.904 44.0496 6.96094C48.7407 9.76882 53.4318 12.5767 58.3466 15.787Z" fill="white"/>
<path d="M189.769 37.9386C189.144 33.8839 189.138 29.8942 189.141 25.3073C193.723 24.6542 198.297 24.5983 203.484 25.2273C204.1 29.8984 204.104 33.8846 204.108 37.8708C199.534 37.915 194.961 37.9593 189.769 37.9386Z" fill="white"/>
<path d="M204.652 37.9486C204.104 33.8824 204.1 29.8962 204.103 25.3134C208.42 25.2137 212.731 25.7108 217.379 26.6242C217.713 31.1418 217.71 35.2431 217.712 39.9485C213.543 39.7114 209.369 38.87 204.652 37.9486Z" fill="white"/>
<path d="M98.4862 58.429C92.5374 54.8021 93.5623 49.8389 95.0796 44.2816C98.4449 44.1789 101.704 44.5869 105.528 45.0585C106.096 49.1096 106.101 53.0971 106.098 57.6804C103.751 58.3401 101.411 58.4041 98.4862 58.429Z" fill="white"/>
<path d="M43.7892 6.61068C43.8068 10.9048 43.5632 14.8479 43.2297 19.5356C40.2707 19.3016 37.4016 18.3229 34.252 16.9225C34.7381 12.6137 35.5047 8.72646 36.581 4.42188C39.1032 4.75621 41.3156 5.50789 43.7892 6.61068Z" fill="white"/>
<path d="M312.858 84.2134C317.538 79.3737 322.217 74.5339 327.311 69.5195C328.697 73.9833 329.67 78.6217 330.653 83.8889C326.38 88.8502 322.094 93.1829 317.014 97.4336C315.099 92.9722 313.978 88.5928 312.858 84.2134Z" fill="white"/>
<path d="M58.3554 65.7031C62.5195 69.4476 66.4593 73.7207 70.3897 78.915C70.0375 85.0301 69.6949 90.224 69.3523 95.4179C65.9941 92.4472 62.6358 89.4764 58.8476 86.7947C58.4176 87.0838 58.4987 87.0732 58.8602 86.7855C58.5504 85.8357 57.8792 85.1736 57.208 84.5116C57.5157 78.4183 57.8235 72.325 58.3554 65.7031Z" fill="white"/>
<path d="M70.5195 264.008C70.6961 264.027 71.2598 264.254 72.0579 264.875C71.8305 264.918 71.3685 264.567 70.5195 264.008Z" fill="white"/>
<path d="M322.68 179.584C322.598 169.12 322.516 158.655 322.846 147.359C323.895 144.027 324.83 141.56 325.109 139.02C325.769 133.011 326.117 126.967 326.592 120.938C330.2 133.099 335.359 145.051 337.047 157.474C339.444 175.12 336.082 192.505 327.18 208.327C326.161 200.943 325.83 193.795 325.078 186.692C324.822 184.265 323.51 181.95 322.68 179.584Z" fill="white"/>
<path d="M312.382 84.2773C313.978 88.5913 315.098 92.9707 316.623 97.6635C312.793 99.9308 316.971 101.875 316.624 104.488C315.569 107.801 315.075 110.499 314.237 113.085C313.492 115.381 312.365 117.554 311.407 119.782C308.185 116.141 304.963 112.501 301.236 108.932C300.274 104.408 299.818 99.8129 299.352 94.661C303.529 90.8505 307.717 87.5966 312.382 84.2773Z" fill="white"/>
<path d="M311.492 120.279C312.366 117.554 313.492 115.381 314.237 113.085C315.075 110.499 315.569 107.801 316.693 104.926C320.289 109.783 323.405 114.867 326.556 120.443C326.118 126.966 325.769 133.009 325.109 139.019C324.83 141.558 323.895 144.025 322.772 146.756C318.716 138.249 315.146 129.513 311.492 120.279Z" fill="white"/>
<path d="M322.58 180.137C323.509 181.948 324.821 184.263 325.078 186.69C325.829 193.793 326.161 200.941 326.813 208.703C323.943 213.828 320.917 218.32 317.262 222.524C315.829 216.586 315.024 210.936 314.22 205.286C316.974 197.088 319.727 188.89 322.58 180.137Z" fill="white"/>
<path d="M313.794 205.484C315.025 210.935 315.829 216.585 316.852 222.757C312.851 226.853 308.632 230.427 303.938 234.086C302.978 229.493 302.494 224.814 302.001 219.516C305.785 214.492 309.577 210.088 313.794 205.484Z" fill="white"/>
<path d="M68.0911 142.972C64.0684 160.946 63.8963 178.728 70.5122 197.145C69.5078 204.713 68.7462 211.293 67.9847 217.873C65.2721 213.204 62.5596 208.534 60.0442 202.83C60.5572 200.26 61.1438 198.725 61.1483 197.188C61.21 175.999 61.2282 154.809 61.1323 133.621C61.1234 131.661 60.2636 129.705 59.7988 127.748C61.0569 124.555 62.3149 121.362 64.3285 118.328C65.6113 121.757 66.2509 125.013 66.6396 128.299C67.2166 133.179 67.616 138.08 68.0911 142.972Z" fill="white"/>
<path d="M59.3846 128.039C60.2637 129.704 61.1236 131.66 61.1325 133.619C61.2284 154.808 61.2102 175.998 61.1484 197.187C61.1439 198.724 60.5574 200.259 60.0188 202.328C51.7343 187.926 50.3726 171.756 52.3358 155.415C53.4364 146.254 56.6879 137.351 59.3846 128.039Z" fill="white"/>
<path d="M69.543 95.8083C69.6945 90.2211 70.0371 85.0272 70.6047 79.3086C75.6025 82.6628 80.3753 86.5417 85.3243 91.3202C85.1425 97.8106 84.7845 103.402 84.4266 108.992C81.2921 114.549 78.1577 120.106 74.3454 125.835C72.6758 119.324 71.684 112.643 70.6922 105.961C71.8638 103.923 73.0354 101.884 74.3313 99.6296C72.8101 98.4953 71.2721 97.3484 69.543 95.8083Z" fill="white"/>
<path d="M68.1875 218.275C68.7464 211.293 69.508 204.713 70.5888 197.672C73.9023 201.901 76.8965 206.591 80.0596 212.259C79.7837 218.728 79.3388 224.219 78.894 229.71C75.3927 226.033 71.8914 222.355 68.1875 218.275Z" fill="white"/>
<path d="M79.2979 229.944C79.3391 224.218 79.784 218.727 80.2854 212.66C84.2446 215.499 88.1472 218.914 92.0982 223.196C91.3401 228.309 90.5335 232.555 89.7269 236.8C86.3851 234.593 83.0433 232.386 79.2979 229.944Z" fill="white"/>
<path d="M70.3004 106.234C71.6847 112.644 72.6765 119.325 74.1087 126.265C72.6643 131.795 70.7794 137.067 68.4931 142.655C67.6166 138.079 67.2172 133.178 66.6402 128.298C66.2516 125.012 65.6119 121.756 64.6436 117.989C66.1043 113.83 68.0061 110.168 70.3004 106.234Z" fill="white"/>
<path d="M90.0186 237.176C90.5336 232.557 91.3402 228.311 92.3713 223.562C95.7334 224.815 98.871 226.571 102.258 228.656C102.339 233.024 102.171 237.061 101.989 241.75C98.0857 240.784 94.1979 239.166 90.0186 237.176Z" fill="white"/>
<path d="M84.9115 108.969C84.785 103.404 85.143 97.8132 85.6213 91.668C89.675 93.9934 93.6085 96.8733 97.7816 100.136C98.3864 110.662 98.7515 120.806 99.2412 131.513C97.451 140.598 95.3526 149.128 99.1462 157.683C99.857 159.287 100.832 160.773 101.811 162.789C101.064 165.785 99.9791 168.254 99.3741 170.836C98.7758 173.39 98.6616 176.057 98.1165 179.197C83.8484 167.501 79.6841 145.437 87.7366 125.354C89.2988 121.459 91.2232 117.708 93.2628 113.277C90.6741 111.851 88.035 110.396 84.9115 108.969Z" fill="white"/>
<path d="M94.0518 76.7495C94.5909 70.7159 95.3383 65.0748 96.4395 59.0156C100.241 62.819 103.689 67.0405 107.373 71.6499C106.796 76.722 105.983 81.4061 104.955 86.6009C101.247 83.7884 97.7535 80.4652 94.0518 76.7495Z" fill="white"/>
</g>
<defs>
<clipPath id="clip0_351_797">
<rect width="1000" height="337.415" fill="white"/>
</clipPath>
</defs>
</svg>
