<svg width="54" height="8" viewBox="0 0 54 8" fill="none" xmlns="http://www.w3.org/2000/svg">
<path d="M4.23279 0.185001C5.12668 0.185001 5.8716 0.404928 6.46753 0.844783C7.06346 1.28464 7.4572 1.88412 7.64875 2.64322H6.37176C6.20858 2.23884 5.939 1.91604 5.56299 1.67483C5.19408 1.43362 4.75423 1.31301 4.24343 1.31301C3.7752 1.31301 3.35308 1.42298 2.97707 1.64291C2.60816 1.86283 2.31729 2.17499 2.10446 2.57937C1.89872 2.98375 1.79585 3.45908 1.79585 4.00535C1.79585 4.58 1.90227 5.07306 2.1151 5.48454C2.32793 5.89601 2.6259 6.21171 3.009 6.43164C3.39919 6.64447 3.84969 6.75089 4.36049 6.75089C4.9848 6.75089 5.52043 6.55934 5.96737 6.17624C6.41432 5.78605 6.68391 5.25397 6.77614 4.58H4.01995V3.6861H7.79774V4.84604C7.7126 5.3994 7.51396 5.90311 7.2018 6.35715C6.89674 6.8041 6.48881 7.16237 5.97802 7.43196C5.47431 7.70154 4.89612 7.83634 4.24343 7.83634C3.5127 7.83634 2.86711 7.67317 2.30665 7.34682C1.74619 7.02048 1.31343 6.56998 1.00837 5.99534C0.703311 5.41359 0.550781 4.75026 0.550781 4.00535C0.550781 3.26043 0.703311 2.60065 1.00837 2.026C1.31343 1.44426 1.74264 0.993765 2.29601 0.674517C2.85647 0.348173 3.50206 0.185001 4.23279 0.185001Z" fill="#E3F8F5"/>
<path d="M13.6979 5.76122C13.6979 6.13013 13.6092 6.47421 13.4318 6.79346C13.2545 7.10561 12.9849 7.35746 12.6231 7.54901C12.2612 7.74056 11.8178 7.83634 11.2928 7.83634C10.7821 7.83634 10.3245 7.74766 9.92008 7.5703C9.51569 7.38584 9.1929 7.13044 8.95169 6.8041C8.71048 6.47776 8.57214 6.10175 8.53666 5.67609H9.83494C9.87042 6.00243 10.0088 6.28266 10.25 6.51678C10.4983 6.75089 10.8282 6.86795 11.2396 6.86795C11.6086 6.86795 11.8923 6.76863 12.091 6.56998C12.2967 6.37134 12.3996 6.11594 12.3996 5.80379C12.3996 5.5342 12.3251 5.31427 12.1761 5.144C12.0271 4.96664 11.8427 4.8283 11.6227 4.72898C11.4028 4.62966 11.1013 4.51615 10.7182 4.38845C10.25 4.23946 9.86687 4.09048 9.5689 3.9415C9.27803 3.79252 9.02973 3.57614 8.82399 3.29236C8.61825 3.00858 8.51538 2.63612 8.51538 2.17499C8.51538 1.77061 8.6147 1.41588 8.81335 1.11082C9.01199 0.805763 9.29577 0.571647 9.66468 0.408475C10.0336 0.238209 10.4593 0.153076 10.9417 0.153076C11.7079 0.153076 12.3144 0.337531 12.7614 0.706441C13.2154 1.07535 13.4744 1.55777 13.5382 2.1537H12.2293C12.1797 1.86993 12.0449 1.62872 11.8249 1.43007C11.6121 1.22433 11.3177 1.12147 10.9417 1.12147C10.6011 1.12147 10.328 1.21015 10.1223 1.38751C9.91653 1.55777 9.81366 1.80608 9.81366 2.13242C9.81366 2.38782 9.8846 2.60065 10.0265 2.77092C10.1684 2.93409 10.3457 3.06534 10.5586 3.16466C10.7785 3.25689 11.0765 3.36685 11.4525 3.49455C11.9278 3.64353 12.3144 3.79606 12.6124 3.95214C12.9175 4.10112 13.1729 4.32105 13.3786 4.61192C13.5914 4.90279 13.6979 5.28589 13.6979 5.76122Z" fill="#E3F8F5"/>
<path d="M21.3119 0.248851V1.22788H18.0875V3.5584H20.7479V4.49486H18.0875V7.76185H16.8744V0.248851H21.3119Z" fill="#E3F8F5"/>
<path d="M27.5326 1.8983V7.76185H26.3088V6.48485C26.1598 6.91761 25.9008 7.2546 25.5319 7.49581C25.163 7.72992 24.7338 7.84698 24.2443 7.84698C23.5632 7.84698 23.017 7.62705 22.6055 7.1872C22.194 6.74734 21.9883 6.11949 21.9883 5.30363V1.8983H23.2014V5.17593C23.2014 5.70801 23.3362 6.11949 23.6058 6.41036C23.8754 6.69414 24.2443 6.83602 24.7125 6.83602C25.195 6.83602 25.5816 6.67995 25.8725 6.36779C26.1633 6.05564 26.3088 5.60159 26.3088 5.00566V1.8983H27.5326Z" fill="#E3F8F5"/>
<path d="M31.6672 6.70832V7.76185H30.9223C30.298 7.76185 29.8226 7.61286 29.4963 7.3149C29.177 7.00984 29.0174 6.50613 29.0174 5.80379V2.93054H28.1767V1.8983H29.0174V0.4404H30.2412V1.8983H31.6565V2.93054H30.2412V5.82507C30.2412 6.15851 30.3015 6.38908 30.4221 6.51678C30.5498 6.64447 30.7697 6.70832 31.0819 6.70832H31.6672Z" fill="#E3F8F5"/>
<path d="M37.9435 1.8983V7.76185H36.7197V6.48485C36.5707 6.91761 36.3118 7.2546 35.9429 7.49581C35.574 7.72992 35.1447 7.84698 34.6552 7.84698C33.9742 7.84698 33.4279 7.62705 33.0164 7.1872C32.6049 6.74734 32.3992 6.11949 32.3992 5.30363V1.8983H33.6124V5.17593C33.6124 5.70801 33.7471 6.11949 34.0167 6.41036C34.2863 6.69414 34.6552 6.83602 35.1235 6.83602C35.6059 6.83602 35.9925 6.67995 36.2834 6.36779C36.5743 6.05564 36.7197 5.60159 36.7197 5.00566V1.8983H37.9435Z" fill="#E3F8F5"/>
<path d="M40.3435 3.0476C40.5422 2.6645 40.8259 2.36299 41.1948 2.14306C41.5638 1.91604 41.9894 1.80253 42.4718 1.80253V3.12209H42.11C41.5779 3.12209 41.1487 3.25334 40.8224 3.51583C40.5031 3.77123 40.3435 4.1969 40.3435 4.79283V7.76185H39.1304V1.8983H40.3435V3.0476Z" fill="#E3F8F5"/>
<path d="M48.5633 4.54807C48.5633 4.74672 48.5491 4.92053 48.5207 5.06951H44.0086C44.0299 5.67254 44.1966 6.11949 44.5088 6.41036C44.821 6.70123 45.2076 6.84667 45.6687 6.84667C46.0731 6.84667 46.4137 6.7438 46.6903 6.53806C46.9741 6.33232 47.1479 6.05919 47.2118 5.71865H48.5101C48.432 6.13013 48.2688 6.49549 48.0205 6.81474C47.7722 7.13399 47.4494 7.38584 47.0522 7.5703C46.6549 7.74766 46.2115 7.83634 45.722 7.83634C45.1544 7.83634 44.6507 7.71573 44.2108 7.47452C43.7781 7.23331 43.4375 6.88569 43.1892 6.43164C42.9409 5.9776 42.8168 5.44197 42.8168 4.82475C42.8168 4.21463 42.9409 3.68255 43.1892 3.22851C43.4375 2.77447 43.7781 2.42684 44.2108 2.18563C44.6507 1.94442 45.1544 1.82381 45.722 1.82381C46.2966 1.82381 46.7968 1.94442 47.2224 2.18563C47.6552 2.41974 47.9851 2.74609 48.2121 3.16466C48.4462 3.57614 48.5633 4.03727 48.5633 4.54807ZM47.3395 4.51615C47.3537 4.13305 47.2863 3.8138 47.1373 3.5584C46.9954 3.29591 46.7968 3.10436 46.5414 2.98375C46.293 2.85605 46.0199 2.7922 45.722 2.7922C45.2466 2.7922 44.8493 2.93764 44.5301 3.22851C44.2108 3.51938 44.037 3.94859 44.0086 4.51615H47.3395Z" fill="#E3F8F5"/>
<path d="M51.3947 1.82381C52.0828 1.82381 52.6327 2.00117 53.0441 2.3559C53.4627 2.70352 53.7181 3.17175 53.8103 3.76059H52.661C52.6114 3.44134 52.473 3.18594 52.246 2.99439C52.0261 2.79575 51.7317 2.69643 51.3628 2.69643C51.0577 2.69643 50.82 2.77092 50.6498 2.9199C50.4866 3.06179 50.405 3.25689 50.405 3.50519C50.405 3.68965 50.4653 3.83863 50.5859 3.95214C50.7065 4.06565 50.8555 4.15433 51.0329 4.21818C51.2173 4.28203 51.4763 4.35298 51.8097 4.43101C52.2496 4.53034 52.6043 4.63321 52.8739 4.73962C53.1506 4.84604 53.3847 5.0163 53.5762 5.25042C53.7749 5.47744 53.8742 5.7896 53.8742 6.18688C53.8742 6.6764 53.6862 7.07369 53.3102 7.37875C52.9413 7.68381 52.4411 7.83634 51.8097 7.83634C51.079 7.83634 50.4866 7.66607 50.0326 7.32554C49.5856 6.98501 49.316 6.50968 49.2238 5.89956H50.405C50.4405 6.21881 50.5824 6.47776 50.8307 6.6764C51.079 6.87504 51.4053 6.97437 51.8097 6.97437C52.1006 6.97437 52.3276 6.89987 52.4908 6.75089C52.661 6.59481 52.7462 6.39972 52.7462 6.1656C52.7462 5.95986 52.6823 5.79669 52.5546 5.67609C52.4269 5.55548 52.2673 5.46325 52.0758 5.3994C51.8842 5.32846 51.6217 5.25751 51.2883 5.18657C50.8626 5.08725 50.515 4.98793 50.2454 4.8886C49.9829 4.78928 49.7559 4.62966 49.5643 4.40973C49.3799 4.18271 49.2876 3.87765 49.2876 3.49455C49.2876 2.99794 49.4721 2.59711 49.841 2.29205C50.217 1.97989 50.7349 1.82381 51.3947 1.82381Z" fill="#E3F8F5"/>
</svg>
