<svg width="58" height="44" viewBox="0 0 58 44" fill="none" xmlns="http://www.w3.org/2000/svg">
<path d="M7.34493 28.9355C4.0322 28.6214 1.79076 27.0696 0.72708 24.3822C-0.371669 21.6061 0.383462 19.0674 2.75883 17.0266C5.08738 15.0259 7.84112 14.652 10.8799 15.5678C11.8132 15.849 12.2354 16.2841 12.0745 17.1734C12.0088 17.5367 12.0637 17.9175 12.0637 18.3354C8.17268 16.4829 5.75614 16.6506 3.79266 18.8515C2.08284 20.7681 2.1505 23.6108 3.94929 25.432C5.95186 27.4594 8.54836 27.5474 12.0637 25.6553C12.0637 25.9546 12.0635 26.2075 12.0637 26.4603C12.0651 28.2319 12.0749 28.2688 10.0907 28.6874C9.23002 28.869 8.32008 28.8631 7.34493 28.9355Z" fill="#E3F8F5"/>
<path d="M17.3092 28.8278C13.2563 27.7446 13.3534 22.8563 15.4282 21.133C16.7559 20.0303 18.3204 19.8605 19.9789 20.2388C21.5768 20.6033 22.5014 21.6158 22.8569 23.0267C23.0079 23.6262 23.0229 24.2531 23.1101 24.9514C20.8143 24.9514 18.6398 24.9514 16.4719 24.9514C16.4043 25.9825 16.8711 26.7289 17.8016 27.0559C19.4986 27.6524 20.4848 26.7593 21.3052 25.5992C21.9341 25.9175 22.5002 26.2039 23.0633 26.4889C21.896 28.5288 20.2543 29.1993 17.3092 28.8278ZM17.8958 21.9141C17.2309 22.2041 16.6433 22.5509 16.5696 23.3185C17.9672 23.3185 19.3131 23.3185 20.6691 23.3185C20.3654 22.1113 19.7504 21.7824 17.8958 21.9141Z" fill="#E3F8F5"/>
<path d="M50.9799 20.8576C51.8165 20.2254 52.7152 20.0106 53.7248 20.0875C55.3593 20.212 56.4776 21.1408 56.5515 22.6975C56.6445 24.6578 56.5739 26.6243 56.5739 28.6495C55.92 28.6495 55.2423 28.6495 54.4322 28.6495C54.4322 27.3376 54.4345 26.0114 54.4309 24.6853C54.4298 24.2687 54.4336 23.8508 54.4 23.4358C54.3107 22.3354 53.9151 21.9167 52.9416 21.8559C51.6846 21.7774 50.9858 22.1655 50.8691 23.2879C50.7155 24.7647 50.763 26.2583 50.727 27.7447C50.7199 28.0403 50.726 28.3361 50.726 28.6713C49.984 28.6713 49.295 28.6713 48.5737 28.6713C48.5737 25.8928 48.5737 23.135 48.5737 20.3333C49.2628 20.3333 49.9152 20.3333 50.5794 20.3333C50.6875 20.5122 50.8051 20.7071 50.9799 20.8576Z" fill="#E3F8F5"/>
<path d="M48.0652 14.2156C50.6184 9.53717 53.1411 4.92009 55.7003 0.236206C56.3095 0.513754 56.8561 0.762808 57.4729 1.0438C54.7504 6.02942 52.0593 10.9576 49.3428 15.9322C48.7355 15.6667 48.2073 15.4358 47.5688 15.1567C47.7346 14.8436 47.8846 14.5603 48.0652 14.2156Z" fill="#E3F8F5"/>
<path d="M39.0378 21.5626C39.7189 20.2423 39.7189 20.2423 42.1206 20.3224C40.4993 23.3162 38.9095 26.2518 37.2515 29.3133C35.6066 26.2581 34.0279 23.3261 32.4489 20.3934C32.562 20.3388 32.6137 20.2923 32.6658 20.2918C34.8356 20.2717 34.8347 20.2726 35.7447 22.0475C36.2275 22.9894 36.7141 23.9298 37.2683 25.0051C37.8888 23.7973 38.4472 22.7107 39.0378 21.5626Z" fill="#E3F8F5"/>
<path d="M46.7466 8.01733C47.5958 6.47009 48.4062 4.97984 49.2574 3.41471C49.8502 3.67196 50.3723 3.89853 51.0446 4.19028C48.4015 9.04808 45.7837 13.8595 43.1167 18.7611C42.5056 18.4987 41.9611 18.2649 41.3255 17.992C43.1504 14.6295 44.9291 11.3519 46.7466 8.01733Z" fill="#E3F8F5"/>
<path d="M35.9549 35.7047C34.5481 38.2269 33.1725 40.6886 31.7714 43.1959C31.173 42.9235 30.6534 42.6869 30.0052 42.3917C32.2403 38.3839 34.4502 34.4213 36.7111 30.3672C37.3252 30.6338 37.8711 30.871 38.4981 31.1433C37.6366 32.687 36.8114 34.1655 35.9549 35.7047Z" fill="#E3F8F5"/>
<path d="M25.423 22.6069C25.423 21.8095 25.423 21.1011 25.423 20.2352C26.2315 20.5244 27.1707 19.819 27.7605 20.8502C28.9013 19.8976 30.1656 19.8117 31.5595 20.5886C31.2377 21.1601 30.9292 21.7079 30.6254 22.2474C28.5384 21.6543 27.6648 22.2174 27.6108 24.1495C27.59 24.8922 27.6039 25.6357 27.6031 26.3788C27.6023 27.1175 27.603 27.8562 27.603 28.6515C26.8742 28.6515 26.2001 28.6515 25.423 28.6515C25.423 26.6614 25.423 24.6786 25.423 22.6069Z" fill="#E3F8F5"/>
<path d="M43.5911 22.2525C43.5911 21.575 43.5911 20.9861 43.5911 20.3442C44.3332 20.3442 45.0065 20.3442 45.7309 20.3442C45.7309 23.1108 45.7309 25.8584 45.7309 28.6575C45.0464 28.6575 44.3713 28.6575 43.5911 28.6575C43.5911 26.5407 43.5911 24.4408 43.5911 22.2525Z" fill="#E3F8F5"/>
</svg>
