<svg width="51" height="8" viewBox="0 0 51 8" fill="none" xmlns="http://www.w3.org/2000/svg">
<path d="M3.26621 4.12719C3.81772 4.63391 4.35793 5.1278 4.91075 5.63321C5.15682 5.39499 5.37567 5.18313 5.59253 4.97319C4.2348 3.76195 2.85076 2.52724 1.45802 1.28478C1.75144 1.05356 2.00529 0.853524 2.28083 0.636391C3.59564 1.82202 4.97747 3.06808 6.36147 4.3161C6.59608 4.10112 6.7973 3.91673 7.02107 3.71168C5.87241 2.68894 4.71799 1.66108 3.52257 0.596711C4.99447 0.596711 6.40253 0.596711 7.82759 0.596711C7.83264 0.673783 7.84084 0.740867 7.84088 0.807955C7.84169 2.45443 7.84168 4.10091 7.8417 5.74739C7.84171 6.75726 7.05052 7.55297 5.92059 7.5725C3.989 7.60587 2.05623 7.58413 0.123951 7.58455C0.100454 7.58455 0.0769537 7.57131 0.039324 7.56001C0.039324 6.29602 0.039324 5.03198 0.039324 3.74673C1.2078 4.79568 2.36046 5.83044 3.51155 6.86378C3.75012 6.65613 3.95737 6.47575 4.18119 6.28093C2.78509 5.04186 1.39402 3.80725 0 2.57002C0.280393 2.32379 0.517933 2.11519 0.781633 1.88362C1.6013 2.6229 2.42811 3.36863 3.26621 4.12719Z" fill="#E3F8F5"/>
<path d="M13.7743 5.64772C12.8132 5.64771 11.8776 5.64771 10.9192 5.64771C10.9192 3.96412 10.9192 2.29218 10.9192 0.592762C10.9934 0.58912 11.0753 0.581682 11.1572 0.581603C12.0417 0.580742 12.9275 0.555406 13.8101 0.591498C14.2731 0.610427 14.7634 0.668636 15.1836 0.82995C16.1155 1.18772 16.185 2.25324 15.3497 2.76936C15.3077 2.79527 15.266 2.82143 15.2007 2.8621C15.333 2.92729 15.4535 2.97624 15.5615 3.04163C16.0787 3.35447 16.2149 3.81032 16.1416 4.33447C16.0653 4.87925 15.74 5.28307 15.1606 5.44481C14.7257 5.56622 14.2548 5.58388 13.7743 5.64772ZM13.5418 3.43757C13.1942 3.43757 12.8466 3.43757 12.5068 3.43757C12.5068 3.83835 12.5068 4.20306 12.5068 4.5557C13.0205 4.5557 13.518 4.5855 14.0088 4.54664C14.4307 4.51323 14.5866 4.30596 14.5611 3.95822C14.5384 3.64969 14.3179 3.46779 13.9266 3.44095C13.8157 3.43334 13.7037 3.43835 13.5418 3.43757ZM12.4878 2.43536C12.5292 2.47909 12.5697 2.56012 12.6119 2.56078C13.0321 2.56744 13.4536 2.57556 13.8726 2.55262C14.1354 2.53824 14.3185 2.32517 14.325 2.09412C14.3316 1.86111 14.1913 1.65995 13.9405 1.6471C13.4651 1.62272 12.987 1.64004 12.4874 1.64004C12.4874 1.88633 12.4874 2.13856 12.4878 2.43536Z" fill="#E3F8F5"/>
<path d="M48.6432 2.99251C48.7913 3.20653 48.9289 3.40655 49.0664 3.60656C49.0848 3.60275 49.1032 3.59894 49.1216 3.59513C49.1216 3.10049 49.1216 2.60584 49.1216 2.1112C49.1216 1.61216 49.1216 1.11311 49.1216 0.597655C49.6174 0.597655 50.0944 0.597655 50.5944 0.597655C50.5944 2.26608 50.5944 3.93813 50.5944 5.64767C50.1853 5.64767 49.7672 5.62964 49.3522 5.65398C49.0733 5.67034 48.9272 5.5821 48.7895 5.368C48.2153 4.47576 47.6176 3.59564 47.0281 2.71133C47.0066 2.67902 46.9801 2.64938 46.9127 2.56333C46.9127 3.61815 46.9127 4.61516 46.9127 5.62972C46.392 5.62972 45.9078 5.62972 45.4036 5.62972C45.4036 3.96091 45.4036 2.28836 45.4036 0.582454C45.9171 0.582454 46.4284 0.578611 46.9394 0.587873C46.996 0.588898 47.0685 0.655125 47.1039 0.707309C47.6165 1.46275 48.124 2.22096 48.6432 2.99251Z" fill="#E3F8F5"/>
<path d="M22.4619 3.36856C22.3675 4.24558 21.9471 4.92719 21.119 5.38357C19.6083 6.21619 17.4537 5.69099 16.737 4.29916C16.1673 3.19263 16.3877 1.51854 17.8786 0.761792C19.3939 -0.00736383 21.5041 0.531855 22.1973 1.88512C22.4351 2.34924 22.5028 2.84162 22.4619 3.36856ZM18.2008 3.82779C18.4893 4.40205 18.9274 4.63634 19.6267 4.59034C20.2033 4.55241 20.6454 4.21604 20.7833 3.63578C20.8546 3.33545 20.8623 3.01136 20.8268 2.70468C20.7508 2.04728 20.2154 1.60101 19.5527 1.59088C18.749 1.57859 18.2429 1.95696 18.1019 2.66039C18.0244 3.04685 18.0449 3.42322 18.2008 3.82779Z" fill="#E3F8F5"/>
<path d="M25.3713 0.581125C25.8745 0.612238 26.366 0.589233 26.8267 0.684965C28.0352 0.936078 28.4962 2.06505 27.7544 2.89653C27.6188 3.04857 27.4254 3.15925 27.2502 3.29566C27.9298 3.55498 27.9828 4.12735 28.0508 4.69693C28.0879 5.00707 28.1442 5.31537 28.1952 5.64655C27.7451 5.64655 27.2607 5.65225 26.7769 5.63878C26.7214 5.63723 26.6343 5.534 26.6221 5.46889C26.5713 5.19657 26.5371 4.92135 26.5086 4.64621C26.4449 4.02954 26.1773 3.80726 25.4844 3.80704C25.1513 3.80694 24.8181 3.80703 24.4587 3.80703C24.4587 4.42195 24.4587 5.01815 24.4587 5.63077C23.9484 5.63077 23.4643 5.63077 22.9608 5.63077C22.9608 3.95756 22.9608 2.28605 22.9608 0.581123C23.7557 0.581123 24.5506 0.581123 25.3713 0.581125ZM24.9865 1.64279C24.8173 1.64279 24.6481 1.64279 24.4672 1.64279C24.4672 2.03476 24.4672 2.39861 24.4672 2.75733C24.9963 2.75733 25.5101 2.78309 26.0188 2.7484C26.3663 2.72472 26.5056 2.52359 26.505 2.20085C26.5044 1.89505 26.3645 1.72613 26.0116 1.68493C25.6903 1.64743 25.3625 1.65506 24.9865 1.64279Z" fill="#E3F8F5"/>
<path d="M30.9178 4.5889C31.06 4.59457 31.1804 4.60402 31.3 4.59947C31.876 4.57761 32.2186 4.29167 32.2284 3.7766C32.2468 2.80005 32.2395 1.82311 32.2429 0.846338C32.2432 0.763526 32.2429 0.680715 32.2429 0.58332C32.7794 0.58332 33.289 0.58332 33.7948 0.58332C33.8074 0.603887 33.8222 0.616762 33.8222 0.629637C33.8222 1.72164 33.851 2.81451 33.8117 3.9054C33.7724 4.9957 32.99 5.66735 31.6978 5.73107C31.1646 5.75737 30.6097 5.73348 30.091 5.62831C29.1566 5.43886 28.6471 4.88017 28.5932 3.91956C28.5314 2.81619 28.5789 1.7079 28.5789 0.58509C29.0957 0.58509 29.6062 0.58509 30.1574 0.58509C30.1574 0.671696 30.1574 0.760559 30.1574 0.849422C30.158 1.80319 30.1543 2.75698 30.161 3.71071C30.1644 4.19636 30.3832 4.44642 30.9178 4.5889Z" fill="#E3F8F5"/>
<path d="M35.4936 0.588237C36.5016 0.346047 37.4684 0.334813 38.364 0.849434C38.571 0.968338 38.732 1.15134 38.9533 1.33783C38.5054 1.53581 38.1326 1.70541 37.7531 1.86194C37.7075 1.88075 37.6151 1.84163 37.5619 1.8075C37.1505 1.54356 36.7014 1.41306 36.2065 1.55155C36.0767 1.58789 35.9398 1.71729 35.8868 1.83349C35.811 1.9993 35.9721 2.11526 36.1267 2.16323C36.4981 2.27845 36.8827 2.35929 37.2556 2.47106C37.6769 2.59733 38.112 2.70585 38.5046 2.886C39.6106 3.39356 39.3863 4.72237 38.6372 5.21554C37.5209 5.95036 35.6502 5.92446 34.5906 5.13053C34.395 4.98403 34.2606 4.77206 34.0588 4.54648C34.5493 4.39595 34.965 4.26273 35.3866 4.14656C35.436 4.13296 35.5324 4.20165 35.582 4.25198C36.0097 4.68591 36.7193 4.81215 37.2916 4.55353C37.4967 4.46082 37.6585 4.34057 37.6323 4.1133C37.6073 3.8973 37.4231 3.80441 37.2195 3.74907C36.8669 3.65326 36.5055 3.5821 36.157 3.47638C35.7606 3.35616 35.3449 3.2539 34.9891 3.06579C33.9363 2.50928 33.995 1.27552 35.0776 0.758899C35.2061 0.69758 35.3417 0.648272 35.4936 0.588237Z" fill="#E3F8F5"/>
<path d="M41.3572 4.73703C41.0429 4.68714 40.9148 4.80567 40.823 5.05191C40.5994 5.65234 40.5838 5.64767 39.8748 5.64767C39.5836 5.64767 39.2924 5.64767 38.9585 5.64767C39.0259 5.48275 39.0791 5.34173 39.1407 5.20367C39.7984 3.72817 40.4596 2.25393 41.1126 0.776788C41.1796 0.625346 41.2676 0.570922 41.4505 0.577223C41.8448 0.590807 42.2402 0.586135 42.6349 0.579058C42.7651 0.576723 42.8341 0.612244 42.8834 0.723312C43.596 2.32886 44.3131 3.93279 45.0282 5.53746C45.04 5.56405 45.04 5.5949 45.0499 5.64709C44.5309 5.64709 44.0267 5.65166 43.5229 5.64065C43.467 5.63942 43.3911 5.5579 43.3631 5.49889C43.2691 5.3013 43.1842 5.09942 43.1127 4.89445C43.0686 4.768 42.9913 4.73243 42.8496 4.73444C42.3604 4.74137 41.871 4.73706 41.3572 4.73703ZM41.7993 2.52514C41.644 2.92582 41.4888 3.32649 41.3279 3.74162C41.789 3.74162 42.205 3.74162 42.6626 3.74162C42.445 3.15744 42.2362 2.59673 42.0084 1.985C41.9277 2.19123 41.8691 2.34083 41.7993 2.52514Z" fill="#E3F8F5"/>
</svg>
