<svg width="93" height="23" viewBox="0 0 93 23" fill="none" xmlns="http://www.w3.org/2000/svg">
<path d="M42.8708 9.7937V1.62829H44.0792L47.0085 8.58536L49.9012 1.62829H51.1461V9.7937H50.3405V2.54369L47.338 9.7937H46.6423L43.6764 2.54369V9.7937H42.8708Z" fill="#E3F8F5"/>
<path d="M57.1512 1.48183C58.0299 1.48183 58.7989 1.73814 59.5312 2.21415C60.1903 2.69016 60.6663 3.23941 60.9959 3.93511C61.2522 4.48436 61.3986 5.10683 61.3986 5.72931C61.3986 6.79118 61.0325 7.7432 60.3002 8.54875C59.8974 8.95153 59.458 9.28108 58.9454 9.53739C58.3961 9.7937 57.7736 9.94017 57.1878 9.94017C56.309 9.94017 55.54 9.68386 54.8077 9.20784C54.1486 8.76845 53.6726 8.18259 53.3431 7.48688C53.0868 6.93764 52.9403 6.31517 52.9403 5.65608C52.9403 4.96037 53.1234 4.30128 53.4895 3.64218C53.8557 2.98309 54.4049 2.43385 55.1007 2.06769C55.7231 1.70153 56.4188 1.51845 57.1512 1.48183ZM57.1512 2.21415C56.1991 2.21415 55.3936 2.58032 54.7345 3.27602C54.4049 3.60557 54.1486 4.00835 54.0022 4.44774C53.8191 4.85052 53.7459 5.28991 53.7459 5.69269C53.7459 6.57148 54.0388 7.34042 54.588 7.99951C54.9176 8.36567 55.2837 8.6586 55.7231 8.8783C56.1991 9.098 56.6751 9.20784 57.1878 9.20784C57.8835 9.20784 58.506 8.98815 59.0918 8.58537C59.6411 8.21921 60.0072 7.7432 60.3002 7.15734C60.4832 6.68133 60.5931 6.20532 60.5931 5.72931C60.5931 5.10683 60.4466 4.48436 60.1171 3.93511C59.7875 3.38587 59.3115 2.94648 58.7623 2.61693C58.2496 2.36062 57.737 2.25077 57.1512 2.21415Z" fill="#E3F8F5"/>
<path d="M63.1928 9.7937V1.62829H65.2067C66.0123 1.62829 66.6348 1.81137 67.0375 2.17753C67.2938 2.36061 67.4769 2.61693 67.6234 2.90986C67.7699 3.20278 67.8431 3.49571 67.8431 3.82526C67.8431 4.15481 67.7699 4.44774 67.6234 4.70405C67.4769 4.96036 67.2572 5.21668 66.9643 5.43637C67.3671 5.61945 67.6966 5.87577 67.9163 6.24193C68.136 6.60809 68.2825 7.01087 68.2825 7.45026C68.2825 7.9995 68.0994 8.47552 67.8065 8.87829C67.5135 9.20784 67.2206 9.46415 66.8178 9.574C66.4517 9.72047 65.9024 9.7937 65.2067 9.7937H63.1928ZM63.9984 9.06137H65.1335C65.7926 9.06137 66.3052 8.98814 66.5981 8.84168C66.8545 8.73183 67.0742 8.51213 67.2206 8.25582C67.4037 7.99951 67.4769 7.74319 67.4769 7.45026C67.4769 7.01087 67.2938 6.64471 66.9643 6.35178C66.7812 6.1687 66.5249 6.05885 66.2686 5.98561C65.9757 5.91238 65.5729 5.87577 64.987 5.87577H63.9984V9.06137ZM63.9984 5.14344H64.987C65.3532 5.14344 65.6461 5.14344 65.8292 5.10683C66.0489 5.07021 66.232 4.99698 66.3784 4.92375C66.5615 4.8139 66.708 4.66743 66.8545 4.44774C66.9643 4.22804 67.0375 4.00834 67.0375 3.78864C67.0375 3.60556 66.9643 3.38587 66.8911 3.20278C66.7812 3.0197 66.6714 2.83662 66.4883 2.72677C66.1954 2.50708 65.7193 2.36061 65.0603 2.36061H63.9984V5.14344Z" fill="#E3F8F5"/>
<path d="M70.0767 9.7937V1.62829H70.8822V9.7937H70.0767Z" fill="#E3F8F5"/>
<path d="M73.1158 9.7937V1.62829H73.9214V9.06137H77.2534V9.7937H73.1158Z" fill="#E3F8F5"/>
<path d="M78.8279 9.7937V1.62829H79.6335V9.7937H78.8279Z" fill="#E3F8F5"/>
<path d="M83.0022 9.7937V2.36061H81.1714V1.62829H85.6386V2.36061H83.8078V9.7937H83.0022Z" fill="#E3F8F5"/>
<path d="M89.3734 9.7937V7.0841L86.6272 1.62829H87.506L89.7762 6.20531L92.1196 1.62829H92.9984L90.179 7.0841V9.7937H89.3734Z" fill="#E3F8F5"/>
<path d="M42.8708 20.7419V12.6131H46.8986V13.3455H43.6764V16.2748H46.7888V17.0071H43.6764V20.7419H42.8708Z" fill="#E3F8F5"/>
<path d="M48.5464 12.6131H49.3519V17.6662C49.3519 18.3619 49.4618 18.9111 49.7547 19.3139C49.9012 19.5702 50.1209 19.7533 50.3772 19.8998C50.6701 20.0462 50.963 20.1195 51.256 20.1195C51.5489 20.1195 51.8418 20.0462 52.1348 19.8998C52.3911 19.7533 52.6108 19.5702 52.7572 19.3139C53.0502 18.9111 53.16 18.3619 53.16 17.6662V12.6131H53.9656V17.6662C53.9656 18.6182 53.7825 19.3139 53.3797 19.8631C53.16 20.1561 52.8671 20.4124 52.5009 20.5955C52.0981 20.7785 51.6954 20.8884 51.256 20.8884C50.6335 20.8884 50.0842 20.7053 49.6082 20.3392C48.9125 19.8265 48.5464 18.9111 48.5464 17.6662V12.6131Z" fill="#E3F8F5"/>
<path d="M56.1259 20.7419V12.6131H57.2244L61.6916 19.3505V12.6131H62.4971V20.7419H61.6916L56.9315 13.6018V20.7419H56.1259Z" fill="#E3F8F5"/>
<path d="M64.7307 20.7419V12.6131H67.0375C68.0994 12.6131 68.9782 12.8328 69.6739 13.2722C70.2232 13.6384 70.6625 14.1144 70.9555 14.7003C71.3216 15.3227 71.5047 15.9818 71.5047 16.6775C71.5047 17.5563 71.2118 18.3985 70.6992 19.0942C70.2598 19.6801 69.7838 20.0828 69.1979 20.3392C68.612 20.5955 67.9163 20.7419 67.0742 20.7419H64.7307ZM65.5363 20.0096H66.708C67.4403 20.0096 68.0262 19.9364 68.429 19.8265C69.1613 19.6068 69.7471 19.1674 70.1499 18.5083C70.5161 17.9591 70.6992 17.3366 70.6992 16.6409C70.6992 15.9452 70.4795 15.2861 70.0767 14.7369C69.7105 14.2609 69.2711 13.8947 68.7585 13.675C68.2093 13.4553 67.5502 13.3455 66.708 13.3455H65.5363V20.0096Z" fill="#E3F8F5"/>
<path fill-rule="evenodd" clip-rule="evenodd" d="M4.68016 1.92122C4.68016 2.39723 4.79001 2.43385 5.15617 2.61693L5.88849 3.12955C6.40112 3.53233 7.13344 3.71541 7.60946 4.19142C8.01223 4.52097 8.01223 4.3745 8.37839 4.66743C9.0741 5.21668 10.5754 5.91238 11.3809 6.49824L13.8708 8.10936C14.1271 8.29244 14.3102 8.32905 14.5665 8.51213C15.0792 8.95153 15.7749 9.28107 16.3607 9.64724L17.093 10.0866C17.4226 10.2697 17.4958 10.4162 17.862 10.5626C18.2282 10.7091 18.2648 10.8556 18.5577 11.0387L19.3266 11.478C19.5097 11.5879 19.6928 11.6977 19.8393 11.8076C20.1688 12.0639 20.0223 11.9541 20.3885 12.1371C20.7181 12.2836 21.011 12.6131 21.3405 12.7962L22.8784 13.675C23.0615 13.7849 22.9516 13.7116 23.0981 13.8215L25.5514 15.396C25.8443 15.5791 25.9908 15.7621 26.3203 15.872C26.6865 16.0185 26.54 15.9818 26.7963 16.2015C27.2724 16.5311 27.8948 16.824 28.3708 17.1169L29.689 17.9591C29.8355 18.069 29.689 17.9957 29.8355 18.069C30.0552 18.2154 30.1284 18.1788 30.3481 18.3619C30.458 18.4351 30.4213 18.4351 30.5678 18.5084C31.0438 18.8013 31.5931 19.0576 32.0325 19.4604L32.8014 19.9364C33.0211 20.1195 33.0943 20.0828 33.314 20.2293C33.4971 20.3758 33.5703 20.4856 33.8266 20.449C33.8999 20.449 34.0463 20.4124 34.083 20.3758L34.266 20.2293H34.3027L35.5842 19.4238C35.8772 19.2041 36.0969 19.1674 36.2067 18.7281C36.0602 18.6548 35.9504 18.5816 35.8039 18.4717C35.5842 18.3619 35.6208 18.3253 35.4011 18.2154C34.7787 17.9225 33.4239 16.4212 33.0577 15.7988C32.6915 15.2495 32.3254 14.6637 32.0691 14.0778C31.9592 13.7482 31.6663 12.7596 31.6663 12.4301V10.9654C31.6663 10.4162 31.8494 10.3063 31.9226 9.94016C31.9958 9.68385 31.9592 9.64724 32.0325 9.39092L32.4719 8.4389C32.5817 8.2192 32.6183 8.25582 32.7282 8.03612L33.1309 7.41365C33.2408 7.3038 33.1676 7.34042 33.2774 7.19395C33.3506 7.12072 33.4971 6.90102 33.5703 6.82779L34.6322 5.83915C34.9251 5.50961 35.2181 5.32653 35.511 5.0336C35.8039 4.77728 36.1335 4.85051 36.1335 4.41112C36.1335 4.15481 35.5842 3.93511 35.3279 3.78865C33.314 2.61693 34.083 2.80001 32.4352 3.71541L29.7623 5.36314C29.1032 5.80254 28.4075 6.09547 27.785 6.60809C27.6019 6.75456 27.3456 6.90102 27.1259 7.04749C26.54 7.41365 25.1852 8.10936 24.7458 8.47552L23.0249 9.50077C23.0249 9.83032 23.0249 9.75708 23.208 9.97678C23.4643 10.2331 24.0135 10.4528 24.3431 10.6725L24.9655 11.0753C25.4415 11.3316 25.2951 11.478 26.7231 10.526L28.7736 9.20784C28.9201 9.13461 28.9933 9.09799 29.1032 9.02476L29.7989 8.62198C29.9453 8.54875 29.8721 8.58537 29.9819 8.51213L30.0552 8.4389C30.0552 8.40229 30.0918 8.40229 30.0918 8.40229C30.4946 8.03612 30.6044 7.99951 30.8607 8.07274C30.7509 8.40229 30.7509 8.54875 30.6044 8.84168C30.5678 8.98814 30.5312 9.06138 30.4946 9.24446C29.9819 10.7091 30.2749 10.1965 30.0918 11.5513C29.8721 13.1624 30.8607 14.8833 30.8607 14.9932C30.8607 15.1763 30.8241 15.103 30.7875 15.2861C30.3847 15.2129 30.2383 14.9932 29.9453 14.8101C29.7989 14.7369 29.7622 14.7735 29.6158 14.7003C29.3961 14.5904 29.3595 14.4806 29.1032 14.3341L23.5375 10.8922C23.3178 10.7823 23.2812 10.6725 23.0249 10.526L20.8279 9.13461C20.6082 8.98814 20.4984 9.02476 20.242 8.84168C20.0956 8.73183 20.1322 8.76845 19.9857 8.6586C19.583 8.4389 19.29 8.14597 18.8506 7.96289C18.3746 7.74319 18.1549 7.41365 17.4592 7.0841L14.9693 5.54622C14.6031 5.25329 13.9441 4.96036 13.6511 4.66743L13.1019 4.26466C13.6877 4.19142 13.3948 4.15481 14.0173 4.30127C15.1524 4.5942 18.1183 4.63082 19.3999 4.63082C20.3153 4.63082 20.9377 4.48435 21.8532 4.48435L23.5741 4.22804C23.867 4.15481 23.7938 4.11819 24.0501 4.33789C23.2446 4.52097 23.9769 4.41112 22.8784 5.07021L21.6701 5.80254C21.487 5.91238 21.3039 6.02223 21.1208 6.1687C20.8279 6.42501 19.6562 7.15733 19.3266 7.26718C19.3999 7.5235 19.5097 7.70658 19.7294 7.81643L20.6448 8.36567C21.0476 8.62198 21.3771 8.91491 21.8165 8.91491C21.9996 8.91491 23.0249 8.25582 23.208 8.10936C23.4277 7.92627 23.684 7.88966 23.9037 7.70658C24.0867 7.56011 24.0135 7.59673 24.1966 7.48688L25.5514 6.64471C25.8809 6.46163 26.2471 6.1687 26.5766 5.98562L29.9819 3.89849C30.458 3.49572 31.1537 3.20279 31.6663 2.87324C32.2155 2.50708 32.4352 2.47046 32.4719 1.99445L31.1171 1.11566C30.934 1.04243 30.9706 1.07905 30.7875 1.00582C30.3847 0.822734 30.5312 0.67627 30.0552 0.67627C29.6158 0.67627 29.7989 0.822734 29.4693 0.969199L28.8835 1.26213C28.6271 1.40859 28.5539 1.40859 28.261 1.51844C27.9681 1.62829 27.9681 1.70152 27.6751 1.81137C27.5287 1.84799 27.4554 1.84799 27.309 1.8846C27.0893 1.99445 27.1991 1.95784 27.0527 2.06768C26.7963 2.21415 26.6133 2.17753 26.3569 2.25077C26.1006 2.36061 26.0274 2.43385 25.7345 2.50708C25.4049 2.61693 25.2951 2.5437 24.9655 2.69016C24.5628 2.87324 23.9403 2.90986 23.5009 2.98309C23.0981 3.05632 23.1347 3.12955 22.8418 3.20279C22.2559 3.38587 18.7774 3.53233 17.9352 3.53233C16.91 3.53233 15.1158 3.34925 14.1271 3.09294C13.6511 2.98309 13.1019 2.98309 12.6259 2.83662C12.3329 2.72678 12.2963 2.69016 11.9668 2.61693C11.6739 2.5437 11.564 2.58031 11.3077 2.47046C11.0514 2.39723 10.9781 2.28738 10.6852 2.21415C9.5135 1.95784 7.31652 0.67627 7.0236 0.67627C6.73067 0.67627 5.63218 1.37198 5.33925 1.59167C5.08294 1.81137 5.04632 1.81137 4.68016 1.92122Z" fill="#E3F8F5"/>
<path fill-rule="evenodd" clip-rule="evenodd" d="M1.01854 4.26464C1.01854 4.74065 1.09178 4.81389 1.6044 5.10681C2.59304 5.72929 4.05769 7.19394 4.49708 8.21919L5.22941 9.79369C5.48572 10.4894 5.55895 11.6611 5.41249 12.3568C5.37587 12.6131 5.37587 12.6864 5.33926 13.0159C5.30264 13.6018 5.11956 13.7482 5.00971 14.151C4.60693 15.396 3.54506 16.5677 2.62966 17.4831C2.11703 17.9957 1.56779 18.3985 0.945312 18.728C1.09178 19.021 1.01854 19.1308 1.34809 19.3139C1.53117 19.3871 1.49456 19.3871 1.67764 19.497C1.93395 19.6801 3.03244 20.4124 3.28875 20.4124C3.54506 20.4124 3.50845 20.3758 3.69153 20.3025C4.09431 20.0462 4.60693 19.7899 5.00971 19.497C5.41249 19.1674 7.06022 18.252 7.42638 18.0323C7.75592 17.776 8.04885 17.5563 8.3784 17.4099L10.0627 16.348C10.2458 16.2381 10.2092 16.3114 10.3923 16.1649C10.5754 16.0184 10.4655 16.0551 10.7218 15.9086C11.0148 15.7621 11.088 15.6157 11.4175 15.5058C11.7837 15.3227 11.6739 15.2495 12.0766 15.0664L13.4681 14.2609C14.5665 13.4919 14.2004 13.6018 12.516 12.5399C12.1133 12.247 11.8569 11.9174 11.3443 12.2836C11.1978 12.3934 11.1978 12.3934 10.9781 12.5033C10.8317 12.6131 10.7951 12.6131 10.6852 12.723L9.62335 13.3455C9.22057 13.6384 9.22057 13.5652 8.92764 13.7482L6.91375 15.0664C6.76729 15.1396 6.69405 15.1763 6.54759 15.2495C5.96173 15.5424 6.18143 15.4326 6.43774 14.7003C6.54759 14.3707 6.62082 14.2609 6.73067 13.9679C6.76729 13.8947 7.09683 12.3568 7.09683 12.2104C7.09683 11.4048 7.06022 10.3429 6.76729 9.50076L6.32789 8.40227C6.03496 7.70656 6.51097 8.10934 6.84052 8.25581C7.0236 8.36566 7.27991 8.51212 7.46299 8.65858C7.75592 8.84167 7.68269 8.87828 8.08547 9.06136L15.1524 13.4919C15.665 13.8581 16.2509 14.0778 16.7635 14.4439L22.5123 18.0689C22.6587 18.1422 22.5123 18.0689 22.6587 18.1422L23.1347 18.4717C23.208 18.545 23.391 18.5816 23.5009 18.6182C23.7206 18.7647 23.7206 18.9477 23.9769 19.1674C24.0135 19.1674 24.0135 19.1674 24.0501 19.1674C23.5741 19.2773 23.4277 19.1308 22.9883 19.0576L19.9857 18.7647C18.5577 18.4717 17.5324 18.8013 16.8367 18.8013C16.434 18.8013 15.958 18.8745 15.5552 18.9111C15.1524 18.9844 14.7496 18.9477 14.3102 18.9844C13.8708 19.0576 13.5779 19.1674 13.1019 19.1674L13.4681 19.0942C13.4681 18.6548 13.5779 18.728 13.9807 18.4717C14.2736 18.2886 14.0905 18.3253 14.4933 18.1422L14.8229 17.9591C15.2622 17.5563 16.5072 16.8972 17.2029 16.4212C17.4226 16.2748 17.5691 16.2748 17.7888 16.0917C17.4958 15.5058 16.7635 15.0664 16.141 14.7735C15.9213 14.6636 15.7383 14.4073 15.4453 14.4073C15.189 14.4073 13.7244 15.3593 13.3948 15.579L12.4428 16.2381C12.2231 16.348 12.1865 16.3114 12.04 16.4212L10.7218 17.3C10.5388 17.4099 10.5754 17.3732 10.3557 17.4465C10.0994 17.5563 10.2092 17.5563 10.0261 17.7028L9.07411 18.2886C8.92764 18.3985 8.96426 18.4351 8.74456 18.545C7.93901 19.021 7.13345 19.4604 6.40112 20.0096L5.70542 20.4124C5.37587 20.6687 5.04633 20.925 4.60693 20.9982C4.89986 21.6207 4.79001 21.4742 5.70542 21.9869C6.03496 22.17 6.73067 22.7558 7.0236 22.7558L9.29381 21.6573C9.80643 21.4743 9.91628 21.3278 10.5021 21.1813C10.7951 21.1081 10.8683 20.9982 11.1246 20.925C11.3443 20.8518 11.6006 20.8518 11.8569 20.7785C12.2963 20.7053 12.4062 20.5588 13.2117 20.449C14.5665 20.1927 14.5299 20.1195 16.1776 19.973L18.814 19.8265C20.242 19.8265 21.4138 20.0096 22.8052 20.1927C23.3544 20.2659 23.684 20.449 24.2698 20.4856C24.7458 20.5222 24.5994 20.4856 24.9655 20.6687C25.4415 20.8884 25.8077 20.8152 26.2837 21.0349C26.54 21.1813 26.6133 21.2179 26.9062 21.2912L28.1511 21.8038C28.4075 21.9136 28.5173 21.9503 28.7736 22.0235C29.0299 22.1333 29.689 22.6826 29.9087 22.6826C30.6044 22.6826 30.3115 22.5727 30.8607 22.353C31.2635 22.2066 31.6663 21.8404 32.0325 21.6207C32.362 21.4376 32.362 21.401 32.4719 20.9982C31.9958 20.8884 32.2888 20.8518 31.5198 20.4856C31.3001 20.3758 31.3368 20.3025 31.1171 20.1561C30.8241 20.0096 30.8974 20.1195 30.641 19.8998L28.8469 18.7647C28.6272 18.5816 28.5905 18.6548 28.3708 18.5083L20.2054 13.4187C20.0224 13.2722 19.9857 13.3088 19.766 13.1258C19.5097 12.9061 19.6196 13.0159 19.29 12.8694C19.0337 12.723 18.8872 12.5765 18.6309 12.4301L17.7155 11.8076C17.6057 11.7343 17.5691 11.771 17.4592 11.6977L13.8342 9.42752C13.6511 9.31768 13.6511 9.24444 13.4314 9.13459L12.516 8.58535C12.3329 8.43889 12.3329 8.43889 12.0766 8.29242C11.8203 8.18257 11.8203 8.14596 11.6006 7.99949L8.85441 6.31515C8.67133 6.2053 8.5981 6.13207 8.41502 6.02222C8.1587 5.91237 8.1587 5.87575 7.93901 5.72929L7.53623 5.43636C7.27991 5.25328 7.2433 5.32651 6.98698 5.18005L4.35062 3.42247C4.13092 3.31262 4.02107 3.34924 3.83799 3.20277C3.10567 2.69015 3.06905 2.98308 2.44658 3.38585L1.89733 3.75202C1.56779 3.89848 1.42132 4.15479 1.01854 4.26464Z" fill="#E3F8F5"/>
</svg>
